<svg width="764" height="607" viewBox="0 0 764 607" fill="none" xmlns="http://www.w3.org/2000/svg">
<g clip-path="url(#clip0_564_5313)">
<g clip-path="url(#clip1_564_5313)">
<path d="M305.222 312.652C305.166 313.006 305.282 313.147 305.539 313.066L306.981 312.62C307.316 312.521 307.54 312.33 307.644 311.901C308.282 309.715 308.05 307.142 306.488 306.521C303.763 305.436 300.504 309.084 298.337 312.481C297.819 313.295 296.716 315.178 296.078 316.651C296.012 316.859 295.887 316.899 295.781 316.855C295.201 316.512 294.992 314.966 295.585 313.623C295.653 313.465 295.815 313.16 296.074 312.753C298.38 309.146 298.576 305.437 296.187 304.478C295.568 304.23 294.863 304.218 294.117 304.422C293.969 304.453 293.914 304.385 294.029 304.157C294.203 303.635 294.524 303.034 295.019 302.413C295.345 301.952 295.366 301.871 295.085 301.758L293.781 301.239C293.526 301.137 293.304 301.186 293.074 301.591C292.334 302.745 291.924 304.08 291.88 305.202C291.864 305.377 291.817 305.449 291.647 305.564C290.316 306.435 289.01 307.772 287.987 309.366C285.824 312.737 285.718 316.363 287.955 317.336C289.412 317.972 291.204 317.432 292.87 316.221L293.016 316.096C293.162 315.971 293.292 316.026 293.25 316.197C292.918 317.75 293.172 319.277 294.139 319.698C294.795 319.981 295.566 320.032 296.299 319.78C296.604 319.672 296.804 319.569 297.132 318.951C298.084 317.036 299.245 314.789 300.263 313.193C301.47 311.301 303.327 309.072 304.636 309.603C305.332 309.887 305.473 311.208 305.229 312.662L305.222 312.652ZM294.377 307.503C295.668 308.033 295.889 309.788 294.434 312.063C293.071 314.194 291.164 314.971 289.932 314.446C288.681 313.91 288.476 312.06 289.875 309.878C291.133 307.916 293.118 306.988 294.377 307.503Z" fill="white"/>
<path d="M296.488 296.461C296.349 296.676 296.357 296.814 296.536 296.883L307.508 301.125C307.669 301.186 307.843 301.072 307.985 300.85L309.44 298.567C309.581 298.348 309.571 298.205 309.382 298.135L303.101 295.753C301.431 295.119 300.736 293.736 302.468 291.036C302.675 290.711 302.931 290.362 303.215 290.022C303.357 289.851 303.495 289.636 303.256 289.46L302.002 288.471C301.84 288.323 301.715 288.321 301.407 288.651C301.263 288.774 300.892 289.302 300.709 289.587C299.49 291.486 299.396 293.275 299.69 294.414C299.755 294.663 299.54 294.85 299.358 294.781L298.148 294.319C297.994 294.261 297.848 294.34 297.686 294.59L296.488 296.459L296.488 296.461Z" fill="white"/>
<path d="M319.308 274.687L316.251 273.687C313.441 272.769 310.335 274.539 307.782 278.517C305.201 282.539 305.495 285.363 308.168 286.315L311.215 287.402C314.108 288.435 317.269 286.602 319.828 282.588C322.332 278.656 322.238 275.642 319.31 274.685L319.308 274.687ZM317.494 277.576C319.035 278.133 319.477 279.556 317.925 281.986C316.35 284.456 314.59 285.042 313.063 284.507L310.007 283.437C308.48 282.902 308.304 281.176 309.632 279.107C311.118 276.79 312.908 276.045 314.418 276.548L317.492 277.573L317.494 277.576Z" fill="white"/>
<path d="M334.732 258.38L323.315 255.102C323.156 255.055 322.986 255.174 322.85 255.385L321.453 257.562C321.296 257.807 321.33 257.9 321.515 257.956L328.715 260.069C330.278 260.528 330.537 262.222 329.21 264.304C327.766 266.568 325.858 267.401 324.332 266.928L317.15 264.71C316.991 264.661 316.868 264.708 316.709 264.953L315.304 267.142C315.168 267.354 315.179 267.485 315.364 267.543L322.501 269.795C325.279 270.673 328.448 269.065 330.727 265.49C331.51 264.263 332.159 262.572 332.122 261.492C332.094 261.228 332.332 260.957 332.581 261.03L332.997 261.152C333.191 261.21 333.317 261.118 333.476 260.865L334.782 258.816C334.942 258.564 334.927 258.433 334.732 258.377L334.732 258.38Z" fill="white"/>
<path d="M341.97 239.329L338.704 238.518C335.831 237.804 332.782 239.664 330.64 243.002C329.523 244.743 329.25 246.099 329.272 246.802C329.308 247.139 329.156 247.425 328.94 247.369L328.376 247.217C328.188 247.167 328.068 247.257 327.911 247.5L326.679 249.42C326.522 249.666 326.559 249.757 326.718 249.801L343.332 254.37C343.503 254.417 343.657 254.333 343.795 254.116L345.219 251.878C345.358 251.66 345.34 251.529 345.141 251.476L339.792 250.037C339.569 249.977 339.51 249.709 340.011 249.385C340.845 248.899 341.86 248.082 343.043 246.226C345.176 242.878 344.577 239.971 341.975 239.326L341.97 239.329ZM340.146 242.184C341.679 242.574 342.051 244.235 340.735 246.294C339.442 248.319 337.304 249.372 335.808 248.971L332.569 248.099C331.1 247.704 330.86 245.999 332.116 244.039C333.505 241.873 335.408 240.978 336.915 241.36L340.144 242.181L340.146 242.184Z" fill="white"/>
<path d="M406.147 80.3523C404.904 74.8227 409.912 68.4767 417.919 62.1322C427.288 54.7108 432.044 49.3939 432.21 44.4176C432.252 43.1584 433.036 42.9085 433.543 43.6527C435.844 47.0217 435.805 53.9193 426.208 62.605C416.604 71.3023 416.219 72.8071 416.138 79.4613C416.025 89.4106 399.554 95.5485 395.47 105.609C394.901 107.01 393.843 107.275 393.702 106.118C392.602 96.8866 408.448 90.5798 406.145 80.3546L406.147 80.3523ZM475.167 155.75C476.712 150.437 482.203 148.372 483.211 144.531C484.208 140.718 486.363 137.52 487.094 136.64C487.83 135.763 489.287 134.004 486.264 135.508C483.26 137.007 480.6 140.71 479.202 144.117C477.795 147.54 471.148 150.249 467.338 153.679C463.545 157.101 462.732 161.143 460.312 165.065C457.887 168.997 453.15 171.785 451.668 169.706C450.254 167.723 452.016 163.377 458.765 157.492C464.77 152.253 471.645 147.231 476.122 135.249C478.304 129.392 477.339 122.268 477.407 116.843C477.455 112.837 479.335 109.628 484.916 105.819C492.443 100.678 497.045 95.5463 496.843 87.7781C496.704 82.591 497.998 80.4472 501.01 77.5434C502.986 75.6412 502.239 75.9654 500.486 76.8417C495.844 79.1764 492.859 82.7423 491.013 87.6679C489.148 92.6311 485.567 95.7619 481.976 96.6133C478.519 97.4328 475.22 96.2298 478.059 91.007C480.903 85.765 491.536 78.0817 490.505 70.5539C489.543 63.5626 490.63 61.1768 496 55.4351C497.034 54.3344 496.817 54.1402 495.43 55.088C487.295 60.6303 484.931 67.3143 483.621 72.7034C482.15 78.7571 473.045 83.7995 466.05 92.8357C459.04 101.89 460.231 109.696 461.03 117.041C461.916 125.068 454.368 133.563 445.509 135.716C435.352 138.191 430.33 129.642 435.096 118.239C440.451 105.423 457.245 94.3627 466.241 81.9136C475.783 68.7155 475.474 60.0593 474.802 45.7249C474.166 32.1302 483.728 21.6919 492.452 12.1954C493.926 10.5936 493.312 10.4903 491.389 11.7657C472.099 24.543 466.858 35.2229 458.075 53.1232C446.195 77.3691 415.131 79.8302 395.324 118.576C385.848 137.102 374.193 142.535 368.951 142.514C362.492 142.491 361.294 137.848 365.529 130.229C370.16 121.891 381.671 113.391 386.409 101.642C390.766 90.84 385.621 85.9219 395.23 74.8879C396.3 73.6588 395.847 73.5637 394.686 74.5084C381.572 85.1899 385.826 90.3767 379.003 101.269C373.682 109.765 355.723 119.99 343.865 134.767C333.603 147.557 335.078 153.171 329.355 161.986C323.35 171.246 316.598 175.322 309.795 184.903C302.863 194.675 306.087 192.544 294.757 212.605C294.594 212.888 294.435 213.167 294.276 213.454C294.107 213.754 293.943 214.042 293.77 214.352L293.778 214.352C292.458 216.726 291.508 219.034 290.396 221.38C289.749 222.317 289.024 223.118 288.39 224.079L229.599 313.37C204.089 352.115 205.139 388.968 232.766 408.333C263.279 429.716 308.762 415.39 338.941 366.413L408.419 253.659C414.736 246.778 420.499 239.37 425.358 231.474C431.528 221.443 441.138 217.955 445.263 204.632C449.048 192.402 454.8 191.776 463.87 182.398C472.978 172.991 473.619 161.107 475.167 155.747L475.167 155.75ZM369.792 241.528C369.627 241.801 369.52 242.066 369.349 242.337L306.426 342.187C294.807 360.625 276.671 368.902 262.685 361.159C248.31 353.2 249.492 336.188 259.77 320.331L318.225 230.137C319.538 227.615 321.018 225.075 322.771 222.542C339.601 198.155 378.022 188.47 387.887 166.901C386.794 178.74 385.282 184.787 373.216 198.183C379.037 192.387 383.948 189.364 388.946 187.127C374.83 204.378 388.047 213.462 374.93 234.281C373.379 236.745 371.651 239.171 369.795 241.528L369.792 241.528Z" fill="#FE2150"/>
<path d="M12.3621 246.039C13.3628 246.702 15.1357 244.187 15.9342 242.881L15.9366 242.881L78.9762 141.631C80.3744 139.541 79.8309 139.473 79.2234 139.396L79.2213 139.396L71.7089 138.466C70.94 138.369 69.9826 139.097 68.7596 140.456L-6.88656 228.536C-8.32187 230.186 -9.33477 231.632 -8.48333 232.196L-4.95668 234.539C-4.58349 234.787 -3.67557 234.42 -2.49895 233.026C13.4037 214.542 29.146 195.96 44.8674 177.32L59.6246 159.692C60.3927 158.751 60.5885 158.98 60.0611 159.784L47.85 178.596L47.8524 178.597C34.2341 199.854 21.8929 219.376 8.57267 240.2C7.58843 241.844 7.44755 242.775 7.97699 243.127L12.3621 246.039Z" fill="white"/>
<path d="M115.518 161.046C114.871 162.637 113.501 164.526 111.657 165.673L101.124 172.324C99.5231 173.042 99.6616 171.775 100.199 169.965C102.659 163.283 101.977 160.058 98.7839 159.476C94.4727 158.687 87.1228 164.491 81.0717 172.742L45.5365 221.206C39.4 229.574 37.631 236.56 41.1347 238.497C44.3944 240.301 51.0294 236.154 58.2722 226.207L66.8536 214.424C67.8221 213.094 68.1492 212.247 67.6199 212.034L63.6149 210.432C62.7407 210.081 62.8445 209.168 64.4572 206.963L73.1841 195.019C74.7892 192.823 75.7782 192.234 76.6916 192.523L89.2049 196.486C90.2085 196.804 90.3203 197.791 88.6365 200.116L65.9577 231.407C49.8506 253.634 34.3936 262.418 27.0652 257.498C19.8278 252.639 23.9696 237.305 37.944 218.323L73.9447 169.424C87.2024 151.417 102.283 140.383 111.578 141.478C117.739 142.203 121.747 146.676 115.522 161.051L115.518 161.046Z" fill="white"/>
<path d="M144.552 147.484C146.526 147.728 146.438 148.801 145.315 151.477L112.035 234.118C111.77 234.869 112.292 234.507 112.611 234.06L169.276 154.246C170.934 151.911 172.29 150.918 173.739 151.097L182.68 152.203C184.081 152.377 184.356 153.368 182.488 156.013L88.3526 289.455C85.6454 293.291 84.0793 293.66 82.8967 292.875L77.9869 289.613C76.4802 288.611 75.9832 287.95 77.5398 284.225L113.274 198.052C113.866 196.734 113.386 196.592 112.209 198.235L58.8972 272.497C57.3548 274.645 56.2526 275.186 55.2123 274.494L49.591 270.763C48.6766 270.157 48.748 268.977 50.2456 266.903L133.757 151.192C135.983 148.106 137.684 146.639 139.38 146.85L144.554 147.491L144.552 147.484Z" fill="white"/>
<path d="M97.7828 302.757C96.5886 301.964 96.5385 300.469 98.4578 297.729L196.611 157.646C198.369 155.134 199.975 154.342 201.513 154.533L212.729 155.92C214.368 156.123 214.75 157.203 212.931 159.818L111.487 305.757C109.312 308.886 107.887 309.466 106.499 308.545L97.7828 302.757Z" fill="white"/>
<path d="M154.821 272.942L204.536 200.778C222.914 174.102 248.665 157.589 269.632 160.055C282.639 161.586 293.291 168.177 290.054 191.124C289.785 193.723 288.038 196.729 283.878 198.603L264.656 208.282C261.282 209.526 260.075 207.586 260.821 204.79C262.609 194.795 259.41 188.53 252.068 187.194C241.928 185.347 230.008 194.454 222.026 206.151L171.164 280.681C163.136 292.446 160.847 304.779 169.444 309.538C175.354 312.809 185.225 309.549 194.296 303.608C196.941 302.094 200.252 299.251 200.932 302.835L204.146 320.013C204.753 322.513 203.37 326.128 200.527 328.502C176.962 346.31 160.086 346.808 148.871 339.277C131.64 327.707 135.151 301.486 154.818 272.939L154.821 272.942Z" fill="white"/>
<path d="M608.351 641.764L553.943 605.637C546.351 600.595 543.703 595.171 547.59 587.712L653.935 383.725C654.872 381.929 652.395 381.812 650.316 382.544L587.412 437.482L481.811 528.146C475.76 532.373 469.849 535.071 462.879 530.596L439.319 515.471C432.942 511.378 429.58 509.217 430.948 498.8L453.698 384.067L466.866 323.756C466.674 323.155 465.63 322.247 465.087 323.172L375.189 476.404C371.927 481.965 368.352 482.412 363.645 479.286L336.632 461.349C332.791 458.797 332.051 454.376 335.139 449.252L486.325 198.396C489.463 193.19 493.653 190.688 499.965 191.469L527.344 194.856C534.768 195.775 538.076 196.185 537.568 203.968C535.936 216.568 519.052 325.565 515.828 346.996L502.928 425.948C502.407 430.543 504.329 430.724 507.81 428.176C516.42 419.943 566.17 375.356 576.058 366.726L731.628 230.047C739.64 224.069 748.028 222.166 760.676 223.732L810.307 229.874C822.864 231.427 827.195 236.464 823.326 244.328L629.396 638.528C625.274 646.906 617.231 647.659 608.356 641.766L608.351 641.764Z" fill="white"/>
</g>
</g>
<defs>
<clipPath id="clip0_564_5313">
<rect width="764" height="607" rx="12" fill="white"/>
</clipPath>
<clipPath id="clip1_564_5313">
<rect width="832.828" height="627.581" fill="white" transform="translate(3.55322 -13.7473) rotate(2.88189)"/>
</clipPath>
</defs>
</svg>
