<svg width="764" height="714" viewBox="0 0 764 714" fill="none" xmlns="http://www.w3.org/2000/svg">
<g clip-path="url(#clip0_564_5313)">
<g clip-path="url(#clip1_564_5313)">
<path d="M351.581 350.648C351.537 351.05 351.676 351.202 351.961 351.096L353.561 350.512C353.934 350.382 354.175 350.154 354.268 349.665C354.863 347.165 354.455 344.279 352.659 343.668C349.526 342.6 346.059 346.896 343.81 350.846C343.272 351.792 342.136 353.977 341.5 355.672C341.437 355.911 341.299 355.963 341.177 355.919C340.503 355.566 340.179 353.835 340.772 352.289C340.84 352.107 341.005 351.754 341.274 351.281C343.668 347.086 343.679 342.896 340.932 341.951C340.22 341.706 339.424 341.733 338.595 342.005C338.43 342.049 338.364 341.975 338.481 341.712C338.647 341.114 338.976 340.418 339.497 339.69C339.84 339.152 339.859 339.06 339.535 338.948L338.036 338.438C337.742 338.337 337.495 338.405 337.259 338.875C336.49 340.217 336.104 341.744 336.117 343.01C336.109 343.209 336.06 343.293 335.876 343.432C334.425 344.489 333.028 346.07 331.966 347.923C329.719 351.844 329.805 355.936 332.381 356.906C334.06 357.539 336.049 356.829 337.859 355.37L338.017 355.221C338.174 355.072 338.324 355.126 338.286 355.321C338 357.09 338.373 358.797 339.487 359.215C340.242 359.498 341.114 359.511 341.927 359.185C342.263 359.047 342.484 358.919 342.818 358.204C343.782 355.993 344.964 353.395 346.021 351.539C347.274 349.339 349.241 346.722 350.746 347.246C351.548 347.526 351.782 349.007 351.589 350.659L351.581 350.648ZM339.063 345.461C340.549 345.986 340.897 347.95 339.386 350.597C337.97 353.074 335.865 354.058 334.446 353.536C333.006 353.004 332.669 350.931 334.123 348.393C335.43 346.111 337.614 344.953 339.063 345.461Z" fill="white"/>
<path d="M340.816 332.901C340.672 333.151 340.688 333.306 340.894 333.374L353.503 337.531C353.688 337.59 353.878 337.452 354.025 337.194L355.535 334.539C355.682 334.284 355.663 334.124 355.446 334.056L348.23 331.727C346.312 331.108 345.45 329.589 347.249 326.449C347.464 326.071 347.733 325.664 348.034 325.264C348.184 325.063 348.328 324.813 348.048 324.628L346.578 323.585C346.388 323.428 346.247 323.433 345.918 323.822C345.763 323.968 345.374 324.585 345.184 324.916C343.918 327.125 343.913 329.147 344.309 330.413C344.396 330.69 344.165 330.912 343.956 330.845L342.565 330.394C342.389 330.336 342.228 330.434 342.06 330.725L340.816 332.898V332.901Z" fill="white"/>
<path d="M365.304 307.073L361.802 306.119C358.582 305.245 355.181 307.415 352.529 312.042C349.848 316.72 350.339 319.886 353.407 320.807L356.903 321.858C360.223 322.858 363.682 320.614 366.339 315.946C368.939 311.374 368.662 307.983 365.307 307.07L365.304 307.073ZM363.424 310.431C365.192 310.972 365.771 312.55 364.16 315.376C362.525 318.247 360.574 319.008 358.821 318.492L355.317 317.459C353.564 316.943 353.268 315.009 354.648 312.602C356.192 309.907 358.167 308.967 359.897 309.448L363.421 310.428L363.424 310.431Z" fill="white"/>
<path d="M381.766 287.825L368.71 284.779C368.528 284.736 368.343 284.88 368.202 285.124L366.751 287.657C366.588 287.942 366.631 288.045 366.843 288.097L375.079 290.069C376.867 290.499 377.255 292.392 375.878 294.813C374.378 297.446 372.275 298.492 370.528 298.047L362.306 295.954C362.124 295.908 361.988 295.968 361.822 296.253L360.363 298.799C360.222 299.047 360.241 299.193 360.453 299.248L368.626 301.381C371.808 302.212 375.288 300.22 377.655 296.063C378.467 294.637 379.103 292.694 379 291.479C378.954 291.183 379.206 290.865 379.492 290.933L379.967 291.047C380.19 291.102 380.326 290.99 380.491 290.697L381.847 288.314C382.013 288.021 381.989 287.874 381.766 287.822V287.825Z" fill="white"/>
<path d="M388.844 265.949L385.116 265.221C381.837 264.58 378.506 266.849 376.28 270.731C375.12 272.755 374.889 274.299 374.954 275.089C375.014 275.467 374.859 275.799 374.612 275.747L373.968 275.608C373.753 275.562 373.623 275.671 373.46 275.953L372.18 278.187C372.017 278.472 372.063 278.573 372.245 278.614L391.233 282.82C391.428 282.863 391.597 282.76 391.741 282.507L393.219 279.904C393.363 279.651 393.336 279.505 393.107 279.456L386.997 278.138C386.741 278.084 386.66 277.785 387.206 277.391C388.119 276.796 389.217 275.818 390.445 273.66C392.659 269.767 391.82 266.525 388.85 265.947L388.844 265.949ZM386.95 269.269C388.7 269.623 389.214 271.473 387.847 273.867C386.505 276.222 384.155 277.529 382.445 277.163L378.745 276.364C377.066 276.002 376.699 274.095 378.003 271.815C379.446 269.297 381.541 268.18 383.261 268.525L386.948 269.267L386.95 269.269Z" fill="white"/>
<path d="M452.166 83.188C450.452 77.0282 455.737 69.5941 464.402 61.9915C474.543 53.0982 479.602 46.8379 479.507 41.2216C479.483 39.8005 480.352 39.4744 480.966 40.2842C483.751 43.9496 484.099 51.7234 473.774 62.054C463.44 72.3982 463.092 74.1154 463.378 81.6175C463.815 92.8339 445.596 100.684 441.564 112.251C441.001 113.862 439.825 114.221 439.599 112.924C437.836 102.586 455.34 94.581 452.164 83.1907L452.166 83.188ZM534.248 164.224C535.688 158.151 541.761 155.513 542.679 151.128C543.587 146.775 545.834 143.05 546.608 142.017C547.388 140.987 548.931 138.922 545.608 140.789C542.307 142.647 539.519 146.97 538.136 150.889C536.745 154.826 529.406 158.255 525.305 162.336C521.224 166.406 520.537 171.006 518.031 175.563C515.521 180.131 510.339 183.541 508.551 181.283C506.845 179.128 508.584 174.131 515.858 167.118C522.33 160.874 529.794 154.826 534.161 141.071C536.288 134.349 534.797 126.377 534.566 120.261C534.392 115.745 536.329 112.022 542.405 107.414C550.597 101.195 555.494 95.1516 554.825 86.4105C554.374 80.5741 555.711 78.0852 558.942 74.6425C561.061 72.3873 560.238 72.7949 558.311 73.8817C553.211 76.7755 550.048 80.9626 548.247 86.617C546.426 92.3149 542.568 96.0455 538.568 97.2085C534.718 98.328 530.93 97.1596 533.835 91.1139C536.742 85.0465 548.293 75.7865 546.703 67.3633C545.223 59.5406 546.312 56.7909 552.04 50.017C553.143 48.7182 552.888 48.5117 551.377 49.6583C542.522 56.3643 540.236 64.0293 539.065 70.1755C537.75 77.0798 527.773 83.2777 520.401 93.8555C513.013 104.455 514.798 113.183 516.116 121.413C517.57 130.407 509.543 140.406 499.679 143.335C488.37 146.699 482.224 137.352 486.949 124.233C492.259 109.49 510.562 96.0754 519.996 81.5387C530.003 66.127 529.164 56.3914 527.593 40.2787C526.104 24.9975 536.291 12.6942 545.587 1.49952C547.157 -0.388896 546.459 -0.47041 544.364 1.07565C523.344 16.5661 518.042 28.8966 509.157 49.5632C497.142 77.5553 462.264 82.0903 442.135 126.869C432.505 148.28 419.674 155.062 413.764 155.337C406.482 155.676 404.868 150.514 409.21 141.688C413.957 132.032 426.451 121.801 431.124 108.294C435.423 95.8771 429.345 90.6275 439.551 77.6504C440.686 76.2049 440.17 76.1234 438.915 77.2537C424.739 90.0325 429.828 95.6353 422.755 108.294C417.24 118.169 397.575 130.708 385.046 148.03C374.204 163.023 376.185 169.265 370.235 179.522C363.991 190.295 356.611 195.27 349.486 206.452C342.226 217.855 345.739 215.271 334.107 238.517C333.938 238.845 333.775 239.169 333.612 239.5C333.438 239.848 333.27 240.182 333.093 240.541H333.101C331.748 243.291 330.808 245.945 329.689 248.652C329.012 249.744 328.24 250.687 327.58 251.806L266.375 355.745C239.817 400.847 243.091 442.311 275.334 462.562C310.943 484.924 361.401 466.203 392.641 409.309L464.562 278.326C471.293 270.215 477.369 261.542 482.398 252.369C488.784 240.718 499.419 236.242 503.312 220.997C506.886 207.003 513.333 205.971 523.026 194.89C532.759 183.774 532.808 170.349 534.248 164.222V164.224ZM420.332 266.848C420.161 267.166 420.055 267.471 419.878 267.786L354.613 383.857C342.563 405.29 322.589 415.645 306.383 407.714C289.727 399.562 290.093 380.328 300.78 361.878L361.556 256.939C362.893 254.023 364.417 251.078 366.249 248.125C383.837 219.692 426.598 206.601 436.494 181.739C435.934 195.14 434.573 202.039 421.731 217.817C427.964 210.957 433.328 207.272 438.836 204.468C423.902 224.705 439.317 234.191 425.712 258.393C424.103 261.257 422.294 264.088 420.334 266.848H420.332Z" fill="#FE2150"/>
<path d="M21.5198 288.445C20.6937 289.961 18.8379 292.895 17.6722 292.205L12.5639 289.173C11.9471 288.806 12.053 287.749 13.0693 285.842L24.8511 265.216C25.9733 263.156 26.3673 262.311 25.8564 262.078L16.7429 257.915C16.0935 257.619 15.3354 258.749 14.273 259.993C11.5177 263.648 2.99932 274.758 0.181577 278.386C-1.06562 280.024 -2.06827 280.489 -2.50302 280.231L-6.61143 277.791C-7.60321 277.204 -6.5435 275.517 -5.01915 273.576L75.2552 170.045C76.5567 168.444 77.5947 167.57 78.4669 167.635L86.9881 168.257C87.6782 168.309 88.2978 168.352 86.8386 170.789L21.5225 288.445H21.5198ZM53.8491 214.204L66.5465 192.315C67.0954 191.38 66.8617 191.133 66.0493 192.236L50.4145 212.935L30.511 239.085C29.5708 240.373 29.3181 240.748 29.8181 240.933L36.4916 243.392C36.8883 243.538 37.3448 243.223 38.1708 241.612L53.8518 214.204H53.8491Z" fill="white"/>
<path d="M129.132 190.592C128.493 192.42 127.056 194.627 125.042 196.023L113.546 204.115C111.783 205.014 111.867 203.58 112.369 201.509C114.763 193.841 113.812 190.247 110.179 189.771C105.275 189.127 97.3188 196.083 90.966 205.724L53.6588 262.344C47.2163 272.12 45.6186 280.092 49.6781 282.076C53.455 283.923 60.6991 278.875 68.2991 267.256L77.3039 253.494C78.3202 251.94 78.6408 250.967 78.0321 250.758L73.4265 249.179C72.4211 248.834 72.4863 247.799 74.1791 245.223L83.3388 231.27C85.0235 228.705 86.1049 227.985 87.1511 228.26L101.482 232.015C102.631 232.316 102.813 233.422 101.047 236.137L77.2577 272.68C60.3622 298.637 43.4367 309.41 34.8965 304.283C26.4623 299.218 30.261 281.706 44.9366 259.526L82.7438 202.39C96.6667 181.348 113.041 168.061 123.581 168.768C130.567 169.235 135.338 174.047 129.137 190.597L129.132 190.592Z" fill="white"/>
<path d="M161.092 173.664C163.331 173.827 163.293 175.042 162.178 178.12L129.352 273.12C129.097 273.981 129.664 273.544 129.999 273.022L189.345 179.881C191.081 177.155 192.554 175.96 194.198 176.079L204.339 176.819C205.928 176.935 206.295 178.036 204.339 181.123L105.797 336.813C102.962 341.288 101.218 341.793 99.8404 340.975L94.1207 337.579C92.3654 336.535 91.7676 335.818 93.311 331.533L128.703 232.414C129.295 230.895 128.746 230.762 127.512 232.68L71.6304 319.377C70.0137 321.885 68.8018 322.556 67.5899 321.836L61.0415 317.95C59.9763 317.32 59.9899 315.986 61.5605 313.565L149.133 178.454C151.467 174.851 153.301 173.101 155.225 173.243L161.094 173.672L161.092 173.664Z" fill="white"/>
<path d="M117.182 351.265C115.79 350.439 115.649 348.757 117.657 345.562L220.351 182.161C222.191 179.231 223.957 178.248 225.701 178.376L238.423 179.302C240.282 179.438 240.774 180.634 238.872 183.682L132.8 353.868C130.526 357.517 128.953 358.251 127.336 357.292L117.182 351.265Z" fill="white"/>
<path d="M179.786 314.437L231.733 230.308C250.936 199.211 279.026 179.144 302.802 180.734C317.551 181.72 329.933 188.543 327.585 214.582C327.431 217.524 325.632 221.01 321.048 223.358L299.93 235.354C296.196 236.946 294.726 234.83 295.408 231.637C296.857 220.274 292.895 213.397 284.542 212.307C273.008 210.802 260.087 221.739 251.754 235.371L198.649 322.23C190.266 335.94 188.386 349.966 198.347 354.841C205.195 358.191 216.137 353.958 226.025 346.749C228.921 344.893 232.492 341.502 233.462 345.502L238.059 364.674C238.885 367.457 237.532 371.608 234.462 374.445C208.909 395.845 189.913 397.364 176.843 389.515C156.763 377.456 159.233 347.714 179.783 314.434L179.786 314.437Z" fill="white"/>
<path d="M711.961 704.269L648.579 666.65C639.735 661.401 636.442 655.439 640.401 646.815L748.703 410.947C749.657 408.872 746.858 408.88 744.556 409.823L676.765 475.29L562.871 583.432C556.29 588.538 549.779 591.912 541.668 587.266L514.252 571.561C506.831 567.311 502.918 565.067 503.869 553.253L523.004 422.691L534.424 353.991C534.174 353.325 532.946 352.36 532.386 353.433L439.743 531.181C436.382 537.632 432.377 538.338 426.894 535.083L395.426 516.406C390.951 513.748 389.866 508.808 393.056 502.861L549.247 211.642C552.488 205.599 557.07 202.542 564.229 203.064L595.284 205.327C603.705 205.941 607.457 206.216 607.327 215.014C606.202 229.303 593.355 353.069 590.937 377.399L580.875 467.087C580.549 472.293 582.725 472.388 586.505 469.32C595.743 459.555 649.294 406.497 659.951 396.212L827.562 233.39C836.254 226.2 845.601 223.581 859.948 224.627L916.243 228.733C930.487 229.77 935.655 235.199 931.739 244.28L735.5 699.43C731.329 709.103 722.305 710.407 711.966 704.272L711.961 704.269Z" fill="white"/>
</g>
</g>
<defs>
<clipPath id="clip0_564_5313">
<rect width="764" height="714" rx="12" fill="white"/>
</clipPath>
<clipPath id="clip1_564_5313">
<rect width="940" height="708" fill="white" transform="translate(-7)"/>
</clipPath>
</defs>
</svg>
