<svg width="20" height="20" viewBox="0 0 20 20" fill="none" xmlns="http://www.w3.org/2000/svg">
<g id="fb-icon" clip-path="url(#clip0_730_5429)">
<g id="logo">
<path id="Vector" d="M20 10.0607C20 4.53788 15.5229 0.06073 10 0.06073C4.47715 0.06073 0 4.53788 0 10.0607C0 15.0519 3.65684 19.1891 8.4375 19.9392V12.9514H5.89844V10.0607H8.4375V7.85761C8.4375 5.35136 9.93047 3.96698 12.2146 3.96698C13.3088 3.96698 14.4531 4.16229 14.4531 4.16229V6.62323H13.1922C11.95 6.62323 11.5625 7.39413 11.5625 8.18495V10.0607H14.3359L13.8926 12.9514H11.5625V19.9392C16.3432 19.1891 20 15.0521 20 10.0607Z" fill="#D3E2EC"/>
</g>
</g>
<defs>
<clipPath id="clip0_730_5429">
<rect width="20" height="20" fill="white"/>
</clipPath>
</defs>
</svg>
