<svg width="764" height="536" viewBox="0 0 764 536" fill="none" xmlns="http://www.w3.org/2000/svg">
<path d="M493 326C493 355.271 469.271 379 440 379V379C410.729 379 387 355.271 387 326V273H440C469.271 273 493 296.729 493 326V326Z" fill="url(#paint0_linear_511_4790)"/>
<path d="M271 326C271 355.271 294.729 379 324 379V379C353.271 379 377 355.271 377 326V273H324C294.729 273 271 296.729 271 326V326Z" fill="url(#paint1_linear_511_4790)"/>
<path d="M493 210C493 180.729 469.271 157 440 157V157C410.729 157 387 180.729 387 210L387 263L440 263C469.271 263 493 239.271 493 210V210Z" fill="url(#paint2_linear_511_4790)"/>
<path d="M271 210C271 180.729 294.729 157 324 157V157C353.271 157 377 180.729 377 210L377 263L324 263C294.729 263 271 239.271 271 210V210Z" fill="url(#paint3_linear_511_4790)"/>
<defs>
<linearGradient id="paint0_linear_511_4790" x1="440" y1="379" x2="440" y2="273" gradientUnits="userSpaceOnUse">
<stop stop-color="#D5DBE6"/>
<stop offset="0.979167" stop-color="white"/>
</linearGradient>
<linearGradient id="paint1_linear_511_4790" x1="324" y1="379" x2="324" y2="273" gradientUnits="userSpaceOnUse">
<stop stop-color="#D5DBE6"/>
<stop offset="0.979167" stop-color="white"/>
</linearGradient>
<linearGradient id="paint2_linear_511_4790" x1="440" y1="157" x2="440" y2="263" gradientUnits="userSpaceOnUse">
<stop stop-color="white"/>
<stop offset="1" stop-color="#D5DBE6"/>
</linearGradient>
<linearGradient id="paint3_linear_511_4790" x1="324" y1="157" x2="324" y2="263" gradientUnits="userSpaceOnUse">
<stop stop-color="white"/>
<stop offset="1" stop-color="#D5DBE6"/>
</linearGradient>
</defs>
</svg>
