<svg width="20" height="20" viewBox="0 0 20 20" fill="none" xmlns="http://www.w3.org/2000/svg">
<path id="in-icon" fill-rule="evenodd" clip-rule="evenodd" d="M1.47796 0C0.661687 0 0 0.641645 0 1.43268V18.5673C0 19.3586 0.661687 20 1.47796 20H18.522C19.3383 20 20 19.3586 20 18.5673V1.43268C20 0.641645 19.3383 0 18.522 0H1.47796ZM6.06262 16.7214V7.63298H3.0418V16.7214H6.06262ZM4.55219 6.39211C5.60561 6.39211 6.26128 5.69422 6.26128 4.82206C6.24165 3.93027 5.60562 3.25174 4.57218 3.25174C3.53885 3.25174 2.86322 3.93027 2.86322 4.82206C2.86322 5.69422 3.51875 6.39211 4.5325 6.39211H4.55219ZM7.73413 16.7214H10.7549V11.646C10.7549 11.3744 10.7746 11.1031 10.8543 10.9089C11.0727 10.3662 11.5697 9.8041 12.4043 9.8041C13.4973 9.8041 13.9346 10.6375 13.9346 11.8593V16.7214H16.9552V11.5102C16.9552 8.71867 15.4649 7.41971 13.4774 7.41971C11.8749 7.41971 11.1565 8.30044 10.755 8.91973V7.63298H7.73421C7.77385 8.48577 7.73413 16.7214 7.73413 16.7214ZM10.755 8.91973V8.95103H10.7348L10.755 8.91973Z" fill="#D3E2EC"/>
</svg>
