<svg width="28" height="28" viewBox="0 0 28 28" fill="none" xmlns="http://www.w3.org/2000/svg">
<mask id="mask0_456_12999" style="mask-type:alpha" maskUnits="userSpaceOnUse" x="0" y="0" width="28" height="28">
<rect width="28" height="28" fill="#D9D9D9"/>
</mask>
<g mask="url(#mask0_456_12999)">
<path d="M10.3056 9.45002H17.6945V6.8639C17.6945 5.82146 17.3355 4.93539 16.6176 4.20568C15.8997 3.47597 15.0279 3.11111 14.0023 3.11111C12.9767 3.11111 12.1042 3.47597 11.3847 4.20568C10.6653 4.93539 10.3056 5.82146 10.3056 6.8639V9.45002ZM21.6417 26.7167C20.0537 26.7167 18.7072 26.1641 17.6021 25.0591C16.497 23.954 15.9445 22.6074 15.9445 21.0195C15.9445 19.4315 16.497 18.085 17.6021 16.9799C18.7072 15.8748 20.0537 15.3222 21.6417 15.3222C23.2297 15.3222 24.5762 15.8748 25.6813 16.9799C26.7864 18.085 27.3389 19.4315 27.3389 21.0195C27.3389 22.6074 26.7864 23.954 25.6813 25.0591C24.5762 26.1641 23.2297 26.7167 21.6417 26.7167ZM23.7222 23.8972L24.5195 23.1L22.1667 20.9028V17.4028H20.9611V21.2873L23.7222 23.8972ZM15.5945 25.6667H6.6111C6.07637 25.6667 5.61862 25.4763 5.23784 25.0955C4.85706 24.7147 4.66667 24.257 4.66667 23.7223V11.3944C4.66667 10.8597 4.85706 10.402 5.23784 10.0212C5.61862 9.64041 6.07637 9.45002 6.6111 9.45002H8.36113V6.8639C8.36113 5.28768 8.91111 3.94408 10.0111 2.83312C11.1111 1.72217 12.4414 1.16669 14.0021 1.16669C15.5627 1.16669 16.8924 1.72217 17.991 2.83312C19.0896 3.94408 19.6389 5.28768 19.6389 6.8639V9.45002H21.3889C21.9236 9.45002 22.3814 9.64041 22.7622 10.0212C23.1429 10.402 23.3333 10.8597 23.3333 11.3944V13.5917C23.0093 13.501 22.6852 13.4394 22.3611 13.407C22.037 13.3746 21.713 13.3649 21.3889 13.3778C19.3084 13.4297 17.5567 14.1961 16.1341 15.6771C14.7114 17.1581 14 18.9389 14 21.0195C14 21.8685 14.141 22.6868 14.423 23.4743C14.7049 24.2618 15.0954 24.9926 15.5945 25.6667Z" fill="#78868F"/>
</g>
</svg>
