<svg width="28" height="28" viewBox="0 0 28 28" fill="none" xmlns="http://www.w3.org/2000/svg">
<mask id="mask0_456_13003" style="mask-type:alpha" maskUnits="userSpaceOnUse" x="0" y="0" width="28" height="28">
<rect width="28" height="28" fill="#D9D9D9"/>
</mask>
<g mask="url(#mask0_456_13003)">
<path d="M10.3055 9.44996H17.6944V6.86384C17.6944 5.8214 17.3355 4.93533 16.6176 4.20562C15.8996 3.47591 15.0279 3.11105 14.0023 3.11105C12.9767 3.11105 12.1041 3.47591 11.3847 4.20562C10.6653 4.93533 10.3055 5.8214 10.3055 6.86384V9.44996ZM21.6417 26.7166C20.0537 26.7166 18.7072 26.1641 17.6021 25.059C16.497 23.9539 15.9444 22.6074 15.9444 21.0194C15.9444 19.4314 16.497 18.0849 17.6021 16.9798C18.7072 15.8747 20.0537 15.3222 21.6417 15.3222C23.2296 15.3222 24.5762 15.8747 25.6813 16.9798C26.7864 18.0849 27.3389 19.4314 27.3389 21.0194C27.3389 22.6074 26.7864 23.9539 25.6813 25.059C24.5762 26.1641 23.2296 26.7166 21.6417 26.7166ZM23.7222 23.8972L24.5194 23.1L22.1667 20.9027V17.4027H20.9611V21.2873L23.7222 23.8972ZM15.5945 25.6666H6.61108C6.07636 25.6666 5.61861 25.4762 5.23783 25.0955C4.85705 24.7147 4.66666 24.2569 4.66666 23.7222V11.3944C4.66666 10.8597 4.85705 10.4019 5.23783 10.0211C5.61861 9.64035 6.07636 9.44996 6.61108 9.44996H8.36111V6.86384C8.36111 5.28761 8.9111 3.94402 10.0111 2.83306C11.1111 1.7221 12.4414 1.16663 14.0021 1.16663C15.5627 1.16663 16.8923 1.7221 17.991 2.83306C19.0896 3.94402 19.6389 5.28761 19.6389 6.86384V9.44996H21.3889C21.9236 9.44996 22.3814 9.64035 22.7622 10.0211C23.1429 10.4019 23.3333 10.8597 23.3333 11.3944V13.5916C23.0092 13.5009 22.6852 13.4393 22.3611 13.4069C22.037 13.3745 21.713 13.3648 21.3889 13.3777C19.3083 13.4296 17.5567 14.196 16.1341 15.677C14.7114 17.1581 14 18.9389 14 21.0194C14 21.8685 14.141 22.6868 14.4229 23.4743C14.7049 24.2618 15.0954 24.9925 15.5945 25.6666Z" fill="#78868F"/>
</g>
</svg>
