<svg width="24" height="24" viewBox="0 0 24 24" fill="none" xmlns="http://www.w3.org/2000/svg">
<mask id="mask0_456_13153" style="mask-type:alpha" maskUnits="userSpaceOnUse" x="0" y="0" width="24" height="24">
<rect width="24" height="24" fill="#D9D9D9"/>
</mask>
<g mask="url(#mask0_456_13153)">
<path d="M8.83333 8.1H15.1667V5.88333C15.1667 4.97221 14.8611 4.20832 14.25 3.59165C13.6389 2.97498 12.8889 2.66665 12 2.66665C11.1111 2.66665 10.3611 2.97498 9.75 3.59165C9.13888 4.20832 8.83333 4.97221 8.83333 5.88333V8.1ZM13.3667 22H5.66665C5.22777 22 4.84028 21.8319 4.50418 21.4958C4.16806 21.1597 4 20.7722 4 20.3333V9.76665C4 9.32777 4.16806 8.94027 4.50418 8.60417C4.84028 8.26806 5.22777 8.1 5.66665 8.1H7.16668V5.88333C7.16668 4.52223 7.63473 3.36806 8.57083 2.42082C9.50694 1.47361 10.65 1 12 1C13.35 1 14.4931 1.47361 15.4292 2.42082C16.3653 3.36806 16.8333 4.52223 16.8333 5.88333V8.1H18.3334C18.7722 8.1 19.1597 8.26806 19.4958 8.60417C19.8319 8.94027 20 9.32777 20 9.76665V11.65C19.7556 11.5833 19.5014 11.5361 19.2375 11.5083C18.9736 11.4806 18.6722 11.4667 18.3334 11.4667V9.76665H5.66665V20.3333H12.45C12.5723 20.6556 12.7 20.9403 12.8334 21.1875C12.9667 21.4347 13.1445 21.7055 13.3667 22ZM18.55 22.9C17.2111 22.9 16.0625 22.4208 15.1042 21.4625C14.1458 20.5042 13.6667 19.3556 13.6667 18.0167C13.6667 16.6778 14.1458 15.5292 15.1042 14.5708C16.0625 13.6125 17.2111 13.1333 18.55 13.1333C19.8889 13.1333 21.0375 13.6125 21.9959 14.5708C22.9542 15.5292 23.4334 16.6778 23.4334 18.0167C23.4334 19.3556 22.9542 20.5042 21.9959 21.4625C21.0375 22.4208 19.8889 22.9 18.55 22.9ZM20.3334 20.4833L21.0167 19.8L19 17.9167V14.9167H17.9667V18.2463L20.3334 20.4833Z" fill="#889299"/>
</g>
</svg>
