<svg width="20" height="20" viewBox="0 0 20 20" fill="none" xmlns="http://www.w3.org/2000/svg">
<g id="mail-icon">
<path id="Subtract" fill-rule="evenodd" clip-rule="evenodd" d="M1 2C0.447715 2 0 2.44772 0 3V17C0 17.5523 0.447715 18 1 18H19C19.5523 18 20 17.5523 20 17V3C20 2.44772 19.5523 2 19 2H1ZM3.65079 5.24074C3.23147 4.88132 2.60017 4.92988 2.24074 5.34921C1.88132 5.76853 1.92988 6.39983 2.34921 6.75926L9.34921 12.7593C9.7237 13.0802 10.2763 13.0802 10.6508 12.7593L17.6508 6.75926C18.0701 6.39983 18.1187 5.76853 17.7593 5.34921C17.3998 4.92988 16.7685 4.88132 16.3492 5.24074L10 10.6829L3.65079 5.24074Z" fill="#D9D9D9"/>
</g>
</svg>
