<svg width="764" height="536" viewBox="0 0 764 536" fill="none" xmlns="http://www.w3.org/2000/svg">
<path fill-rule="evenodd" clip-rule="evenodd" d="M345 148C340.582 148 337 151.582 337 156V192H381V156C381 151.582 377.418 148 373 148H345ZM381 194H337V238H381V194ZM337 240H381V284H337V240ZM381 286H337C337 310.301 356.699 330 381 330V286ZM383 194H419C423.418 194 427 197.582 427 202V230C427 234.418 423.418 238 419 238H383V194ZM419 286H383V330H419C423.418 330 427 326.418 427 322V294C427 289.582 423.418 286 419 286Z" fill="url(#paint0_linear_454_12935)"/>
<mask id="mask0_454_12935" style="mask-type:alpha" maskUnits="userSpaceOnUse" x="252" y="374" width="36" height="36">
<rect x="252" y="374" width="36" height="36" fill="url(#paint1_linear_454_12935)"/>
</mask>
<g mask="url(#mask0_454_12935)">
<path d="M264.973 407.206V405.344L267.973 403.103V393.969L254.848 397.831V395.351L267.973 387.626V378.875C267.973 378.308 268.169 377.829 268.561 377.436C268.953 377.044 269.433 376.848 270 376.848C270.567 376.848 271.046 377.044 271.439 377.436C271.831 377.829 272.027 378.308 272.027 378.875V387.626L285.152 395.351V397.831L272.027 393.969V403.103L275.027 405.344V407.206L270 405.783L264.973 407.206Z" fill="url(#paint2_linear_454_12935)"/>
</g>
<mask id="mask1_454_12935" style="mask-type:alpha" maskUnits="userSpaceOnUse" x="308" y="374" width="36" height="36">
<rect x="308" y="374" width="36" height="36" fill="url(#paint3_linear_454_12935)"/>
</mask>
<g mask="url(#mask1_454_12935)">
<path d="M313.776 397.151V383C313.776 381.91 314.025 380.969 314.524 380.176C315.023 379.383 315.78 378.737 316.794 378.238C317.808 377.738 319.084 377.368 320.62 377.128C322.157 376.887 323.95 376.767 326 376.767C328.15 376.767 329.993 376.881 331.53 377.109C333.066 377.337 334.33 377.701 335.323 378.2C336.315 378.699 337.048 379.341 337.522 380.125C337.996 380.909 338.233 381.868 338.233 383V397.151C338.233 398.707 337.701 400.029 336.638 401.118C335.575 402.207 334.273 402.763 332.732 402.787L335.099 405.163V405.913H332.276L329.169 402.805H322.831L319.724 405.913H316.901V405.163L319.268 402.787C317.727 402.763 316.427 402.207 315.366 401.118C314.306 400.029 313.776 398.707 313.776 397.151ZM326 379.331C323 379.331 320.837 379.524 319.512 379.912C318.187 380.299 317.237 380.856 316.662 381.581H335.369C334.919 380.906 333.976 380.362 332.541 379.949C331.105 379.537 328.925 379.331 326 379.331ZM316.331 389.643H325.025V383.831H316.331V389.643ZM327.275 389.643H335.669V383.831H327.275V389.643ZM320.607 398.223C321.176 398.223 321.662 398.023 322.065 397.623C322.468 397.223 322.67 396.736 322.67 396.161C322.67 395.592 322.468 395.106 322.065 394.703C321.662 394.3 321.175 394.098 320.603 394.098C320.031 394.098 319.545 394.3 319.145 394.703C318.745 395.106 318.545 395.593 318.545 396.165C318.545 396.737 318.745 397.223 319.145 397.623C319.545 398.023 320.032 398.223 320.607 398.223ZM331.402 398.223C331.971 398.223 332.457 398.023 332.86 397.623C333.263 397.223 333.464 396.736 333.464 396.161C333.464 395.592 333.263 395.106 332.86 394.703C332.457 394.3 331.969 394.098 331.397 394.098C330.825 394.098 330.339 394.3 329.939 394.703C329.539 395.106 329.339 395.593 329.339 396.165C329.339 396.737 329.539 397.223 329.939 397.623C330.339 398.023 330.827 398.223 331.402 398.223ZM319.438 400.438H332.562C333.437 400.438 334.174 400.116 334.772 399.472C335.37 398.828 335.669 398.055 335.669 397.151V391.893H316.331V397.151C316.331 398.055 316.63 398.828 317.228 399.472C317.826 400.116 318.563 400.438 319.438 400.438Z" fill="url(#paint4_linear_454_12935)"/>
</g>
<mask id="mask2_454_12935" style="mask-type:alpha" maskUnits="userSpaceOnUse" x="364" y="374" width="36" height="36">
<rect x="364" y="374" width="36" height="36" fill="url(#paint5_linear_454_12935)"/>
</mask>
<g mask="url(#mask2_454_12935)">
<path d="M373.337 405.868C372.953 405.868 372.613 405.752 372.318 405.519C372.023 405.287 371.876 404.991 371.876 404.631V401.562C371.145 401.149 370.612 400.558 370.278 399.79C369.943 399.023 369.776 398.211 369.776 397.356V382.388C369.776 380.461 370.75 379.053 372.698 378.164C374.647 377.274 377.761 376.83 382.04 376.83C386.273 376.83 389.363 377.273 391.311 378.159C393.259 379.044 394.233 380.454 394.233 382.388V397.356C394.233 398.211 394.064 399.022 393.727 399.789C393.389 400.557 392.858 401.147 392.133 401.562V404.631C392.133 404.991 391.984 405.287 391.685 405.519C391.386 405.752 391.045 405.868 390.662 405.868H390.156C389.746 405.868 389.394 405.752 389.099 405.522C388.804 405.291 388.657 405.003 388.657 404.658V402.793H375.343V404.658C375.343 405.003 375.195 405.291 374.901 405.522C374.606 405.752 374.253 405.868 373.844 405.868H373.337ZM372.331 390.231H391.669V383.743H372.331V390.231ZM376.27 398.399C376.839 398.399 377.325 398.199 377.728 397.799C378.131 397.399 378.332 396.911 378.332 396.336C378.332 395.767 378.131 395.281 377.728 394.878C377.325 394.475 376.837 394.274 376.265 394.274C375.693 394.274 375.207 394.475 374.807 394.878C374.407 395.281 374.207 395.769 374.207 396.341C374.207 396.913 374.407 397.399 374.807 397.799C375.207 398.199 375.695 398.399 376.27 398.399ZM387.739 398.399C388.308 398.399 388.794 398.199 389.197 397.799C389.6 397.399 389.802 396.911 389.802 396.336C389.802 395.767 389.6 395.281 389.197 394.878C388.794 394.475 388.307 394.274 387.735 394.274C387.163 394.274 386.677 394.475 386.277 394.878C385.877 395.281 385.677 395.769 385.677 396.341C385.677 396.913 385.877 397.399 386.277 397.799C386.677 398.199 387.164 398.399 387.739 398.399ZM372.25 381.493H391.75C391.15 380.837 390 380.324 388.3 379.952C386.6 379.579 384.512 379.393 382.037 379.393C379.087 379.393 376.825 379.562 375.25 379.9C373.675 380.237 372.675 380.768 372.25 381.493ZM375.406 400.238H388.594C389.469 400.238 390.2 399.899 390.788 399.221C391.375 398.543 391.669 397.769 391.669 396.9V392.481H372.331V396.9C372.331 397.769 372.624 398.543 373.212 399.221C373.799 399.899 374.531 400.238 375.406 400.238Z" fill="url(#paint6_linear_454_12935)"/>
</g>
<mask id="mask3_454_12935" style="mask-type:alpha" maskUnits="userSpaceOnUse" x="420" y="374" width="36" height="36">
<rect x="420" y="374" width="36" height="36" fill="url(#paint7_linear_454_12935)"/>
</mask>
<g mask="url(#mask3_454_12935)">
<path d="M429.801 405.751C429.094 405.751 428.492 405.502 427.995 405.005C427.498 404.508 427.249 403.905 427.249 403.196V385.526C427.249 384.757 427.52 384.1 428.063 383.556C428.605 383.012 429.26 382.74 430.026 382.74H433.294V377.973C433.294 377.554 433.481 377.235 433.855 377.015C434.229 376.796 434.644 376.686 435.099 376.686H440.901C441.356 376.686 441.771 376.796 442.145 377.015C442.519 377.235 442.706 377.554 442.706 377.973V382.74H446.196C446.907 382.74 447.513 382.989 448.012 383.489C448.511 383.988 448.76 384.593 448.76 385.304V403.196C448.76 403.905 448.511 404.508 448.012 405.005C447.513 405.502 446.907 405.751 446.196 405.751C446.196 406.217 446.038 406.611 445.72 406.931C445.403 407.252 445.011 407.413 444.544 407.413C444.077 407.413 443.685 407.252 443.367 406.931C443.05 406.611 442.891 406.217 442.891 405.751H433.118C433.118 406.218 432.957 406.612 432.636 406.932C432.315 407.252 431.922 407.413 431.455 407.413C430.989 407.413 430.597 407.252 430.279 406.931C429.96 406.611 429.801 406.217 429.801 405.751ZM435.099 382.74H440.901V378.5H435.099V382.74ZM429.804 403.196H446.196V385.304H429.804V403.196ZM432.321 401.054H434.027V387.446H432.321V401.054ZM437.151 401.054H438.849V387.446H437.151V401.054ZM441.973 401.054H443.679V387.446H441.973V401.054Z" fill="url(#paint8_linear_454_12935)"/>
</g>
<mask id="mask4_454_12935" style="mask-type:alpha" maskUnits="userSpaceOnUse" x="476" y="374" width="36" height="36">
<rect x="476" y="374" width="36" height="36" fill="url(#paint9_linear_454_12935)"/>
</mask>
<g mask="url(#mask4_454_12935)">
<path d="M493.981 400.025C495.794 400.025 497.313 399.413 498.538 398.188C499.763 396.963 500.375 395.444 500.375 393.631C500.375 391.819 499.763 390.306 498.538 389.094C497.313 387.881 495.794 387.275 493.981 387.275C492.169 387.275 490.656 387.881 489.444 389.094C488.231 390.306 487.625 391.819 487.625 393.631C487.625 395.444 488.231 396.963 489.444 398.188C490.656 399.413 492.169 400.025 493.981 400.025ZM493.981 397.775C492.794 397.775 491.813 397.381 491.038 396.594C490.263 395.806 489.875 394.819 489.875 393.631C489.875 392.444 490.263 391.463 491.038 390.688C491.813 389.913 492.794 389.525 493.981 389.525C495.169 389.525 496.156 389.913 496.944 390.688C497.731 391.463 498.125 392.444 498.125 393.631C498.125 394.819 497.731 395.806 496.944 396.594C496.156 397.381 495.169 397.775 493.981 397.775ZM481.331 405.724C480.641 405.724 480.042 405.471 479.536 404.964C479.029 404.458 478.776 403.859 478.776 403.169V384.093C478.776 383.426 479.029 382.832 479.536 382.311C480.042 381.79 480.641 381.529 481.331 381.529H486.709L489.545 378.168H498.464L501.291 381.529H506.669C507.337 381.529 507.931 381.79 508.452 382.311C508.973 382.832 509.233 383.426 509.233 384.093V403.169C509.233 403.859 508.973 404.458 508.452 404.964C507.931 405.471 507.337 405.724 506.669 405.724H481.331ZM506.669 403.169V384.093H500.107L497.28 380.732H490.729L487.893 384.093H481.331V403.169H506.669Z" fill="url(#paint10_linear_454_12935)"/>
</g>
<defs>
<linearGradient id="paint0_linear_454_12935" x1="404" y1="138" x2="367" y2="279" gradientUnits="userSpaceOnUse">
<stop stop-color="#616161"/>
<stop offset="1" stop-color="#111111"/>
</linearGradient>
<linearGradient id="paint1_linear_454_12935" x1="270" y1="374" x2="270" y2="402.588" gradientUnits="userSpaceOnUse">
<stop stop-color="#414141"/>
<stop offset="1" stop-color="#111111"/>
</linearGradient>
<linearGradient id="paint2_linear_454_12935" x1="270" y1="376.848" x2="270" y2="400.956" gradientUnits="userSpaceOnUse">
<stop stop-color="#333333"/>
<stop offset="1" stop-color="#111111"/>
</linearGradient>
<linearGradient id="paint3_linear_454_12935" x1="326" y1="374" x2="326" y2="402.588" gradientUnits="userSpaceOnUse">
<stop stop-color="#414141"/>
<stop offset="1" stop-color="#111111"/>
</linearGradient>
<linearGradient id="paint4_linear_454_12935" x1="326.004" y1="376.767" x2="326.004" y2="399.912" gradientUnits="userSpaceOnUse">
<stop stop-color="#333333"/>
<stop offset="1" stop-color="#111111"/>
</linearGradient>
<linearGradient id="paint5_linear_454_12935" x1="382" y1="374" x2="382" y2="402.588" gradientUnits="userSpaceOnUse">
<stop stop-color="#414141"/>
<stop offset="1" stop-color="#111111"/>
</linearGradient>
<linearGradient id="paint6_linear_454_12935" x1="382.004" y1="376.83" x2="382.004" y2="399.889" gradientUnits="userSpaceOnUse">
<stop stop-color="#333333"/>
<stop offset="1" stop-color="#111111"/>
</linearGradient>
<linearGradient id="paint7_linear_454_12935" x1="438" y1="374" x2="438" y2="402.588" gradientUnits="userSpaceOnUse">
<stop stop-color="#414141"/>
<stop offset="1" stop-color="#111111"/>
</linearGradient>
<linearGradient id="paint8_linear_454_12935" x1="438.004" y1="376.686" x2="438.004" y2="401.087" gradientUnits="userSpaceOnUse">
<stop stop-color="#333333"/>
<stop offset="1" stop-color="#111111"/>
</linearGradient>
<linearGradient id="paint9_linear_454_12935" x1="494" y1="374" x2="494" y2="402.588" gradientUnits="userSpaceOnUse">
<stop stop-color="#414141"/>
<stop offset="1" stop-color="#111111"/>
</linearGradient>
<linearGradient id="paint10_linear_454_12935" x1="494.005" y1="378.168" x2="494.005" y2="400.051" gradientUnits="userSpaceOnUse">
<stop stop-color="#333333"/>
<stop offset="1" stop-color="#111111"/>
</linearGradient>
</defs>
</svg>
