<svg width="40" height="40" viewBox="0 0 40 40" fill="none" xmlns="http://www.w3.org/2000/svg">
<mask id="mask0_73_142" style="mask-type:alpha" maskUnits="userSpaceOnUse" x="0" y="0" width="40" height="40">
<rect width="40" height="40" fill="#D9D9D9"/>
</mask>
<g mask="url(#mask0_73_142)">
<path d="M18.4649 32.9814V20.874L7.87736 14.7504V26.8578L18.4649 32.9814ZM21.5416 32.9814L32.1225 26.8578V14.7226L21.5416 20.8695V32.9814ZM19.9999 18.2408L30.4347 12.1752L19.9999 6.14075L9.54399 12.1752L19.9999 18.2408ZM6.29916 29.6091C5.79735 29.3158 5.40886 28.9278 5.1337 28.4451C4.85853 27.9624 4.72095 27.4388 4.72095 26.8742V13.126C4.72095 12.5614 4.85853 12.0378 5.1337 11.5551C5.40886 11.0724 5.79735 10.6844 6.29916 10.3911L18.4217 3.40588C18.9206 3.12488 19.4482 2.98438 20.0045 2.98438C20.5609 2.98438 21.0854 3.12488 21.5782 3.40588L33.7007 10.3911C34.2025 10.6844 34.5921 11.0724 34.8695 11.5551C35.1469 12.0378 35.2856 12.5614 35.2856 13.126V26.8742C35.2856 27.4388 35.1469 27.9624 34.8695 28.4451C34.5921 28.9278 34.2025 29.3158 33.7007 29.6091L21.5782 36.5877C21.0793 36.8731 20.5517 37.0158 19.9954 37.0158C19.439 37.0158 18.9145 36.8731 18.4217 36.5877L6.29916 29.6091Z" fill="#41C0FF"/>
</g>
</svg>
