<svg width="41" height="40" viewBox="0 0 41 40" fill="none" xmlns="http://www.w3.org/2000/svg">
<mask id="mask0_73_140" style="mask-type:alpha" maskUnits="userSpaceOnUse" x="0" y="0" width="41" height="40">
<rect x="0.333252" width="40" height="40" fill="#D9D9D9"/>
</mask>
<g mask="url(#mask0_73_140)">
<path d="M0.200439 30.1327V27.6498C0.200439 26.4951 0.801689 25.5575 2.00419 24.8369C3.20669 24.1163 4.78283 23.756 6.73261 23.756C7.036 23.756 7.32402 23.7612 7.59669 23.7718C7.86933 23.7824 8.14072 23.8078 8.41086 23.848C8.11758 24.3859 7.89777 24.9394 7.75144 25.5086C7.60511 26.0778 7.53194 26.6717 7.53194 27.2904V30.1327H0.200439ZM10.2004 30.1327V27.2916C10.2004 26.3828 10.4451 25.5509 10.9346 24.796C11.424 24.041 12.1209 23.3813 13.0253 22.817C13.9297 22.2525 15.0067 21.8281 16.2563 21.5437C17.5059 21.2593 18.8642 21.1171 20.3313 21.1171C21.8266 21.1171 23.1974 21.2593 24.4437 21.5437C25.69 21.8281 26.7664 22.2525 27.6729 22.817C28.5773 23.3813 29.269 24.041 29.7478 24.796C30.2267 25.5509 30.4661 26.3828 30.4661 27.2916V30.1327H10.2004ZM33.1322 30.1327V27.2887C33.1322 26.6509 33.0647 26.0492 32.9297 25.4837C32.7948 24.9183 32.5875 24.3738 32.3079 23.8501C32.5781 23.8085 32.848 23.7824 33.1177 23.7718C33.3874 23.7612 33.663 23.756 33.9444 23.756C35.9045 23.756 37.4814 24.1108 38.6753 24.8205C39.8692 25.5303 40.4661 26.4743 40.4661 27.6527V30.1327H33.1322ZM13.4229 27.1325H27.2575V26.9658C27.1051 26.1331 26.38 25.4485 25.0822 24.912C23.7844 24.3756 22.202 24.1074 20.3349 24.1074C18.4679 24.1074 16.8849 24.3767 15.586 24.9154C14.2871 25.454 13.5661 26.1467 13.4229 26.9936V27.1325ZM6.71181 22.4003C5.85398 22.4003 5.1187 22.0929 4.50598 21.4781C3.89326 20.8633 3.5869 20.1242 3.5869 19.2608C3.5869 18.3852 3.89384 17.6434 4.50773 17.0353C5.12162 16.4272 5.85961 16.1231 6.72169 16.1231C7.596 16.1231 8.3383 16.4271 8.94861 17.035C9.55891 17.6429 9.86407 18.3881 9.86407 19.2707C9.86407 20.1272 9.55965 20.863 8.95082 21.4779C8.34201 22.0928 7.59568 22.4003 6.71181 22.4003ZM33.9341 22.4003C33.0762 22.4003 32.3409 22.0929 31.7282 21.4781C31.1155 20.8633 30.8091 20.1242 30.8091 19.2608C30.8091 18.3852 31.1161 17.6434 31.73 17.0353C32.3439 16.4272 33.0819 16.1231 33.9439 16.1231C34.8182 16.1231 35.5606 16.4271 36.1709 17.035C36.7812 17.6429 37.0863 18.3881 37.0863 19.2707C37.0863 20.1272 36.7819 20.863 36.1731 21.4779C35.5643 22.0928 34.8179 22.4003 33.9341 22.4003ZM20.3365 19.877C18.9098 19.877 17.6971 19.3777 16.6984 18.379C15.6998 17.3803 15.2004 16.1676 15.2004 14.7409C15.2004 13.291 15.6998 12.0736 16.6984 11.0887C17.6971 10.1038 18.9098 9.61133 20.3365 9.61133C21.7864 9.61133 23.0039 10.1038 23.9888 11.0887C24.9737 12.0736 25.4661 13.291 25.4661 14.7409C25.4661 16.1676 24.9737 17.3803 23.9888 18.379C23.0039 19.3777 21.7864 19.877 20.3365 19.877ZM20.348 16.88C20.9505 16.88 21.4558 16.6731 21.8638 16.2592C22.2718 15.8454 22.4758 15.3352 22.4758 14.7287C22.4758 14.1223 22.27 13.6161 21.8584 13.2103C21.4468 12.8045 20.9417 12.6017 20.343 12.6017C19.7405 12.6017 19.2323 12.8059 18.8183 13.2145C18.4044 13.623 18.1974 14.1292 18.1974 14.7332C18.1974 15.3321 18.403 15.8396 18.8142 16.2558C19.2254 16.672 19.7366 16.88 20.348 16.88Z" fill="#41C0FF"/>
</g>
</svg>
