<svg width="41" height="40" viewBox="0 0 41 40" fill="none" xmlns="http://www.w3.org/2000/svg">
<mask id="mask0_73_143" style="mask-type:alpha" maskUnits="userSpaceOnUse" x="0" y="0" width="41" height="40">
<rect x="0.333252" width="40" height="40" fill="#D9D9D9"/>
</mask>
<g mask="url(#mask0_73_143)">
<path d="M12.0709 30.4318C11.59 30.4318 11.1558 30.2314 10.7684 29.8306C10.3809 29.4298 10.1872 28.993 10.1872 28.5203V24.4909H31.534V9.82399H35.6189C36.0917 9.82399 36.5192 10.0244 36.9014 10.4252C37.2837 10.826 37.4749 11.2721 37.4749 11.7633V37.1471L30.7596 30.4318H12.0709ZM3.19165 28.5094V4.73674C3.19165 4.26399 3.3828 3.82721 3.76511 3.4264C4.14739 3.0256 4.57711 2.8252 5.05428 2.8252H26.8725C27.3638 2.8252 27.8006 3.02097 28.1829 3.41253C28.5651 3.80408 28.7563 4.24549 28.7563 4.73674V19.8017C28.7563 20.2788 28.5651 20.7167 28.1829 21.1153C27.8006 21.5139 27.3638 21.7132 26.8725 21.7132H9.99119L3.19165 28.5094ZM25.5999 18.5568V5.98824H6.35469V18.5568H25.5999Z" fill="#41C0FF"/>
</g>
</svg>
