<svg width="41" height="40" viewBox="0 0 41 40" fill="none" xmlns="http://www.w3.org/2000/svg">
<mask id="mask0_73_134" style="mask-type:alpha" maskUnits="userSpaceOnUse" x="0" y="0" width="41" height="40">
<rect x="0.333252" width="40" height="40" fill="#D9D9D9"/>
</mask>
<g mask="url(#mask0_73_134)">
<path d="M20.3329 37.1749C19.3735 37.1749 18.557 36.8303 17.8832 36.141C17.2094 35.4517 16.8724 34.6095 16.8724 33.6145H23.7939C23.7939 34.6095 23.4569 35.4517 22.7829 36.141C22.1088 36.8303 21.2922 37.1749 20.3329 37.1749ZM13.5346 31.2703V28.363H27.1318V31.2703H13.5346ZM13.8124 26.0466C11.9048 24.8397 10.3848 23.2962 9.25257 21.4162C8.12032 19.5362 7.5542 17.4403 7.5542 15.1287C7.5542 11.6384 8.81027 8.63657 11.3224 6.12315C13.8345 3.60974 16.8373 2.35303 20.3309 2.35303C23.8244 2.35303 26.8291 3.60974 29.345 6.12315C31.8609 8.63657 33.1188 11.6384 33.1188 15.1287C33.1188 17.4407 32.5573 19.5366 31.4344 21.4164C30.3114 23.2963 28.7846 24.8397 26.854 26.0466H13.8124ZM14.8784 22.8902H25.8178C27.1077 22.0112 28.1198 20.8927 28.8542 19.5347C29.5886 18.1767 29.9558 16.7088 29.9558 15.1309C29.9558 12.4708 29.0167 10.2033 27.1384 8.32845C25.2602 6.45353 22.9918 5.51607 20.3332 5.51607C17.6746 5.51607 15.4062 6.45353 13.5279 8.32845C11.6497 10.2033 10.7106 12.4708 10.7106 15.1309C10.7106 16.7088 11.0789 18.1764 11.8154 19.5339C12.5519 20.8914 13.5729 22.0102 14.8784 22.8902Z" fill="#41C0FF"/>
</g>
</svg>
