<svg width="40" height="40" viewBox="0 0 40 40" fill="none" xmlns="http://www.w3.org/2000/svg">
<mask id="mask0_73_139" style="mask-type:alpha" maskUnits="userSpaceOnUse" x="0" y="0" width="40" height="40">
<rect width="40" height="40" fill="#D9D9D9"/>
</mask>
<g mask="url(#mask0_73_139)">
<path d="M11.6946 14.028L14.889 10.8336L11.6946 7.6391L8.50011 10.8336L11.6946 14.028ZM6.21086 23.576C5.34992 23.576 4.60861 23.2645 3.98694 22.6416C3.36528 22.0186 3.05444 21.2757 3.05444 20.413V4.5011C3.05444 3.64018 3.36528 2.89889 3.98694 2.27723C4.60861 1.65556 5.34992 1.34473 6.21086 1.34473H33.7894C34.6521 1.34473 35.395 1.65556 36.0179 2.27723C36.6409 2.89889 36.9524 3.64018 36.9524 4.5011V20.413C36.9524 21.2757 36.6409 22.0186 36.0179 22.6416C35.395 23.2645 34.6521 23.576 33.7894 23.576H27.9684C28.1697 23.0807 28.3109 22.5666 28.3919 22.0339C28.4729 21.5012 28.4997 20.9609 28.4723 20.413H33.7894V4.5011H6.21086V20.413H11.5345C11.5027 20.9609 11.5273 21.5012 11.6084 22.0339C11.6894 22.5666 11.8305 23.0807 12.0318 23.576H6.21086ZM27.5017 11.4848C28.1581 11.4848 28.7154 11.2551 29.1737 10.7957C29.6321 10.3363 29.8612 9.77839 29.8612 9.12206C29.8612 8.4702 29.6315 7.91399 29.1721 7.45344C28.7127 6.99288 28.1548 6.7626 27.4985 6.7626C26.8422 6.7626 26.2848 6.99342 25.8265 7.45506C25.3682 7.9167 25.139 8.47346 25.139 9.12535C25.139 9.78166 25.3687 10.339 25.8282 10.7973C26.2876 11.2556 26.8454 11.4848 27.5017 11.4848ZM8.18732 38.6657V35.0145C8.18732 34.0102 8.46505 33.0803 9.02053 32.2249C9.576 31.3694 10.3109 30.7267 11.2254 30.2967C12.597 29.6556 14.0231 29.1737 15.5037 28.8509C16.9844 28.5282 18.4832 28.3668 20.0001 28.3668C21.5171 28.3668 23.0158 28.5282 24.4965 28.8509C25.9771 29.1737 27.4032 29.6556 28.7749 30.2967C29.6897 30.7249 30.4259 31.3672 30.9834 32.2235C31.5408 33.0799 31.8196 34.0102 31.8196 35.0145V38.6657L8.18732 38.6657ZM11.3105 35.589H28.6897V34.9C28.6078 34.4846 28.4186 34.1013 28.1221 33.75C27.8256 33.3987 27.4535 33.128 27.0059 32.938C25.8959 32.4515 24.7549 32.0808 23.5827 31.8259C22.4104 31.5709 21.216 31.4434 19.9994 31.4434C18.7829 31.4434 17.5887 31.5709 16.4169 31.8259C15.2451 32.0808 14.1043 32.4515 12.9944 32.938C12.5467 33.128 12.1746 33.3987 11.8781 33.75C11.5816 34.1013 11.3924 34.4846 11.3105 34.9V35.589ZM20.0017 26.7001C18.3453 26.7001 16.9343 26.1166 15.7688 24.9497C14.6034 23.7828 14.0207 22.3709 14.0207 20.714C14.0207 19.063 14.6035 17.6537 15.7692 16.486C16.9348 15.3184 18.3453 14.7345 20.0004 14.7345C21.6556 14.7345 23.067 15.3184 24.2347 16.486C25.4024 17.6537 25.9862 19.0641 25.9862 20.7173C25.9862 22.3705 25.4029 23.7809 24.2363 24.9486C23.0697 26.1163 21.6582 26.7001 20.0017 26.7001ZM19.9936 23.6234C20.804 23.6234 21.4926 23.3422 22.0594 22.7798C22.6261 22.2174 22.9095 21.532 22.9095 20.7239C22.9095 19.9157 22.6283 19.2282 22.0659 18.6614C21.5035 18.0946 20.8171 17.8112 20.0067 17.8112C19.1962 17.8112 18.5087 18.0928 17.9442 18.6559C17.3796 19.2191 17.0973 19.903 17.0973 20.7075C17.0973 21.5179 17.3774 22.2065 17.9376 22.7733C18.4978 23.34 19.1832 23.6234 19.9936 23.6234Z" fill="#41C0FF"/>
</g>
</svg>
