<svg width="41" height="40" viewBox="0 0 41 40" fill="none" xmlns="http://www.w3.org/2000/svg">
<mask id="mask0_73_144" style="mask-type:alpha" maskUnits="userSpaceOnUse" x="0" y="0" width="41" height="40">
<rect x="0.666504" width="40" height="40" fill="#D9D9D9"/>
</mask>
<g mask="url(#mask0_73_144)">
<path d="M20.6665 37.8319C18.5088 35.8957 16.1174 34.4106 13.4921 33.3766C10.8668 32.3426 8.16528 31.8256 5.38745 31.8256V13.645C8.12981 13.645 10.8091 14.2005 13.4252 15.3115C16.0413 16.4226 18.4551 17.9928 20.6665 20.0222C22.8778 17.9928 25.2921 16.4226 27.9092 15.3115C30.5264 14.2005 33.2074 13.645 35.9521 13.645V31.8256C33.1667 31.8256 30.4621 32.3426 27.8384 33.3766C25.2147 34.4106 22.8241 35.8957 20.6665 37.8319ZM20.6665 33.8633C22.5225 32.4992 24.4695 31.4029 26.5073 30.5744C28.5452 29.7459 30.6391 29.2048 32.789 28.9512V17.1045C30.876 17.4043 28.9012 18.1254 26.8647 19.2679C24.8281 20.4104 22.7621 21.9825 20.6665 23.9841C18.47 21.9372 16.3842 20.3553 14.4092 19.2383C12.4341 18.1214 10.479 17.4101 8.54387 17.1045V28.9512C10.6717 29.196 12.755 29.7331 14.794 30.5627C16.833 31.3924 18.7905 32.4926 20.6665 33.8633ZM20.7527 14.8092C18.905 14.8092 17.3387 14.1671 16.054 12.8827C14.7693 11.5983 14.1269 10.0311 14.1269 8.18104C14.1269 6.33282 14.7683 4.76507 16.051 3.47779C17.3338 2.19051 18.899 1.54688 20.7468 1.54688C22.5946 1.54688 24.1609 2.19082 25.4456 3.47871C26.7303 4.76657 27.3727 6.33504 27.3727 8.18413C27.3727 10.0332 26.7313 11.5997 25.4486 12.8835C24.1658 14.1673 22.6005 14.8092 20.7527 14.8092ZM20.7572 11.7691C21.749 11.7691 22.5956 11.4185 23.297 10.7173C23.9984 10.0161 24.3491 9.17026 24.3491 8.17971C24.3491 7.18912 23.996 6.34271 23.2897 5.64046C22.5833 4.93818 21.7342 4.58704 20.7424 4.58704C19.7505 4.58704 18.9039 4.93939 18.2025 5.64408C17.5011 6.34878 17.1505 7.19592 17.1505 8.1855C17.1505 9.17689 17.5036 10.022 18.2099 10.7208C18.9162 11.4197 19.7653 11.7691 20.7572 11.7691Z" fill="#41C0FF"/>
</g>
</svg>
