<svg width="40" height="40" viewBox="0 0 40 40" fill="none" xmlns="http://www.w3.org/2000/svg">
<mask id="mask0_73_136" style="mask-type:alpha" maskUnits="userSpaceOnUse" x="0" y="0" width="40" height="40">
<rect width="40" height="40" fill="#D9D9D9"/>
</mask>
<g mask="url(#mask0_73_136)">
<path d="M12.1759 33.6122H6.21086C5.33603 33.6122 4.59125 33.3048 3.97653 32.6901C3.3618 32.0753 3.05444 31.3306 3.05444 30.4557V9.5439C3.05444 8.66723 3.3618 7.9209 3.97653 7.3049C4.59125 6.68887 5.33603 6.38086 6.21086 6.38086H33.6191V9.5439H6.21086V30.4557H12.1759V33.6122ZM18.5576 29.7453C19.3154 29.7453 19.9579 29.4817 20.4852 28.9545C21.0125 28.4274 21.2761 27.7872 21.2761 27.0341C21.2761 26.281 21.0126 25.6408 20.4856 25.1135C19.9585 24.5862 19.3185 24.3226 18.5657 24.3226C17.8076 24.3226 17.1644 24.5861 16.636 25.1131C16.1076 25.6402 15.8434 26.2801 15.8434 27.033C15.8434 27.7859 16.1063 28.4262 16.6321 28.9538C17.1579 29.4815 17.7998 29.7453 18.5576 29.7453ZM15.5092 33.6122V30.7175C14.98 30.2757 14.5588 29.7377 14.2457 29.1036C13.9327 28.4694 13.7761 27.7795 13.7761 27.0339C13.7761 26.294 13.9327 25.6067 14.2457 24.9719C14.5588 24.3372 14.98 23.7947 15.5092 23.3444V20.4557H21.6203V23.357C22.1452 23.7976 22.5637 24.3356 22.8756 24.971C23.1875 25.6063 23.3434 26.2951 23.3434 27.0373C23.3434 27.7794 23.1875 28.4682 22.8756 29.1035C22.5637 29.7389 22.1452 30.2811 21.6203 30.7302V33.6122H15.5092ZM35.3676 33.6122H26.5318C26.0874 33.6122 25.7132 33.4602 25.4094 33.1564C25.1055 32.8525 24.9536 32.4784 24.9536 32.0339V16.5116C24.9536 16.0671 25.1055 15.693 25.4094 15.3892C25.7132 15.0853 26.0874 14.9334 26.5318 14.9334H35.3676C35.8115 14.9334 36.1866 15.0853 36.4929 15.3892C36.7992 15.693 36.9524 16.0671 36.9524 16.5116V32.0339C36.9524 32.4784 36.7992 32.8525 36.4929 33.1564C36.1866 33.4602 35.8115 33.6122 35.3676 33.6122ZM27.8543 30.7115H34.0451V17.834H27.8543V30.7115Z" fill="#41C0FF"/>
</g>
</svg>
