<svg width="40" height="40" viewBox="0 0 40 40" fill="none" xmlns="http://www.w3.org/2000/svg">
<mask id="mask0_73_133" style="mask-type:alpha" maskUnits="userSpaceOnUse" x="0" y="0" width="40" height="40">
<rect width="40" height="40" fill="#D9D9D9"/>
</mask>
<g mask="url(#mask0_73_133)">
<path d="M32.9866 35.2842L22.1179 24.4222C21.2912 25.1034 20.329 25.6377 19.2313 26.0249C18.1335 26.4121 16.9601 26.6058 15.7112 26.6058C12.6481 26.6058 10.0544 25.543 7.93031 23.4174C5.8062 21.2918 4.74414 18.7174 4.74414 15.6943C4.74414 12.6711 5.80695 10.0967 7.93256 7.97113C10.0582 5.84552 12.6372 4.78271 15.6696 4.78271C18.702 4.78271 21.2764 5.84552 23.3927 7.97113C25.509 10.0967 26.5672 12.6725 26.5672 15.6984C26.5672 16.9126 26.3783 18.0657 26.0005 19.1575C25.6227 20.2494 25.0745 21.2539 24.3559 22.171L35.2556 33.0186L32.9866 35.2842ZM15.6858 23.4494C17.8368 23.4494 19.6621 22.6933 21.1616 21.1811C22.6611 19.6689 23.4108 17.84 23.4108 15.6943C23.4108 13.5485 22.6607 11.7195 21.1606 10.2074C19.6605 8.69519 17.8355 7.93909 15.6858 7.93909C13.5207 7.93909 11.6818 8.69519 10.1693 10.2074C8.65681 11.7195 7.90056 13.5485 7.90056 15.6943C7.90056 17.84 8.65649 19.6689 10.1683 21.1811C11.6802 22.6933 13.5194 23.4494 15.6858 23.4494Z" fill="#41C0FF"/>
</g>
</svg>
