<svg width="41" height="40" viewBox="0 0 41 40" fill="none" xmlns="http://www.w3.org/2000/svg">
<mask id="mask0_73_135" style="mask-type:alpha" maskUnits="userSpaceOnUse" x="0" y="0" width="41" height="40">
<rect x="0.666504" width="40" height="40" fill="#D9D9D9"/>
</mask>
<g mask="url(#mask0_73_135)">
<path d="M18.7294 16.1112C19.5892 16.1112 20.3233 15.8057 20.9315 15.1947C21.5398 14.5837 21.844 13.8461 21.844 12.9819C21.844 12.1221 21.539 11.3897 20.9291 10.7847C20.3191 10.1798 19.5843 9.87727 18.7245 9.87727C17.8602 9.87727 17.1234 10.1806 16.5141 10.7872C15.9047 11.3938 15.6 12.127 15.6 12.9868C15.6 13.851 15.9055 14.5878 16.5165 15.1972C17.1275 15.8066 17.8652 16.1112 18.7294 16.1112ZM18.7359 22.9008C19.8854 22.9008 20.9811 22.6614 22.0229 22.1826C23.0647 21.7038 23.976 21.0105 24.7567 20.1028C23.8135 19.5084 22.8351 19.0649 21.8216 18.7724C20.8082 18.4798 19.7749 18.3335 18.722 18.3335C17.6691 18.3335 16.6358 18.4798 15.6224 18.7724C14.6089 19.0649 13.6305 19.5084 12.6873 20.1028C13.4943 21.006 14.4167 21.6981 15.4547 22.1792C16.4926 22.6603 17.5863 22.9008 18.7359 22.9008ZM35.475 35.3655L26.9829 26.8733C25.847 27.7556 24.5675 28.4567 23.1444 28.9767C21.7213 29.4968 20.2477 29.7568 18.7237 29.7568C15.0066 29.7568 11.8491 28.4578 9.25112 25.8599C6.65321 23.262 5.35425 20.105 5.35425 16.389C5.35425 12.673 6.65321 9.51499 9.25112 6.91486C11.8491 4.31472 15.006 3.01465 18.722 3.01465C22.438 3.01465 25.596 4.31472 28.1962 6.91486C30.7963 9.51499 32.0964 12.6736 32.0964 16.3908C32.0964 17.9059 31.8336 19.3772 31.308 20.8048C30.7825 22.2323 30.0808 23.5174 29.203 24.6599L37.6885 33.1454L35.475 35.3655ZM18.7406 26.6004C21.5642 26.6004 23.9689 25.6024 25.9547 23.6064C27.9405 21.6104 28.9334 19.1984 28.9334 16.3704C28.9334 13.5469 27.9412 11.1422 25.957 9.15636C23.9727 7.17055 21.5626 6.17765 18.7267 6.17765C15.908 6.17765 13.5006 7.16979 11.5046 9.15406C9.50862 11.1383 8.51062 13.5484 8.51062 16.3844C8.51062 19.2031 9.50862 21.6104 11.5046 23.6064C13.5006 25.6024 15.9126 26.6004 18.7406 26.6004Z" fill="#41C0FF"/>
</g>
</svg>
