<svg width="41" height="40" viewBox="0 0 41 40" fill="none" xmlns="http://www.w3.org/2000/svg">
<mask id="mask0_73_137" style="mask-type:alpha" maskUnits="userSpaceOnUse" x="0" y="0" width="41" height="40">
<rect x="0.333252" width="40" height="40" fill="#D9D9D9"/>
</mask>
<g mask="url(#mask0_73_137)">
<path d="M20.3334 36.9458C18.0182 36.9458 15.83 36.5006 13.7689 35.6101C11.7078 34.7196 9.9076 33.5046 8.36824 31.9653C6.82888 30.4259 5.61395 28.6257 4.72345 26.5647C3.83295 24.5037 3.3877 22.3156 3.3877 20.0004C3.3877 17.62 3.83988 15.3998 4.74424 13.3398C5.64857 11.2798 6.88443 9.48602 8.45182 7.95844C10.0192 6.43088 11.8513 5.23056 13.9482 4.35748C16.045 3.48439 18.2875 3.04785 20.6757 3.04785C22.9141 3.04785 25.0372 3.42763 27.045 4.18718C29.0528 4.94677 30.8152 5.99911 32.3321 7.34423C33.8491 8.68931 35.0539 10.2837 35.9466 12.1273C36.8393 13.9709 37.2857 15.9774 37.2857 18.1469C37.2857 21.2516 36.3744 23.7072 34.5518 25.5137C32.7293 27.3203 30.3555 28.2236 27.4306 28.2236H24.5088C24.1098 28.2236 23.7766 28.3719 23.5089 28.6686C23.2413 28.9653 23.1075 29.2955 23.1075 29.6593C23.1075 30.2571 23.2946 30.8029 23.6688 31.2967C24.043 31.7904 24.2301 32.3887 24.2301 33.0914C24.2301 34.3023 23.8767 35.2474 23.1698 35.9268C22.463 36.6061 21.5175 36.9458 20.3334 36.9458ZM10.9052 21.2779C11.5163 21.2779 12.0395 21.0603 12.4747 20.6251C12.9098 20.1899 13.1274 19.6668 13.1274 19.0557C13.1274 18.4446 12.9098 17.9214 12.4747 17.4863C12.0395 17.0511 11.5163 16.8335 10.9052 16.8335C10.2941 16.8335 9.77097 17.0511 9.33578 17.4863C8.90058 17.9214 8.68299 18.4446 8.68299 19.0557C8.68299 19.6668 8.90058 20.1899 9.33578 20.6251C9.77097 21.0603 10.2941 21.2779 10.9052 21.2779ZM16.0221 14.4099C16.6354 14.4099 17.1596 14.1923 17.5948 13.7571C18.03 13.3219 18.2476 12.7988 18.2476 12.1876C18.2476 11.5721 18.03 11.0478 17.5948 10.6149C17.1596 10.1819 16.6365 9.96543 16.0254 9.96543C15.4098 9.96543 14.8856 10.1819 14.4526 10.6149C14.0196 11.0478 13.8032 11.571 13.8032 12.1843C13.8032 12.7976 14.0196 13.3219 14.4526 13.7571C14.8856 14.1923 15.4087 14.4099 16.0221 14.4099ZM24.6447 14.4099C25.258 14.4099 25.7822 14.1923 26.2174 13.7571C26.6526 13.3219 26.8702 12.7988 26.8702 12.1876C26.8702 11.5721 26.6526 11.0478 26.2174 10.6149C25.7822 10.1819 25.2591 9.96543 24.648 9.96543C24.0325 9.96543 23.5082 10.1819 23.0752 10.6149C22.6423 11.0478 22.4258 11.571 22.4258 12.1843C22.4258 12.7976 22.6423 13.3219 23.0752 13.7571C23.5082 14.1923 24.0313 14.4099 24.6447 14.4099ZM29.8772 21.2779C30.4883 21.2779 31.0114 21.0603 31.4466 20.6251C31.8818 20.1899 32.0994 19.6668 32.0994 19.0557C32.0994 18.4446 31.8818 17.9214 31.4466 17.4863C31.0114 17.0511 30.4883 16.8335 29.8772 16.8335C29.2616 16.8335 28.7374 17.0511 28.3044 17.4863C27.8714 17.9214 27.6549 18.4446 27.6549 19.0557C27.6549 19.6668 27.8714 20.1899 28.3044 20.6251C28.7374 21.0603 29.2616 21.2779 29.8772 21.2779ZM20.2869 33.7894C20.5545 33.7894 20.7531 33.7279 20.8827 33.605C21.0123 33.4821 21.077 33.2963 21.077 33.0478C21.077 32.6569 20.8717 32.2724 20.4609 31.8942C20.0502 31.516 19.8448 30.7813 19.8448 29.6901C19.8448 28.4242 20.2673 27.3373 21.1123 26.4292C21.9573 25.5212 23.0119 25.0672 24.2762 25.0672H27.4306C29.4358 25.0672 31.0525 24.4791 32.2805 23.303C33.5086 22.1268 34.1226 20.4292 34.1226 18.21C34.1226 14.6452 32.7738 11.7541 30.0761 9.53681C27.3784 7.31953 24.2454 6.21089 20.677 6.21089C16.7464 6.21089 13.4083 7.54545 10.6626 10.2146C7.91694 12.8837 6.54411 16.1471 6.54411 20.0049C6.54411 23.82 7.8849 27.0712 10.5665 29.7585C13.2481 32.4458 16.4882 33.7894 20.2869 33.7894Z" fill="#41C0FF"/>
</g>
</svg>
