<svg width="107" height="36" viewBox="0 0 107 36" fill="none" xmlns="http://www.w3.org/2000/svg">
<path d="M27.2684 3.9487C27.2684 3.9487 25.5431 1.03303 21.9778 0.115917C21.5231 -0.000633426 21.0512 -0.0292933 20.5869 0.0299371C17.4305 0.442639 10.4737 2.63225 4.3348 12.9995C-2.28563 24.1788 -0.359689 34.6492 10.3133 36C13.825 35.4249 19.8035 31.8787 24.8706 25.4627L23.7566 24.3144C16.8993 31.6437 11.1463 33.6652 8.96242 32.0488C6.36201 30.1228 7.01163 20.7931 12.8124 13.202C15.9879 9.04825 19.3984 6.68285 22.337 6.34466C22.1689 12.39 15.3803 19.4155 7.44153 22.6923L6.90082 25.2927C14.939 22.1172 26.3227 17.9806 27.2684 3.94679V3.9487Z" fill="#7A6DDE"/>
<path d="M32 30.6654C30.5135 28.537 28.556 27.7937 26.225 27.3562C25.4435 30.0942 24.8413 31.6361 24.74 33.1684C24.7324 33.2773 24.7522 33.39 24.8 33.4875C25.4095 34.7428 26.7185 35.0237 27.5 35.0237C28.2127 35.0237 30.3798 33.5372 32 30.6674V30.6654Z" fill="#7A6DDE"/>
<path d="M46.0912 27.5V8.59091H58.8327V11.8871H50.0891V16.3928H58.1772V19.6889H50.0891V24.2038H58.8696V27.5H46.0912ZM66.1305 8.59091V27.5H62.1973V8.59091H66.1305ZM69.5413 27.5V13.3182H73.4745V27.5H69.5413ZM71.5171 11.4901C70.9324 11.4901 70.4307 11.2962 70.0122 10.9084C69.5998 10.5144 69.3936 10.0436 69.3936 9.49574C69.3936 8.95407 69.5998 8.48935 70.0122 8.10156C70.4307 7.70762 70.9324 7.51065 71.5171 7.51065C72.1019 7.51065 72.6005 7.70762 73.0129 8.10156C73.4314 8.48935 73.6407 8.95407 73.6407 9.49574C73.6407 10.0436 73.4314 10.5144 73.0129 10.9084C72.6005 11.2962 72.1019 11.4901 71.5171 11.4901ZM76.8114 27.5V25.1548L83.7546 16.5589V16.4574H77.0515V13.3182H88.4911V15.8757L81.9726 24.2592V24.3608H88.7311V27.5H76.8114ZM96.8184 27.7308C95.7412 27.7308 94.7656 27.4538 93.8915 26.8999C93.0236 26.3397 92.3342 25.518 91.8234 24.4347C91.3186 23.3452 91.0663 22.0095 91.0663 20.4276C91.0663 18.8026 91.3279 17.4515 91.8511 16.3743C92.3743 15.291 93.0698 14.4815 93.9377 13.946C94.8118 13.4044 95.7689 13.1335 96.8092 13.1335C97.6032 13.1335 98.2649 13.2689 98.7942 13.5398C99.3297 13.8045 99.7606 14.1368 100.087 14.5369C100.419 14.9309 100.672 15.3187 100.844 15.7003H100.964V13.3182H104.888V27.5H101.01V25.2287H100.844C100.659 25.6226 100.398 26.0135 100.059 26.4013C99.7268 26.7829 99.2928 27.0999 98.7573 27.3523C98.2279 27.6046 97.5816 27.7308 96.8184 27.7308ZM98.0648 24.6009C98.6988 24.6009 99.2343 24.4285 99.6714 24.0838C100.115 23.733 100.453 23.2436 100.687 22.6158C100.927 21.9879 101.047 21.2524 101.047 20.4091C101.047 19.5658 100.93 18.8333 100.696 18.2116C100.462 17.59 100.124 17.1098 99.6806 16.7713C99.2374 16.4328 98.6988 16.2635 98.0648 16.2635C97.4185 16.2635 96.8738 16.4389 96.4306 16.7898C95.9874 17.1406 95.652 17.6269 95.4242 18.2486C95.1965 18.8703 95.0826 19.5904 95.0826 20.4091C95.0826 21.2339 95.1965 21.9633 95.4242 22.5973C95.6581 23.2251 95.9936 23.7176 96.4306 24.0746C96.8738 24.4254 97.4185 24.6009 98.0648 24.6009Z" fill="#7A6DDE"/>
</svg>
