<svg width="185" height="28" viewBox="0 0 185 28" fill="none" xmlns="http://www.w3.org/2000/svg">
<path d="M13.1949 12.6H6.89961C3.4184 12.6 0.599609 9.78016 0.599609 6.30235C0.599609 2.81984 3.4184 0 6.89961 0C10.3761 0 13.1996 2.81984 13.1996 6.30235V12.6H13.1949Z" fill="#3F9FDF"/>
<path d="M15.1997 12.5953V6.3C15.1997 2.81879 18.0196 0 21.4974 0C24.9799 0 27.7997 2.81879 27.7997 6.3C27.7997 9.77651 24.9799 12.6 21.4974 12.6H15.1997V12.5953Z" fill="#3F9FDF"/>
<path d="M15.2044 14.6001H21.5021C24.9773 14.6001 27.7997 17.4199 27.7997 20.9024C27.795 24.3803 24.9773 27.2001 21.4974 27.2001C18.0221 27.2001 15.1997 24.3803 15.1997 20.8977V14.6001H15.2044Z" fill="#3F9FDF"/>
<path d="M13.1996 14.6048V20.9024C13.1996 24.3777 10.3798 27.2001 6.89726 27.2001C3.41945 27.1954 0.599609 24.3777 0.599609 20.8977C0.599609 17.4225 3.41945 14.6001 6.90196 14.6001H13.1996V14.6048Z" fill="#3F9FDF"/>
<path d="M53.8798 5.2521V22.1001H49.7758V15.1641H43.3918V22.1001H39.2878V5.2521H43.3918V11.8521H49.7758V5.2521H53.8798ZM67.5705 19.1241H61.2825L60.2745 22.1001H55.9785L62.0745 5.2521H66.8265L72.9225 22.1001H68.5785L67.5705 19.1241ZM66.5145 15.9561L64.4265 9.7881L62.3625 15.9561H66.5145ZM83.6098 22.1001L80.1058 15.7401H79.1218V22.1001H75.0178V5.2521H81.9058C83.2338 5.2521 84.3618 5.4841 85.2898 5.9481C86.2338 6.4121 86.9378 7.0521 87.4018 7.8681C87.8658 8.6681 88.0978 9.5641 88.0978 10.5561C88.0978 11.6761 87.7778 12.6761 87.1378 13.5561C86.5138 14.4361 85.5858 15.0601 84.3538 15.4281L88.2418 22.1001H83.6098ZM79.1218 12.8361H81.6658C82.4178 12.8361 82.9778 12.6521 83.3458 12.2841C83.7298 11.9161 83.9218 11.3961 83.9218 10.7241C83.9218 10.0841 83.7298 9.5801 83.3458 9.2121C82.9778 8.8441 82.4178 8.6601 81.6658 8.6601H79.1218V12.8361ZM109.994 5.2521V22.1001H105.89V11.9961L102.122 22.1001H98.8101L95.0181 11.9721V22.1001H90.9141V5.2521H95.7621L100.49 16.9161L105.17 5.2521H109.994ZM121.153 22.2681C119.569 22.2681 118.113 21.9001 116.785 21.1641C115.473 20.4281 114.425 19.4041 113.641 18.0921C112.873 16.7641 112.489 15.2761 112.489 13.6281C112.489 11.9801 112.873 10.5001 113.641 9.1881C114.425 7.8761 115.473 6.8521 116.785 6.1161C118.113 5.3801 119.569 5.0121 121.153 5.0121C122.737 5.0121 124.185 5.3801 125.497 6.1161C126.825 6.8521 127.865 7.8761 128.617 9.1881C129.385 10.5001 129.769 11.9801 129.769 13.6281C129.769 15.2761 129.385 16.7641 128.617 18.0921C127.849 19.4041 126.809 20.4281 125.497 21.1641C124.185 21.9001 122.737 22.2681 121.153 22.2681ZM121.153 18.5241C122.497 18.5241 123.569 18.0761 124.369 17.1801C125.185 16.2841 125.593 15.1001 125.593 13.6281C125.593 12.1401 125.185 10.9561 124.369 10.0761C123.569 9.1801 122.497 8.7321 121.153 8.7321C119.793 8.7321 118.705 9.1721 117.889 10.0521C117.089 10.9321 116.689 12.1241 116.689 13.6281C116.689 15.1161 117.089 16.3081 117.889 17.2041C118.705 18.0841 119.793 18.5241 121.153 18.5241ZM147.364 22.1001H143.26L136.396 11.7081V22.1001H132.292V5.2521H136.396L143.26 15.6921V5.2521H147.364V22.1001ZM154.683 5.2521V22.1001H150.579V5.2521H154.683ZM162.265 18.7401H169.513V22.1001H157.609V18.9801L164.809 8.6121H157.609V5.2521H169.513V8.3721L162.265 18.7401ZM176.538 8.5401V11.9481H182.034V15.1161H176.538V18.8121H182.754V22.1001H172.434V5.2521H182.754V8.5401H176.538Z" fill="#3F9FDF"/>
</svg>
