<svg width="134" height="28" viewBox="0 0 134 28" fill="none" xmlns="http://www.w3.org/2000/svg">
<path fill-rule="evenodd" clip-rule="evenodd" d="M121.103 4.09547C117.154 4.09547 113.428 5.82519 113.289 8.12625L133.669 17.6292V19.7412C133.669 20.3939 133.573 21.0167 133.39 21.6065C133.36 21.7038 133.328 21.8003 133.293 21.8958C133.292 21.8974 133.291 21.8983 133.288 21.8987C133.29 21.8998 133.291 21.9003 133.291 21.9001C131.921 25.6611 126.991 28 121.327 28C114.645 28 108.985 24.7455 108.985 19.741H113.349C113.349 22.1082 117.303 23.9045 121.327 23.9045C125.146 23.9045 128.899 22.2858 129.271 20.0973L108.918 10.6068V8.2588C108.918 7.75073 108.975 7.26072 109.084 6.79018C109.125 6.61252 109.174 6.43766 109.229 6.26573C109.23 6.26543 109.23 6.26521 109.23 6.265C110.482 2.40743 115.356 0 121.103 0C127.785 0 133.287 3.25448 133.287 8.25897H128.923C128.923 5.89183 125.127 4.09547 121.103 4.09547ZM67.9588 24.8851L57.6142 0.515069H53.0548L64.5026 27.4841L66.8409 27.4865L66.8399 27.4888L67.9907 27.4877L69.0741 27.4887L69.0731 27.4866L71.4152 27.4842L82.863 0.515137H78.3036L67.959 24.8852L67.9589 24.8854L67.9588 24.8851ZM4.279 16.2181V0.515692H0.0820312V27.4848H4.279V20.5968V20.5968L20.9496 12.8232L20.9498 12.8231V12.8231V27.4848H25.1468V0.515692H20.9498V8.44436L20.9496 8.44447L4.279 16.2181ZM43.1601 0.558652L46.0513 0.557135L46.0992 0.616495L57.5042 27.4843H52.9447L48.9039 17.9648L33.183 25.2995L32.2555 27.4845H27.6962L39.104 0.610055L39.1093 0.550274L43.1601 0.558652ZM47.3378 14.313L35.4907 19.8389L42.5862 3.04814L47.3248 14.2826L47.3378 14.313ZM92.2358 0.552667L92.2376 0.555222L89.8637 0.550274L89.8176 0.624335L78.4161 27.4845H82.9753L83.9029 25.2994L99.6235 17.9648L99.6236 17.9647L103.665 27.4845H108.224L96.8162 0.609928L96.7745 0.557288L92.2358 0.552667ZM86.2105 19.8388L98.0575 14.3129L98.0446 14.2828L93.306 3.04827L86.2105 19.8388Z" fill="#F21818"/>
</svg>
