<svg width="205" height="62" viewBox="0 0 205 62" fill="none" xmlns="http://www.w3.org/2000/svg">
<path d="M102.5 0L106.594 10.9487L118.272 11.459L109.124 18.7359L112.248 30L102.5 23.5487L92.7524 30L95.8757 18.7359L86.728 11.459L98.406 10.9487L102.5 0Z" fill="#E03A3A"/>
<path d="M4.39002 61V50.776H0.358018V48.4H11.338V50.776H7.30602V61H4.39002ZM21.907 48.4H24.823V61H21.907V48.4ZM16.183 61H13.267V48.4H16.183V61ZM22.123 55.834H15.967V53.368H22.123V55.834ZM30.8461 53.476H36.9121V55.744H30.8461V53.476ZM31.0621 58.66H37.9201V61H28.1641V48.4H37.6861V50.74H31.0621V58.66ZM50.1979 61.216C49.1899 61.216 48.2239 61.084 47.2999 60.82C46.3759 60.544 45.6319 60.19 45.0679 59.758L46.0579 57.562C46.5979 57.946 47.2339 58.264 47.9659 58.516C48.7099 58.756 49.4599 58.876 50.2159 58.876C50.7919 58.876 51.2539 58.822 51.6019 58.714C51.9619 58.594 52.2259 58.432 52.3939 58.228C52.5619 58.024 52.6459 57.79 52.6459 57.526C52.6459 57.19 52.5139 56.926 52.2499 56.734C51.9859 56.53 51.6379 56.368 51.2059 56.248C50.7739 56.116 50.2939 55.996 49.7659 55.888C49.2499 55.768 48.7279 55.624 48.1999 55.456C47.6839 55.288 47.2099 55.072 46.7779 54.808C46.3459 54.544 45.9919 54.196 45.7159 53.764C45.4519 53.332 45.3199 52.78 45.3199 52.108C45.3199 51.388 45.5119 50.734 45.8959 50.146C46.2919 49.546 46.8799 49.072 47.6599 48.724C48.4519 48.364 49.4419 48.184 50.6299 48.184C51.4219 48.184 52.2019 48.28 52.9699 48.472C53.7379 48.652 54.4159 48.928 55.0039 49.3L54.1039 51.514C53.5159 51.178 52.9279 50.932 52.3399 50.776C51.7519 50.608 51.1759 50.524 50.6119 50.524C50.0479 50.524 49.5859 50.59 49.2259 50.722C48.8659 50.854 48.6079 51.028 48.4519 51.244C48.2959 51.448 48.2179 51.688 48.2179 51.964C48.2179 52.288 48.3499 52.552 48.6139 52.756C48.8779 52.948 49.2259 53.104 49.6579 53.224C50.0899 53.344 50.5639 53.464 51.0799 53.584C51.6079 53.704 52.1299 53.842 52.6459 53.998C53.1739 54.154 53.6539 54.364 54.0859 54.628C54.5179 54.892 54.8659 55.24 55.1299 55.672C55.4059 56.104 55.5439 56.65 55.5439 57.31C55.5439 58.018 55.3459 58.666 54.9499 59.254C54.5539 59.842 53.9599 60.316 53.1679 60.676C52.3879 61.036 51.3979 61.216 50.1979 61.216ZM56.2404 61L61.8564 48.4H64.7364L70.3704 61H67.3104L62.7024 49.876H63.8544L59.2284 61H56.2404ZM59.0484 58.3L59.8224 56.086H66.3024L67.0944 58.3H59.0484ZM72.0377 61V48.4H74.9537V58.624H81.2717V61H72.0377ZM85.943 53.476H92.009V55.744H85.943V53.476ZM86.159 58.66H93.017V61H83.261V48.4H92.783V50.74H86.159V58.66ZM99.8371 61.216C98.8291 61.216 97.8631 61.084 96.9391 60.82C96.0151 60.544 95.2711 60.19 94.7071 59.758L95.6971 57.562C96.2371 57.946 96.8731 58.264 97.6051 58.516C98.3491 58.756 99.0991 58.876 99.8551 58.876C100.431 58.876 100.893 58.822 101.241 58.714C101.601 58.594 101.865 58.432 102.033 58.228C102.201 58.024 102.285 57.79 102.285 57.526C102.285 57.19 102.153 56.926 101.889 56.734C101.625 56.53 101.277 56.368 100.845 56.248C100.413 56.116 99.9331 55.996 99.4051 55.888C98.8891 55.768 98.3671 55.624 97.8391 55.456C97.3231 55.288 96.8491 55.072 96.4171 54.808C95.9851 54.544 95.6311 54.196 95.3551 53.764C95.0911 53.332 94.9591 52.78 94.9591 52.108C94.9591 51.388 95.1511 50.734 95.5351 50.146C95.9311 49.546 96.5191 49.072 97.2991 48.724C98.0911 48.364 99.0811 48.184 100.269 48.184C101.061 48.184 101.841 48.28 102.609 48.472C103.377 48.652 104.055 48.928 104.643 49.3L103.743 51.514C103.155 51.178 102.567 50.932 101.979 50.776C101.391 50.608 100.815 50.524 100.251 50.524C99.6871 50.524 99.2251 50.59 98.8651 50.722C98.5051 50.854 98.2471 51.028 98.0911 51.244C97.9351 51.448 97.8571 51.688 97.8571 51.964C97.8571 52.288 97.9891 52.552 98.2531 52.756C98.5171 52.948 98.8651 53.104 99.2971 53.224C99.7291 53.344 100.203 53.464 100.719 53.584C101.247 53.704 101.769 53.842 102.285 53.998C102.813 54.154 103.293 54.364 103.725 54.628C104.157 54.892 104.505 55.24 104.769 55.672C105.045 56.104 105.183 56.65 105.183 57.31C105.183 58.018 104.985 58.666 104.589 59.254C104.193 59.842 103.599 60.316 102.807 60.676C102.027 61.036 101.037 61.216 99.8371 61.216ZM112.993 61V48.4H115.405L120.769 57.292H119.491L124.765 48.4H127.159L127.195 61H124.459L124.441 52.594H124.945L120.733 59.668H119.419L115.117 52.594H115.729V61H112.993ZM128.889 61L134.505 48.4H137.385L143.019 61H139.959L135.351 49.876H136.503L131.877 61H128.889ZM131.697 58.3L132.471 56.086H138.951L139.743 58.3H131.697ZM150.54 61.216C149.568 61.216 148.662 61.06 147.822 60.748C146.994 60.424 146.274 59.968 145.662 59.38C145.05 58.792 144.57 58.102 144.222 57.31C143.886 56.518 143.718 55.648 143.718 54.7C143.718 53.752 143.886 52.882 144.222 52.09C144.57 51.298 145.05 50.608 145.662 50.02C146.286 49.432 147.012 48.982 147.84 48.67C148.668 48.346 149.574 48.184 150.558 48.184C151.65 48.184 152.634 48.376 153.51 48.76C154.398 49.132 155.142 49.684 155.742 50.416L153.87 52.144C153.438 51.652 152.958 51.286 152.43 51.046C151.902 50.794 151.326 50.668 150.702 50.668C150.114 50.668 149.574 50.764 149.082 50.956C148.59 51.148 148.164 51.424 147.804 51.784C147.444 52.144 147.162 52.57 146.958 53.062C146.766 53.554 146.67 54.1 146.67 54.7C146.67 55.3 146.766 55.846 146.958 56.338C147.162 56.83 147.444 57.256 147.804 57.616C148.164 57.976 148.59 58.252 149.082 58.444C149.574 58.636 150.114 58.732 150.702 58.732C151.326 58.732 151.902 58.612 152.43 58.372C152.958 58.12 153.438 57.742 153.87 57.238L155.742 58.966C155.142 59.698 154.398 60.256 153.51 60.64C152.634 61.024 151.644 61.216 150.54 61.216ZM166.711 48.4H169.627V61H166.711V48.4ZM160.987 61H158.071V48.4H160.987V61ZM166.927 55.834H160.771V53.368H166.927V55.834ZM172.968 61V48.4H175.884V61H172.968ZM179.235 61V48.4H181.647L189.081 57.472H187.911V48.4H190.791V61H188.397L180.945 51.928H182.115V61H179.235ZM196.814 53.476H202.88V55.744H196.814V53.476ZM197.03 58.66H203.888V61H194.132V48.4H203.654V50.74H197.03V58.66Z" fill="#FAFAFA"/>
</svg>
