<svg width="72" height="72" viewBox="0 0 72 72" fill="none" xmlns="http://www.w3.org/2000/svg">
<rect width="72" height="72" fill="#E00D30"/>
<path fill-rule="evenodd" clip-rule="evenodd" d="M22.7734 42.129C22.8589 42.6419 22.5535 42.7638 22.2675 42.878L22.2501 42.885C21.5652 43.1133 20.6282 43.1455 19.7966 43.1741L19.7497 43.1757C16.7259 43.1757 15.8828 41.5185 15.8828 39.396V32.9996C15.8828 32.7961 15.7956 32.6798 15.5339 32.6798H14.4581C14.1674 32.6798 13.9639 32.5054 13.9639 32.2437V30.5574C13.9639 30.2666 14.1674 30.0922 14.4291 30.0922H15.4467C15.7374 30.0922 15.8537 29.9177 15.8537 29.6851V27.5046C15.8537 27.2429 15.9991 27.0103 16.3189 26.9231L18.4413 26.4579C18.8484 26.3706 19.0228 26.5742 19.0228 26.8649V29.7142C19.0228 29.9177 19.081 30.0922 19.4299 30.0922H21.7268C22.0175 30.0922 22.1919 30.2666 22.1919 30.5574V32.2146C22.1919 32.5054 22.0175 32.6798 21.7268 32.6798H19.3717C19.1101 32.6798 19.0228 32.767 19.0228 32.9706V38.8436C19.0228 39.774 19.3426 40.2973 20.273 40.2973C20.5638 40.2973 21.2616 40.2101 21.5814 40.1229C22.2501 40.0066 22.3955 40.181 22.4827 40.5881L22.7734 42.129ZM42.8099 42.5649C42.8099 42.8556 42.6355 43.001 42.3447 43.001H40.0769C39.7862 43.001 39.6408 42.8556 39.6408 42.594V34.8602C39.6408 33.6681 39.0012 32.6505 37.4893 32.6505C36.3845 32.6505 35.3959 33.7553 35.3959 34.8602V42.5649C35.3959 42.8556 35.2506 43.001 34.9307 43.001H32.692C32.4013 43.001 32.2268 42.8556 32.2268 42.594V34.8602C32.2268 33.6681 31.3836 32.6505 30.1334 32.6505C28.8542 32.6505 28.0401 33.6681 28.0401 34.8602V42.5649C28.0401 42.8556 27.8656 43.001 27.5458 43.001H25.278C24.9873 43.001 24.8419 42.8556 24.8419 42.594V34.8602C24.8419 31.9818 26.8771 29.8884 30.0171 29.8884C31.3836 29.8884 32.8374 30.5571 33.6224 31.4584C33.6564 31.4811 33.6859 31.5082 33.7128 31.5328L33.7128 31.5328C33.7549 31.5713 33.7904 31.6038 33.8259 31.6038C33.9131 31.6038 33.9713 31.5457 34.0294 31.4875C34.7854 30.6153 36.3554 29.8884 37.78 29.8884C40.9492 29.8884 42.8099 31.9527 42.8099 34.8602V42.5649ZM57.6001 32.5632C57.978 32.5922 58.0362 32.4759 58.0362 32.1852V30.4116C58.0362 30.0918 57.9199 29.9174 57.5419 29.9174C56.5243 29.9174 55.6811 30.2081 54.7508 30.8768C54.6054 30.9931 54.4019 30.9931 54.2274 30.8768C53.268 30.2372 52.0759 29.8883 50.8548 29.8883C48.0927 29.8883 45.5632 31.9817 45.5632 34.7147C45.5632 36.3138 46.2319 37.6221 47.1623 38.3781C47.3658 38.5525 47.2786 38.6979 47.1042 38.8142C46.1447 39.4247 45.5051 40.6168 45.5051 41.5181C45.5051 42.5357 45.6795 43.1463 46.0866 43.6987C46.261 43.9313 46.4645 44.1057 47.0169 44.0185C48.4416 43.815 50.4187 43.5533 51.6689 43.5533C52.8318 43.5533 54.5182 43.8441 54.5182 45.0361C54.5182 45.7339 53.7331 46.4026 53.3261 46.6352C52.9481 46.8678 52.8318 47.1295 53.0354 47.3911L53.9367 48.7576C54.1402 49.0484 54.5182 48.9321 54.8961 48.7867C56.3789 48.118 57.6873 46.4898 57.6873 44.9489C57.6873 41.9542 54.6635 40.9657 51.6107 40.9657C51.0292 40.9657 49.7209 41.0529 48.7323 41.2564C48.616 41.2855 48.4997 41.2274 48.5579 41.0238C48.7905 40.326 49.372 39.6283 50.157 39.5992H50.8548C53.9076 39.5992 56.3499 37.5058 56.3499 34.7147C56.3499 34.075 56.2045 33.4935 55.9719 32.9702C55.8847 32.7667 56.03 32.6504 56.1754 32.6213C56.6115 32.5341 57.2802 32.5341 57.6001 32.5632ZM51.0001 32.7085C52.3085 32.7085 53.1807 33.6971 53.1807 34.86C53.1807 35.9939 52.3666 36.9534 50.8548 36.9534C49.4883 36.9534 48.6742 35.9649 48.6742 34.86C48.6742 33.7261 49.5755 32.7085 51.0001 32.7085Z" fill="#FAF9F5"/>
</svg>
