<svg width="139" height="32" viewBox="0 0 139 32" fill="none" xmlns="http://www.w3.org/2000/svg">
<path fill-rule="evenodd" clip-rule="evenodd" d="M126.086 11.5402C122.585 11.5402 120.804 13.9202 120.804 18.4829C120.804 23.0456 122.585 25.4256 126.086 25.4256C129.586 25.4256 131.368 23.0456 131.368 18.4829C131.368 13.9202 129.586 11.5402 126.086 11.5402ZM138.667 18.4834C138.667 27.1002 134.424 31.5945 126.086 31.5945C117.749 31.5945 113.506 27.1002 113.506 18.4834C113.506 9.86651 117.749 5.37221 126.086 5.37221C134.424 5.37221 138.667 9.86651 138.667 18.4834ZM110.996 11.5048C110.996 11.6785 110.855 11.8191 110.682 11.8191H106.003V22.4823C106.003 24.8152 106.647 25.1472 108.002 25.1472H110.682C110.855 25.1472 110.996 25.2879 110.996 25.4617V30.7424C110.996 30.9161 110.855 31.0567 110.682 31.0567H106.205C102.118 31.0567 98.8398 29.37 98.8398 22.4823V0.31449C98.8398 0.140833 98.9806 0 99.1539 0H105.689C105.863 0 106.003 0.140833 106.003 0.31449V5.90944H110.682C110.855 5.90944 110.996 6.05028 110.996 6.22393V11.5048ZM74.1278 13.9267C74.1278 9.3253 76.378 5.90938 83.0845 5.9096H93.4941C93.6674 5.9096 93.8082 6.05021 93.8082 6.22387V11.5048C93.8082 11.6784 93.6674 11.819 93.4941 11.819H83.0845C81.7112 11.819 81.1932 12.611 81.1932 13.5057C81.1932 14.4002 81.7112 15.1922 83.0845 15.1922H86.3921C93.184 15.1922 95.3446 18.4455 95.3446 23.044C95.3446 27.6429 93.184 31.0566 86.3921 31.0566H74.7358C74.5625 31.0566 74.4217 30.916 74.4217 30.7423V25.4614C74.4217 25.288 74.5625 25.1472 74.7358 25.1472H86.3921C87.7616 25.1472 88.279 24.3148 88.279 23.4654C88.279 22.6159 87.7616 21.7836 86.3921 21.7836H83.0845C76.378 21.7836 74.1278 18.5278 74.1278 13.9267ZM70.1654 30.7428C70.1654 30.9165 70.0248 31.0571 69.8513 31.0571H63.3163C63.1428 31.0571 63.0022 30.9165 63.0022 30.7428V6.22409C63.0022 6.05043 63.1428 5.9096 63.3163 5.9096H69.8513C70.0248 5.9096 70.1654 6.05043 70.1654 6.22409V30.7428ZM70.3417 0C70.5242 0 70.6676 0.155693 70.6563 0.337777C70.5138 2.60796 68.9268 4.0866 66.5824 4.0866C64.238 4.0866 62.651 2.60796 62.5085 0.337777C62.4969 0.155693 62.6408 0 62.8232 0H70.3417ZM44.5631 14.3665C44.5631 10.3038 44.9796 8.82961 46.3325 7.5823C47.8647 6.16997 49.3924 5.9096 53.4504 5.9096H58.6151C58.7884 5.9096 58.9292 6.05043 58.9292 6.22409V11.505C58.9292 11.6787 58.7884 11.8193 58.6151 11.8193H53.4504C52.714 11.8193 52.3837 11.9415 52.1159 12.2631C51.8346 12.6011 51.7264 13.1431 51.7264 14.3665V30.7426C51.7264 30.9162 51.5859 31.0568 51.4123 31.0568H44.8774C44.7038 31.0568 44.5631 30.9162 44.5631 30.7426V14.3665ZM28.236 32.0001C19.2857 32.0001 17.2427 27.8141 17.2427 21.7692V6.22387C17.2427 6.05043 17.3835 5.9096 17.5571 5.9096H24.0922C24.2656 5.9096 24.4063 6.05043 24.4063 6.22387V21.7692C24.4063 24.4761 25.313 26.0904 28.236 26.0904C31.159 26.0904 32.0656 24.4761 32.0656 21.7692V6.22387C32.0656 6.05043 32.2064 5.9096 32.3799 5.9096H38.9151C39.0884 5.9096 39.2292 6.05043 39.2292 6.22387V21.7692C39.2292 27.8141 37.1865 32.0001 28.236 32.0001ZM12.1564 11.5048C12.1564 11.6785 12.0156 11.8191 11.842 11.8191H7.1636V22.4823C7.1636 24.8152 7.80756 25.1472 9.16221 25.1472H11.842C12.0156 25.1472 12.1564 25.2879 12.1564 25.4617V30.7424C12.1564 30.9161 12.0156 31.0567 11.842 31.0567H7.36532C3.27811 31.0567 0 29.37 0 22.4823V0.31449C0 0.140833 0.140763 0 0.314333 0H6.84949C7.02284 0 7.1636 0.140833 7.1636 0.31449V5.90944H11.842C12.0156 5.90944 12.1564 6.05028 12.1564 6.22393V11.5048Z" fill="#FFCB3B"/>
</svg>
