<svg width="20" height="28" viewBox="0 0 20 28" fill="none" xmlns="http://www.w3.org/2000/svg">
<path d="M5.99986 25.9997C8.20778 25.9997 9.99972 24.2078 9.99972 21.9999V18H5.99986C3.79194 18 2 19.7919 2 21.9999C2 24.2078 3.79194 25.9997 5.99986 25.9997Z" stroke="white" stroke-width="2.16"/>
<path d="M2 13.9999C2 11.7919 3.79194 10 5.99986 10H9.99972V17.9997H5.99986C3.79194 17.9997 2 16.2078 2 13.9999Z" stroke="white" stroke-width="2.16"/>
<path d="M2 5.99986C2 3.79194 3.79194 2 5.99986 2H9.99972V9.99972H5.99986C3.79194 9.99972 2 8.20778 2 5.99986Z" stroke="white" stroke-width="2.16"/>
<path d="M9.99976 2H13.9996C16.2075 2 17.9995 3.79194 17.9995 5.99986C17.9995 8.20778 16.2075 9.99972 13.9996 9.99972H9.99976V2Z" stroke="white" stroke-width="2.16"/>
<path d="M17.9997 13.9999C17.9997 16.2078 16.2078 17.9997 13.9999 17.9997C11.7919 17.9997 10 16.2078 10 13.9999C10 11.7919 11.7919 10 13.9999 10C16.2078 10 17.9997 11.7919 17.9997 13.9999Z" stroke="white" stroke-width="2.16"/>
</svg>
