<svg width="26" height="26" viewBox="0 0 26 26" fill="none" xmlns="http://www.w3.org/2000/svg">
<g clip-path="url(#clip0_44_589)">
<path fill-rule="evenodd" clip-rule="evenodd" d="M0.308377 9.7403L5.51813 2.6683C5.57141 2.59614 5.63905 2.53579 5.7168 2.49104C5.79455 2.44629 5.88071 2.41812 5.96988 2.4083L12.9281 1.6348C12.9756 1.62954 13.0236 1.62954 13.0711 1.6348L20.0294 2.40749C20.1185 2.41731 20.2047 2.44548 20.2825 2.49023C20.3602 2.53497 20.4278 2.59533 20.4811 2.66749L25.6917 9.7403C25.7789 9.85903 25.8231 10.0038 25.8172 10.151C25.8113 10.2982 25.7556 10.439 25.6592 10.5504L13.3693 24.7626C13.3236 24.8156 13.2669 24.8581 13.2033 24.8872C13.1396 24.9163 13.0704 24.9314 13.0004 24.9314C12.9304 24.9314 12.8613 24.9163 12.7976 24.8872C12.734 24.8581 12.6773 24.8156 12.6316 24.7626L0.339252 10.5504C0.242975 10.4389 0.187406 10.2981 0.181649 10.1509C0.175892 10.0037 0.221101 9.85894 0.308377 9.7403ZM14.792 3.72537L19.7052 8.36637C19.7528 8.41147 19.8129 8.44112 19.8777 8.45141C19.9425 8.4617 20.0089 8.45215 20.0681 8.42402C20.1273 8.39589 20.1767 8.3505 20.2097 8.29381C20.2426 8.23711 20.2577 8.17177 20.2528 8.10637L20.0172 4.81249C20.0139 4.77219 20.0257 4.73211 20.0504 4.70007C20.0751 4.66804 20.1108 4.64635 20.1506 4.63924C20.1904 4.63213 20.2314 4.64012 20.2656 4.66164C20.2999 4.68316 20.3248 4.71667 20.3357 4.75562L21.4131 8.52724C21.4493 8.65424 21.516 8.77049 21.6073 8.86591C21.6986 8.96133 21.8118 9.03305 21.9371 9.07487L24.2365 9.84105C24.2732 9.85311 24.3044 9.87783 24.3245 9.9108C24.3446 9.94376 24.3523 9.98281 24.3462 10.0209C24.3402 10.0591 24.3207 10.0938 24.2914 10.1189C24.2621 10.144 24.2247 10.1578 24.1861 10.1579H21.9761C21.8395 10.158 21.7052 10.1925 21.5855 10.2583C21.4657 10.324 21.3645 10.4189 21.2912 10.5341L15.2673 19.9997C15.2336 20.0514 15.1816 20.0883 15.1217 20.1031C15.0618 20.1179 14.9986 20.1095 14.9447 20.0795C14.8908 20.0495 14.8503 20.0002 14.8313 19.9415C14.8123 19.8829 14.8163 19.8192 14.8424 19.7633L19.16 10.8583C19.1961 10.784 19.2127 10.7017 19.2082 10.6192C19.2038 10.5367 19.1784 10.4566 19.1346 10.3866C19.0907 10.3166 19.0298 10.2589 18.9575 10.2189C18.8852 10.1789 18.8039 10.1579 18.7213 10.1579H7.278C7.19537 10.1579 7.11409 10.1789 7.0418 10.2189C6.9695 10.2589 6.90855 10.3166 6.86469 10.3866C6.82082 10.4566 6.79548 10.5367 6.79103 10.6192C6.78658 10.7017 6.80317 10.784 6.83925 10.8583L11.1569 19.7633C11.184 19.8193 11.1887 19.8835 11.17 19.9428C11.1513 20.0022 11.1107 20.0521 11.0564 20.0824C11.002 20.1128 10.9382 20.1212 10.8779 20.1059C10.8176 20.0907 10.7654 20.053 10.7319 20.0006L4.70807 10.5349C4.63474 10.4194 4.53344 10.3243 4.41357 10.2584C4.29369 10.1925 4.15911 10.158 4.02232 10.1579H1.74488C1.70626 10.1578 1.66894 10.144 1.6396 10.1189C1.61026 10.0938 1.59082 10.0591 1.58476 10.0209C1.57869 9.98281 1.58641 9.94376 1.60652 9.9108C1.62663 9.87783 1.65782 9.85311 1.6945 9.84105L4.05725 9.07324C4.18387 9.03199 4.2984 8.96025 4.39078 8.86433C4.48316 8.76841 4.55054 8.65126 4.587 8.52318L5.66357 4.75562C5.67441 4.71667 5.69939 4.68316 5.73362 4.66164C5.76785 4.64012 5.80887 4.63213 5.84867 4.63924C5.88848 4.64635 5.9242 4.66804 5.94887 4.70007C5.97353 4.73211 5.98537 4.77219 5.98206 4.81249L5.74644 8.10637C5.74158 8.17177 5.75663 8.23711 5.7896 8.29381C5.82256 8.3505 5.87191 8.39589 5.93116 8.42402C5.9904 8.45215 6.05677 8.4617 6.12154 8.45141C6.18631 8.44112 6.24645 8.41147 6.29406 8.36637L11.2073 3.72537C11.2369 3.69539 11.2771 3.67814 11.3193 3.67725C11.3615 3.67636 11.4024 3.69192 11.4333 3.72062C11.4642 3.74932 11.4827 3.78893 11.485 3.83106C11.4872 3.87318 11.473 3.91454 11.4453 3.94637L8.149 8.00318C8.11034 8.05083 8.08597 8.10846 8.07869 8.16939C8.07141 8.23032 8.08153 8.29206 8.10788 8.34748C8.13423 8.4029 8.17573 8.44973 8.22758 8.48254C8.27943 8.51536 8.33951 8.53283 8.40088 8.53293H17.5984C17.6597 8.53283 17.7198 8.51536 17.7717 8.48254C17.8235 8.44973 17.865 8.4029 17.8914 8.34748C17.9177 8.29206 17.9278 8.23032 17.9206 8.16939C17.9133 8.10846 17.8889 8.05083 17.8503 8.00318L14.5539 3.94637C14.5263 3.91454 14.512 3.87318 14.5143 3.83106C14.5165 3.78893 14.5351 3.74932 14.566 3.72062C14.5969 3.69192 14.6378 3.67636 14.68 3.67725C14.7221 3.67814 14.7623 3.69539 14.792 3.72537Z" fill="white"/>
</g>
<defs>
<clipPath id="clip0_44_589">
<rect width="26" height="26" fill="white" transform="translate(-0.000244141)"/>
</clipPath>
</defs>
</svg>
