<svg width="84" height="20" viewBox="0 0 84 20" fill="none" xmlns="http://www.w3.org/2000/svg">
<path fill-rule="evenodd" clip-rule="evenodd" d="M76.1742 0.000976562C72.7493 0.000976562 70.8145 0.662237 69.7035 2.21184C68.5429 3.83039 68.3096 6.38525 68.3096 9.98358C68.3096 17.0473 69.4025 20.0002 76.1742 20.0002C76.9876 20.0002 79.7678 19.9847 81.3909 19.7866C82.0224 19.6819 82.3052 19.1983 82.3052 18.7656V17.9854C82.3052 17.3784 81.8465 16.9202 81.2377 16.9202H76.174C72.3533 16.9202 71.6643 16.0196 71.5664 10.8994V9.24188C71.5989 4.00226 72.2879 3.08095 76.1742 3.08095C79.7578 3.08095 80.4451 3.89859 80.5642 8.51142H74.87V11.6256H82.3594C83.8346 11.6256 83.8346 10.5939 83.8346 10.2551V9.26087C83.7276 2.07794 82.0092 0.000976562 76.1742 0.000976562ZM66.3125 0.275523L66.2311 0.254039C65.5336 0.107398 63.6275 0.000976562 62.6825 0.000976562C59.3382 0.000976562 57.5708 1.40119 57.5708 4.05023V18.7993C57.5708 19.4064 57.9955 19.8305 58.6043 19.8305H59.7939C60.4027 19.8305 60.8276 19.4066 60.8276 18.7993V4.32103C60.8276 3.66726 60.993 3.08095 62.9885 3.08095L65.9433 3.07845C66.2326 3.11292 66.5087 3.03298 66.7212 2.85286C66.9533 2.65726 67.081 2.37172 67.081 2.04971V1.30351C67.081 0.813875 66.8007 0.439152 66.3125 0.275523ZM52.0301 0.238551H50.8405C50.232 0.238551 49.8068 0.662487 49.8068 1.26979V16.9204H44.8594C41.7992 16.9204 40.5576 16.7258 40.5576 11.8484V1.26979C40.5576 0.662736 40.1324 0.238551 39.5239 0.238551H38.368C37.7594 0.238551 37.3005 0.681722 37.3005 1.26979V11.8484C37.3005 18.7803 39.8147 20.0002 45.0973 20.0002C46.9976 20.0002 49.6002 20.0002 52.0821 19.6507L52.1395 19.6392C52.7526 19.486 53.0636 19.1351 53.0636 18.596V1.26979C53.0636 0.662736 52.6384 0.238551 52.0301 0.238551Z" fill="white"/>
<path fill-rule="evenodd" clip-rule="evenodd" d="M33.6314 0.721491C33.4787 0.396731 33.1512 0.203125 32.7555 0.203125H31.2264C30.7822 0.203125 30.4502 0.381992 30.2754 0.704004L28.009 4.0153L29.9931 6.72854L33.457 1.75972C33.8372 1.29781 33.7056 0.879624 33.6314 0.721491Z" fill="#74BB11"/>
<path fill-rule="evenodd" clip-rule="evenodd" d="M21.6837 0.666532L21.6817 0.663534C21.3362 0.203125 20.8765 0.203125 20.7254 0.203125H19.2298C18.8465 0.203125 18.5328 0.379245 18.3689 0.685768C18.2003 0.999785 18.236 1.37701 18.4693 1.7265L24.01 9.40731L17.6387 18.2937C17.4161 18.628 17.3849 18.9995 17.553 19.3132C17.7179 19.6197 18.0319 19.7954 18.4144 19.7954H19.9432C20.3364 19.7954 20.6822 19.5913 20.855 19.2698L27.9865 9.44278L21.6837 0.666532Z" fill="#009CD9"/>
<path fill-rule="evenodd" clip-rule="evenodd" d="M34.3922 18.3729L29.947 12.2725L27.9917 14.968L31.5071 19.6597L31.5985 19.6997C31.738 19.7624 31.889 19.7954 32.0419 19.7966H33.5371C33.8983 19.7966 34.2048 19.6363 34.3785 19.356C34.5563 19.0687 34.5613 18.7107 34.3922 18.3729Z" fill="#EB2084"/>
<path fill-rule="evenodd" clip-rule="evenodd" d="M11.7581 11.489V16.6697C10.2442 16.902 7.93663 16.9534 7.15021 16.9534C3.67129 16.9534 3.29007 16.0029 3.29007 13.9841C3.29007 12.095 3.99705 11.4887 6.19867 11.4887L11.7581 11.489ZM6.98034 0C5.90539 0 4.43947 0.0279792 2.61557 0.247317L2.53313 0.265553C2.00178 0.416691 1.73273 0.765683 1.73273 1.30279V2.04873C1.73273 2.68476 2.12868 3.07997 2.76621 3.07997H6.98059C10.3738 3.07997 11.7581 3.99929 11.7581 6.25287V8.443H6.19867C1.85364 8.443 -0.000488281 10.1 -0.000488281 13.9839C-0.000488281 18.3127 1.91859 19.9994 6.84444 19.9994C8.83971 19.9994 12.5125 19.8443 13.87 19.4304C15.0146 19.1126 15.0146 18.2382 15.0146 17.951V6.04977C15.0146 1.97903 12.3866 0 6.98059 0H6.98034Z" fill="white"/>
</svg>
