<svg width="30" height="26" viewBox="0 0 30 26" fill="none" xmlns="http://www.w3.org/2000/svg">
<path fill-rule="evenodd" clip-rule="evenodd" d="M0.33667 12.9482C0.33667 20.0667 0.384849 25.8965 0.445073 25.8965C0.529386 25.8965 11.2974 0.301006 11.2974 0.0841961C11.2974 0.0360165 8.82821 -0.000116348 5.81702 -0.000116348H0.33667L0.33667 12.9482Z" fill="#ED1C24"/>
<path fill-rule="evenodd" clip-rule="evenodd" d="M18.8857 0.0721531C18.8857 0.108288 20.3552 3.63745 22.1499 7.92545C23.9445 12.2134 25.426 15.7667 25.4381 15.839C25.4622 15.8992 25.6067 16.2605 25.7633 16.6219C25.9319 16.9832 26.8714 19.2236 27.8591 21.5844C28.8467 23.9573 29.7019 25.8965 29.7501 25.8965C29.7983 25.8965 29.8465 20.0667 29.8465 12.9482L29.8465 -0.000116348H24.3661C21.3549 -0.000116348 18.8857 0.0360184 18.8857 0.0721531Z" fill="#ED1C24"/>
<path fill-rule="evenodd" clip-rule="evenodd" d="M14.2726 11.346C11.5987 17.6214 10.334 20.6206 10.334 20.717C10.334 20.7893 11.3819 20.8495 12.8754 20.8615L15.4169 20.8977L16.4166 23.4271L17.4042 25.9565L19.7168 25.9927C21.2586 26.0168 22.0174 25.9806 22.0174 25.8963C22.0174 25.7397 15.2723 9.73201 15.1519 9.59952C15.1037 9.5393 14.7062 10.3343 14.2726 11.346Z" fill="#ED1C24"/>
</svg>
