<svg width="155" height="26" viewBox="0 0 155 26" fill="none" xmlns="http://www.w3.org/2000/svg">
<path fill-rule="evenodd" clip-rule="evenodd" d="M18.3443 14.9763C18.3443 10.7423 16.2864 7.20677 9.80308 7.20677C6.23175 7.20677 3.57614 8.10669 2.22502 8.82012L3.34387 12.4206C4.63755 11.7038 7.16995 11.047 9.15458 11.047C12.1448 11.0403 12.7018 12.4173 12.7018 13.3655V13.5911C5.83216 13.5844 0.846436 15.8021 0.846436 20.4931C0.846436 23.371 3.09413 26 7.39389 26C9.68737 26 11.6387 25.2508 12.9099 23.8181H13.0398L13.3969 25.5971H18.654C18.4426 24.5906 18.3443 22.9581 18.3443 21.2415V14.9763ZM12.7559 19.0505C12.7559 19.366 12.7342 19.7139 12.6343 20.0036C12.2031 21.15 10.8453 22.0557 9.25032 22.0557C7.75685 22.0557 6.64799 21.3548 6.64799 19.9179C6.64799 17.7976 9.29694 17.0875 12.7559 17.1033V19.0505ZM38.4579 19.818C38.4579 22.1639 38.5952 24.1011 38.6751 25.5962H33.3706L33.1009 23.063H32.9793C32.2509 24.1702 30.6359 25.9992 27.2793 25.9992C23.4616 25.9992 20.7335 23.7032 20.7335 18.1847V7.75371H26.6025V17.2723C26.6025 19.8913 27.4775 21.2948 29.5129 21.2948C31.0829 21.2948 32.0095 20.2476 32.3799 19.3452C32.5248 19.0197 32.5905 18.6117 32.5905 18.1647V7.75371H38.4579V19.818ZM49.1419 2.28099V7.75371H52.819V11.8895H49.1419V18.0365C49.1419 20.2026 49.7113 21.1974 51.4737 21.1974C52.3053 21.1974 52.6608 21.1683 53.2294 21.0334L53.1162 25.3115C52.3503 25.5713 51.1881 25.7927 49.5248 25.7927C47.6051 25.7927 46.0043 25.1617 45.0503 24.2268C43.9481 23.1621 43.4086 21.448 43.4086 18.8873V11.8903H40.8845V7.75455H43.4086V3.79444L49.1419 2.28099ZM64.1873 26C68.9816 26 73.6385 22.9939 73.6385 16.4232C73.6385 10.9937 69.9789 7.20677 64.4737 7.20677C58.6805 7.20677 54.8544 10.9338 54.8544 16.7337C54.8544 22.5435 58.9127 26 64.1507 26H64.1873ZM64.2339 21.6619C61.9005 21.6619 60.6201 19.5075 60.6201 16.6704C60.6201 14.2054 61.6266 11.6722 64.2739 11.6722C66.7863 11.6722 67.7986 14.1871 67.7986 16.6463C67.7986 19.6465 66.435 21.6619 64.2697 21.6619H64.2339ZM102.026 18.3861C102.213 20.6738 104.744 21.7635 107.623 21.7635C109.71 21.7635 111.429 21.5129 113.106 21.0043L113.945 24.812C111.87 25.5729 109.379 25.9484 106.715 25.9484C99.9548 25.9484 96.0746 22.402 96.0746 16.7944C96.0746 12.2383 99.2255 7.17264 106.13 7.17264C112.589 7.17264 115.04 11.693 115.04 16.1618C115.04 17.1408 114.926 17.9716 114.817 18.4219L102.026 18.3861ZM109.244 14.8181C109.255 13.4845 108.593 11.2002 105.795 11.2002C103.194 11.2002 102.143 13.3438 101.974 14.8181H109.244ZM88.1611 9.61097H88.2368V1.4993L93.896 0V20.2118C93.896 22.2622 94.0966 24.3933 94.1757 25.5971H88.6564L88.4108 23.545H88.3317H88.3642C87.1879 25.5613 85.309 26 82.9123 26C78.511 26 75.4566 22.3546 75.4566 16.7628C75.4283 10.7248 78.8556 7.20677 83.2969 7.20677C85.592 7.20677 87.3577 8.37141 88.1919 9.61097H88.1611ZM88.2368 15.4167C88.2368 15.1078 88.2268 14.7324 88.1669 14.4169C87.8597 12.9342 86.6792 11.718 85.0301 11.718C82.5452 11.718 81.2923 13.9632 81.2923 16.762C81.2923 19.7606 82.7408 21.6411 84.9926 21.6411C86.5336 21.6411 87.7939 20.5514 88.1228 18.9988C88.211 18.6167 88.2368 18.1872 88.2368 17.7435V15.4167ZM146.655 7.61053H153.664L146.98 14.908L154.613 25.5971H147.429L142.946 18.228L141.48 20.012V25.5971H135.828V1.4993L141.48 0V14.6541H141.555L146.655 7.61053ZM117.95 20.6996C119.2 21.3256 121.901 22.0357 123.896 22.0357C125.952 22.0357 126.979 21.478 126.979 20.5706C126.979 19.6507 126.345 19.172 123.819 18.4777C119.226 17.2481 117.23 14.923 117.257 12.811C117.257 9.51108 120.759 7.20594 126.242 7.20594C128.826 7.20594 131.115 7.6996 132.464 8.2532L131.268 12.1292C130.273 11.7038 127.803 11.1144 125.941 11.1144C124.281 11.1144 123.268 11.6497 123.268 12.5463C123.268 13.3963 124.499 13.8483 127.197 14.6067C131.386 15.7663 133.377 17.5254 133.405 20.146C133.405 23.5034 130.193 25.9817 123.858 25.9817C120.977 25.9817 118.388 25.4514 116.705 24.7163L117.95 20.6996Z" fill="#0097D5"/>
</svg>
