<svg width="81" height="26" viewBox="0 0 81 26" fill="none" xmlns="http://www.w3.org/2000/svg">
<g clip-path="url(#clip0_44_603)">
<path d="M76.6538 0.0830078L75.3789 12.2545L71.7546 4.54216H67.7559L65.9985 20.5807H70.3481L71.2706 12.6726L75.1158 20.6481H78.6743L80.806 0.0830078H76.6538Z" fill="white"/>
<path d="M50.5739 4.43262L45.9612 4.47647L42.6423 8.95912L39.8089 4.43262H35.1508L40.1598 12.2984L34.009 20.5808H38.6655L42.2914 15.6596L45.3895 20.537H49.8925L44.752 12.3203L50.5739 4.43262Z" fill="white"/>
<path d="M28.5165 2.25781L24.2766 3.51082L20.8496 21.2629L24.936 20.1211L25.4638 17.6385L31.2199 15.9908L33.2858 19.8141L36.1865 16.0347L28.5165 2.25781ZM26.1874 14.4731L27.3293 7.94805L29.9653 13.2217L26.1874 14.4731Z" fill="white"/>
<path d="M14.96 4.69629L11.6865 13.7477L9.66448 4.69629H5.8428L0.613037 25.9192H5.00641L7.90713 14.7799L9.26978 20.6471H13.2027L15.5317 14.7799L16.1018 20.6471H19.9251L18.7394 4.69629H14.96Z" fill="white"/>
<path d="M57.2541 3.8623C52.5083 3.8623 48.6851 7.70749 48.6851 12.4313C48.6851 17.1771 52.5302 21.0004 57.2541 21.0004C61.9779 21.0004 65.8231 17.1552 65.8231 12.4313C65.8231 7.70749 61.9779 3.8623 57.2541 3.8623ZM57.2541 17.2413C54.5961 17.2413 52.4645 15.0877 52.4645 12.4517C52.4645 9.79375 54.6181 7.66207 57.2541 7.66207C59.912 7.66207 62.0437 9.81568 62.0437 12.4517C62.0437 15.0893 59.8901 17.2413 57.2541 17.2413Z" fill="white"/>
</g>
<defs>
<clipPath id="clip0_44_603">
<rect width="80.1928" height="26" fill="white" transform="translate(0.612793)"/>
</clipPath>
</defs>
</svg>
