<svg width="27" height="26" viewBox="0 0 27 26" fill="none" xmlns="http://www.w3.org/2000/svg">
<path d="M13.8057 26C20.9854 26 26.8057 20.1797 26.8057 13C26.8057 5.82029 20.9854 0 13.8057 0C6.62598 0 0.805664 5.82029 0.805664 13C0.805664 20.1797 6.62598 26 13.8057 26Z" fill="url(#paint0_linear_44_609)"/>
<path d="M20.9765 13.5751C20.9765 15.5561 20.3888 17.1343 19.2134 18.3096C17.8796 19.7095 16.1429 20.4094 14.0035 20.4094C11.9565 20.4094 10.2132 19.7029 8.7737 18.2898C7.34741 16.8635 6.63428 15.1005 6.63428 13.0006C6.63428 10.9008 7.34741 9.14431 8.7737 7.73122C10.2132 6.30492 11.9565 5.5918 14.0035 5.5918C15.0204 5.5918 15.991 5.78986 16.9155 6.18605C17.8399 6.58225 18.5795 7.11056 19.1342 7.77088L17.8862 9.01884C16.9485 7.89629 15.6543 7.33508 14.0035 7.33508C12.5111 7.33508 11.2169 7.8633 10.1208 8.91982C9.03783 9.96313 8.49636 11.3234 8.49636 13.0006C8.49636 14.6779 9.03783 16.0447 10.1208 17.1013C11.2169 18.1446 12.5111 18.6662 14.0035 18.6662C15.5882 18.6662 16.9089 18.1379 17.9654 17.0814C18.6521 16.3946 19.0484 15.4372 19.154 14.209H14.0035V12.5054H20.8774C20.9435 12.8752 20.9765 13.2317 20.9765 13.5751Z" fill="#FEE1DE" stroke="#FEE0DE" stroke-width="1.00539"/>
<defs>
<linearGradient id="paint0_linear_44_609" x1="13.2695" y1="25.3879" x2="13.2695" y2="0.316438" gradientUnits="userSpaceOnUse">
<stop stop-color="#E52823"/>
<stop offset="1" stop-color="#FF3A2F"/>
</linearGradient>
</defs>
</svg>
