<svg width="27" height="26" viewBox="0 0 27 26" fill="none" xmlns="http://www.w3.org/2000/svg">
<g clip-path="url(#clip0_44_612)">
<path d="M13.8052 0.00195312C20.9839 0.00195312 26.8052 5.82324 26.8052 13.002C26.8052 20.1807 20.9839 26.002 13.8052 26.002C6.62646 26.002 0.805176 20.1859 0.805176 13.002C0.805176 5.81802 6.62646 0.00195312 13.8052 0.00195312ZM12.0875 3.97505C10.4847 3.98027 9.03329 6.55938 7.7855 11.6341C6.90317 11.6236 6.09393 11.608 5.3369 11.5975H5.22204C5.12807 11.5923 5.03409 11.5975 4.94012 11.608C4.512 11.6863 4.20397 12.0622 4.20397 12.4955C4.20397 12.9393 4.53289 13.3204 4.97144 13.3883L4.98188 13.3987H7.37827C7.15377 14.4116 6.9606 15.4192 6.79875 16.3851L6.72566 16.808V16.8289C6.72566 17.0325 6.83008 17.2204 7.00236 17.3301C7.27907 17.5076 7.64975 17.424 7.82726 17.1473L7.84293 17.163L9.01763 13.3987H14.6771C15.1104 15.0381 15.5594 16.7244 16.1546 18.3116C16.473 19.1626 17.2144 21.1465 18.457 21.157H18.4726C20.3939 21.157 21.1457 18.0505 21.6417 15.9935C21.7514 15.5497 21.8401 15.1686 21.9289 14.8867L21.9654 14.7718L21.9707 14.755C22.0113 14.6082 21.9285 14.4514 21.7827 14.4011C21.6313 14.3489 21.459 14.4273 21.4068 14.5839L21.365 14.6987C21.2032 15.153 21.0518 15.5758 20.916 15.957L20.9056 15.9883C20.0702 18.3429 19.6943 19.4184 18.9477 19.4184H18.9008C17.9453 19.4184 17.0526 15.5445 16.7132 14.0879C16.6558 13.8373 16.6036 13.6024 16.5514 13.3987H22.712C22.8216 13.3987 22.9313 13.3726 23.0305 13.3204L23.0353 13.3165C23.0409 13.3126 23.0487 13.3087 23.0566 13.3048L23.0879 13.2839L23.1036 13.2734C23.1192 13.263 23.1349 13.2526 23.1506 13.2369L23.1736 13.2178C23.2867 13.1194 23.3669 12.982 23.4012 12.8401C23.4795 12.4694 23.2341 12.104 22.8634 12.0309H22.8321C22.7955 12.0256 22.7642 12.0204 22.7277 12.0204L22.6337 12.01C20.4566 11.8534 18.2168 11.7907 16.1128 11.7489L16.1076 11.7333C15.0895 7.89593 13.8104 3.97505 12.0875 3.97505ZM12.0196 5.70316C12.1084 5.70316 12.1919 5.75537 12.265 5.84934C12.4425 6.13127 12.7558 6.763 13.2204 8.16219C13.5389 9.12284 13.8835 10.3184 14.249 11.7072C12.8602 11.6863 11.461 11.6706 10.1036 11.655L9.41441 11.6497C10.1923 8.61119 11.1373 6.30878 11.8317 5.76581C11.8891 5.72926 11.9518 5.70316 12.0196 5.70316Z" fill="#5285E9"/>
</g>
<defs>
<clipPath id="clip0_44_612">
<rect width="26" height="26" fill="white" transform="translate(0.805664)"/>
</clipPath>
</defs>
</svg>
