<svg width="101" height="26" viewBox="0 0 101 26" fill="none" xmlns="http://www.w3.org/2000/svg">
<g clip-path="url(#clip0_44_615)">
<path d="M26.9939 19.6021V0.0301576H30.0347V7.74622C30.9923 6.31996 32.4286 5.60656 34.3434 5.60606C35.9767 5.60606 37.2392 6.08945 38.1311 7.05625C39.023 8.02306 39.4691 9.37011 39.4691 11.0974V19.6021H36.4282V11.5198C36.4282 9.28597 35.4331 8.16891 33.443 8.16861C32.4477 8.16861 31.6311 8.469 30.9931 9.06978C30.3552 9.67055 30.0358 10.5154 30.0353 11.6043V19.6019L26.9939 19.6021ZM53.8403 17.9129C52.4886 19.2646 50.7897 19.9404 48.7433 19.9404C46.697 19.9404 44.9933 19.2646 43.6319 17.9129C42.2707 16.5611 41.5903 14.843 41.5903 12.7586C41.5903 10.6743 42.2709 8.96128 43.6319 7.61955C44.993 6.27751 46.6968 5.60634 48.7433 5.60602C50.7898 5.60572 52.4888 6.2769 53.8403 7.61955C55.1922 8.96209 55.8681 10.6751 55.8681 12.7586C55.8681 14.8421 55.192 16.5602 53.8403 17.9129ZM45.8568 16.1948C46.579 17.0396 47.5413 17.4621 48.7433 17.4621C49.9454 17.4621 50.9075 17.0396 51.6297 16.1948C52.3522 15.35 52.7136 14.2047 52.7139 12.7586C52.7139 11.332 52.3479 10.1961 51.6157 9.35117C50.8836 8.50622 49.9261 8.08379 48.7433 8.08389C47.5416 8.08389 46.5794 8.50161 45.8568 9.33703C45.1341 10.1725 44.7728 11.3128 44.7725 12.758C44.7725 14.2047 45.1339 15.3502 45.8568 16.1948ZM72.6985 5.94399V21.7139C72.6985 23.1783 72.3371 24.2343 71.6142 24.8819C70.8914 25.5296 69.967 25.8535 68.8409 25.8538C67.4892 25.8538 66.3721 25.4783 65.4898 24.7273L66.6163 22.3337C67.1609 22.9717 67.7523 23.2909 68.3905 23.2916C69.2352 23.2916 69.6575 22.7472 69.6575 21.6583V5.94399H72.6985ZM61.7804 1.91775V5.94403H67.2154V8.50657H61.7806V15.3498C61.7806 16.6078 62.2405 17.2368 63.1604 17.2367C64.0238 17.2367 64.8029 16.4481 65.4978 14.871L67.8634 16.082C66.6991 18.6543 65.047 19.9402 62.907 19.94C60.1094 19.94 58.7106 18.438 58.7106 15.4341V8.50657H56.599V5.94403H58.7956L59.4997 1.91775H61.7804ZM71.1713 0.00195312C71.6687 0.00195312 72.1484 0.187728 72.516 0.522877C72.6949 0.689901 72.8365 0.892989 72.9311 1.11873C73.0257 1.34446 73.0715 1.58772 73.0651 1.83243C73.0696 2.07271 73.0229 2.31118 72.9282 2.53207C72.8335 2.75295 72.6931 2.9512 72.516 3.1137C72.3383 3.28431 72.1287 3.41815 71.8991 3.50753C71.6696 3.59693 71.4246 3.64011 71.1783 3.6346C70.6784 3.65157 70.1921 3.46928 69.8265 3.12784C69.6507 2.96211 69.5121 2.76092 69.4199 2.5376C69.3277 2.31429 69.284 2.07392 69.2916 1.83243C69.2848 1.58896 69.329 1.34676 69.4211 1.12129C69.5132 0.895808 69.6513 0.692004 69.8265 0.522877C70.1942 0.187728 70.6737 0.00195312 71.1713 0.00195312ZM80.2517 19.9401C78.6932 19.9401 77.4305 19.5505 76.464 18.7715C75.4974 17.9924 75.014 16.946 75.0138 15.6322C75.0138 14.4308 75.516 13.4121 76.5205 12.5761C77.5248 11.7402 78.7873 11.3225 80.308 11.323C81.8663 11.323 83.1805 11.8206 84.2506 12.8157V11.1539C84.2506 10.178 84.0018 9.42236 83.5042 8.88696C83.0066 8.35157 82.2979 8.08402 81.3782 8.08432C79.5196 8.08432 78.365 9.03237 77.9143 10.9285L75.1263 10.3372C75.5014 8.87287 76.243 7.7183 77.3512 6.87344C78.4593 6.02858 79.8392 5.60616 81.4907 5.60616C83.2932 5.60616 84.7154 6.08023 85.7572 7.02838C86.7991 7.97652 87.32 9.36104 87.3202 11.1819V19.6022H84.3632V17.8841C83.3679 19.2549 81.9974 19.9403 80.2517 19.9401ZM80.8142 17.6872C82.1662 17.6872 83.3115 17.0114 84.2505 15.6598V15.2369C83.3114 14.1105 82.1661 13.5473 80.8142 13.5474C80.0259 13.5474 79.3873 13.74 78.8985 14.1252C78.6675 14.2954 78.4805 14.5183 78.3531 14.7756C78.2257 15.0327 78.1617 15.3166 78.1663 15.6035C78.1588 15.8934 78.2201 16.181 78.3448 16.4429C78.4697 16.7046 78.6546 16.9333 78.8845 17.1101C79.311 17.4522 79.8668 17.6422 80.5519 17.6801L80.8142 17.6872ZM90.2792 19.6021V5.94398H93.2362V8.30947C93.9868 6.58236 95.2822 5.71865 97.1225 5.71865C98.2109 5.71865 99.1121 6.07534 99.8259 6.78874C100.54 7.50213 100.896 8.4596 100.896 9.66115C100.888 10.3803 100.765 11.0935 100.53 11.7732L97.7417 11.4916C97.7989 11.1184 97.8364 10.7424 97.8542 10.3653C97.8542 8.95723 97.2723 8.25317 96.1084 8.25307C95.3197 8.25307 94.6579 8.67078 94.123 9.50621C93.5882 10.3416 93.3205 11.4447 93.3203 12.8153V19.6021H90.2792Z" fill="white"/>
<path d="M18.2646 6.88035C18.2646 10.4995 16.6514 12.4057 14.9018 13.6596L14.5619 13.8944L14.2209 14.1146L13.8813 14.322L13.5454 14.5182L12.2753 15.231C12.2092 15.2687 12.144 15.3063 12.0798 15.3439L11.7058 15.5691C10.3777 16.3982 9.53309 17.293 9.46216 19.3188L9.4573 19.6021H5.69893C5.69893 16.0997 7.21008 14.2014 8.89324 12.9462L9.23177 12.7034C9.28844 12.6643 9.3452 12.6258 9.40201 12.5879L9.74295 12.3677L10.0825 12.1603L10.7481 11.7774L11.6883 11.2514L12.0738 11.026C13.5075 10.1633 14.4274 9.2815 14.5015 7.16369L14.5064 6.88035H18.2646ZM13.3714 0.0302734C13.3714 3.53241 11.8605 5.43073 10.1773 6.68603L9.83881 6.9288C9.78213 6.96793 9.72537 7.00641 9.66856 7.04429L9.32759 7.26454L8.98798 7.47192L8.32232 7.85487L7.38199 8.3809L6.99653 8.60634C6.93419 8.64385 6.87282 8.6814 6.81246 8.71908L6.46246 8.94761C5.3372 9.72018 4.63328 10.6272 4.5688 12.4688L4.56395 12.7521H0.80542C0.80542 9.01615 2.52444 7.10565 4.338 5.85356L4.67875 5.62622L5.01934 5.41261L5.35739 5.21101L6.79481 4.40131L7.18028 4.17587C8.61404 3.31311 9.53385 2.43131 9.60801 0.313605L9.61286 0.0302734H13.3714Z" fill="#FF3C00"/>
</g>
<defs>
<clipPath id="clip0_44_615">
<rect width="100.09" height="26" fill="white" transform="translate(0.805664)"/>
</clipPath>
</defs>
</svg>
