<svg width="102" height="26" viewBox="0 0 102 26" fill="none" xmlns="http://www.w3.org/2000/svg">
<g clip-path="url(#clip0_44_619)">
<path d="M44.6775 17.1597C44.6775 19.3791 42.8899 21.1233 40.7138 21.1233H36.4393L37.8382 25.8295L30.8004 21.1233H4.85969C2.68358 21.1233 0.895996 19.3358 0.895996 17.1597V3.97346C0.895996 1.79734 2.68358 0.00976562 4.85969 0.00976562H40.6707C42.8899 0.00976562 44.6344 1.79734 44.6344 3.97346V17.151H44.6775V17.1597Z" fill="#315CFD"/>
<path d="M4.74731 5.37346C4.74731 4.47534 5.33465 3.97461 6.11172 3.97461C6.88898 3.97461 7.47612 4.484 7.47612 5.37346V11.669C7.47612 13.3441 8.52973 14.6654 10.274 14.6654C11.9061 14.6654 13.0375 13.2664 13.0375 11.669V5.37346C13.0375 4.47534 13.6246 3.97461 14.4019 3.97461C15.1789 3.97461 15.7663 4.484 15.7663 5.37346V11.8244C15.7663 14.8554 13.2792 17.1525 10.2827 17.1525C7.25154 17.1525 4.79908 14.8985 4.79908 11.8244V5.37346H4.74731ZM22.83 10.1575C22.3204 10.1575 21.3534 9.38025 20.4984 9.38025C20.0321 9.38025 19.6002 9.61349 19.6002 10.1229C19.6002 11.332 24.108 11.1765 24.108 14.1299C24.108 15.8828 22.6314 17.2039 20.412 17.2039C18.9354 17.2039 16.7939 16.3837 16.7939 15.1833C16.7939 14.7948 17.1824 14.0175 17.925 14.0175C18.9354 14.0175 19.4016 14.9156 20.6106 14.9156C21.388 14.9156 21.6211 14.6393 21.6211 14.173C21.6211 12.9641 17.1133 13.1627 17.1133 10.1662C17.1133 8.3786 18.5899 7.13505 20.6539 7.13505C21.9405 7.13505 23.918 7.72238 23.918 9.00038C23.918 9.57905 23.4515 10.1575 22.83 10.1575ZM27.6054 12.9985C27.804 14.2852 28.8487 14.8638 30.0578 14.8638C31.3789 14.8638 32.3115 13.8102 33.011 13.8102C33.555 13.8102 34.0646 14.3543 34.0646 14.9416C34.0646 16.0728 31.733 17.1608 29.8246 17.1608C26.9059 17.1608 24.9283 15.0193 24.9283 12.1437C24.9283 9.5013 26.8368 7.09195 29.5916 7.09195C32.4325 7.09195 34.2546 9.6566 34.2546 11.8327C34.2546 12.61 33.9005 12.9985 33.1234 12.9985H27.6054ZM31.6899 11.2887C31.5344 10.1575 30.8349 9.3027 29.626 9.3027C28.4602 9.3027 27.6831 10.2006 27.5621 11.2887H31.6899ZM35.619 8.52544C35.619 7.67062 36.3185 7.23878 36.9403 7.23878C37.6396 7.23878 38.2269 7.51513 38.2269 8.32684H38.2702C38.7796 7.58421 39.2803 7.23878 40.1007 7.23878C40.7227 7.23878 41.3874 7.70506 41.3874 8.63763C41.3874 9.49264 40.6103 9.53575 39.833 9.92428C39.056 10.2786 38.2787 10.6238 38.2787 11.6774V15.6842C38.2787 16.539 37.7347 17.1264 36.992 17.1264C36.2148 17.1264 35.7054 16.539 35.7054 15.6842V8.52544H35.619Z" fill="white"/>
<path d="M49.582 6.58318H47.596C46.741 6.58318 46.3523 5.9616 46.3523 5.33983C46.3523 4.71786 46.8188 4.09628 47.5958 4.09628H54.2452C55.0223 4.09628 55.4886 4.71805 55.4886 5.33983C55.4886 5.9616 55.1345 6.58318 54.2452 6.58318H52.2591V15.6417C52.2591 16.5399 51.6717 17.0408 50.8947 17.0408C50.1174 17.0408 49.5303 16.5312 49.5303 15.6417V6.58318H49.582ZM56.5422 12.9993C56.7408 14.286 57.7858 14.8647 58.9947 14.8647C60.3158 14.8647 61.2483 13.811 61.9479 13.811C62.4919 13.811 63.0015 14.3551 63.0015 14.9424C63.0015 16.0736 60.6699 17.1616 58.7614 17.1616C55.8427 17.1616 53.8652 15.0202 53.8652 12.1445C53.8652 9.50212 55.7736 7.09277 58.5284 7.09277C61.3694 7.09277 63.1914 9.65742 63.1914 11.8335C63.1914 12.6108 62.8373 12.9993 62.0602 12.9993H56.5422ZM60.6181 11.2895C60.4626 10.1583 59.7631 9.30352 58.5542 9.30352C57.3884 9.30352 56.6113 10.2014 56.4904 11.2895H60.6179H60.6181ZM70.0738 10.1583C69.5644 10.1583 68.5972 9.38107 67.7422 9.38107C67.2759 9.38107 66.8441 9.61431 66.8441 10.1237C66.8441 11.3328 71.3518 11.1773 71.3518 14.1307C71.3518 15.8836 69.8752 17.2047 67.656 17.2047C66.1792 17.2047 64.0378 16.3846 64.0378 15.1841C64.0378 14.7956 64.4263 14.0183 65.1689 14.0183C66.1792 14.0183 66.6455 14.9164 67.8546 14.9164C68.6317 14.9164 68.8649 14.6401 68.8649 14.1738C68.8649 12.9649 64.3572 13.1635 64.3572 10.167C64.3572 8.37942 65.8338 7.13587 67.8977 7.13587C69.1844 7.13587 71.1619 7.7232 71.1619 9.0012C71.1619 9.57987 70.6954 10.1583 70.0738 10.1583ZM73.4157 9.61431H72.8286C72.1291 9.61431 71.6973 9.18247 71.6973 8.48315C71.6973 7.81807 72.2068 7.35179 72.8286 7.35179H73.4157V5.79745C73.4157 4.94263 73.9598 4.3553 74.7024 4.3553C75.4797 4.3553 75.9891 4.94263 75.9891 5.79745V7.35179H76.7317C77.3966 7.35179 77.9752 7.66278 77.9752 8.48315C77.9752 9.30352 77.3881 9.61431 76.7317 9.61431H75.9891V15.5986C75.9891 16.4536 75.445 17.0408 74.7024 17.0408C73.9251 17.0408 73.4157 16.4536 73.4157 15.5986V9.61431ZM81.5762 4.7525C81.5762 5.57287 80.9113 6.27239 80.0996 6.27239C79.3223 6.27239 78.6228 5.57287 78.6228 4.7525C78.6228 4.00987 79.3223 3.31055 80.0996 3.31055C80.8767 3.31901 81.5762 3.97543 81.5762 4.7525ZM78.8216 8.68194C78.8216 7.82693 79.3656 7.2398 80.1082 7.2398C80.8853 7.2398 81.3949 7.82693 81.3949 8.68194V15.6417C81.3949 16.4967 80.8509 17.0839 80.1082 17.0839C79.331 17.0839 78.8216 16.4967 78.8216 15.6417V8.68194ZM82.742 8.68175C82.742 7.82673 83.286 7.2396 84.0286 7.2396C84.6935 7.2396 85.1167 7.59369 85.2375 8.21546C85.7471 7.51594 86.5242 7.16185 87.7678 7.16185C89.8317 7.16185 91.3429 8.44851 91.3429 10.6593V15.6417C91.3429 16.4967 90.7989 17.0839 90.0563 17.0839C89.279 17.0839 88.7694 16.4967 88.7694 15.6417V11.0565C88.7694 9.84755 87.9923 9.26888 87.0598 9.26888C86.0062 9.26888 85.3844 10.0461 85.3844 11.0565V15.6073C85.3844 16.4621 84.8404 17.0494 84.0977 17.0494C83.3205 17.0494 82.8111 16.4621 82.8111 15.6073V8.68175H82.742ZM101.602 16.1858C101.602 19.2946 99.5378 20.8921 96.5846 20.8921C95.531 20.8921 92.4654 20.3827 92.4654 18.9492C92.4654 18.4396 93.0094 17.8178 93.519 17.8178C94.3394 17.8178 95.272 18.6382 96.7832 18.6382C98.0699 18.6382 99.0024 17.8956 99.0024 16.5745V15.9525H98.9591C98.4153 16.73 97.5172 17.1963 96.3514 17.1963C93.6312 17.1963 92.3446 14.7869 92.3446 12.2223C92.3446 9.61431 94.0198 7.17051 96.619 7.17051C97.5172 7.17051 98.5275 7.55905 98.9938 8.37942C99.1492 7.6799 99.5811 7.29136 100.28 7.29136C101.058 7.29136 101.567 7.8785 101.567 8.73351V16.2031H101.602V16.1858ZM96.9385 9.50212C95.5743 9.50212 94.9179 10.901 94.9179 12.1101C94.9179 13.5089 95.5828 14.7525 96.9385 14.7525C98.3375 14.7525 99.0024 13.4656 99.0024 12.1878C99.0024 10.9356 98.3806 9.50212 96.9385 9.50212Z" fill="#315CFD"/>
</g>
<defs>
<clipPath id="clip0_44_619">
<rect width="100.775" height="26" fill="white" transform="translate(0.895996)"/>
</clipPath>
</defs>
</svg>
