<svg width="27" height="26" viewBox="0 0 27 26" fill="none" xmlns="http://www.w3.org/2000/svg">
<g clip-path="url(#clip0_44_624)">
<mask id="mask0_44_624" style="mask-type:luminance" maskUnits="userSpaceOnUse" x="0" y="0" width="27" height="26">
<path d="M19.0357 25.8601C19.4436 26.0203 19.9088 26.01 20.3205 25.8104L25.6527 23.2245C26.2129 22.9527 26.5692 22.3811 26.5692 21.7542V4.21995C26.5692 3.59295 26.2129 3.02143 25.6527 2.7497L20.3205 0.163692C19.7802 -0.0983497 19.1478 -0.0341659 18.6736 0.31331C18.6059 0.362948 18.5413 0.41837 18.4808 0.479446L8.27303 9.8655L3.82675 6.46383C3.41284 6.14717 2.8339 6.17311 2.44949 6.52555L1.02342 7.83298C0.553205 8.26408 0.552665 9.00965 1.02225 9.44145L4.87822 12.987L1.02225 16.5326C0.552665 16.9644 0.553205 17.71 1.02342 18.1411L2.44949 19.4485C2.8339 19.8009 3.41284 19.8268 3.82675 19.5102L8.27303 16.1085L18.4808 25.4946C18.6423 25.6574 18.8319 25.7801 19.0357 25.8601ZM20.0985 7.0614L12.3531 12.987L20.0985 18.9126V7.0614Z" fill="white"/>
</mask>
<g mask="url(#mask0_44_624)">
<path d="M25.6685 2.75351L20.3322 0.163943C19.7146 -0.135799 18.9764 -0.00936099 18.4916 0.479209L1.02247 16.5324C0.552593 16.9642 0.553134 17.7098 1.02363 18.1409L2.45057 19.4482C2.83522 19.8007 3.41452 19.8266 3.82867 19.51L24.8655 3.42531C25.5713 2.8857 26.585 3.39303 26.585 4.28587V4.22342C26.585 3.5967 26.2287 3.02539 25.6685 2.75351Z" fill="#0065A9"/>
</g>
<mask id="mask1_44_624" style="mask-type:luminance" maskUnits="userSpaceOnUse" x="0" y="0" width="27" height="26">
<path d="M19.0357 25.8601C19.4436 26.0203 19.9088 26.01 20.3205 25.8104L25.6527 23.2245C26.2129 22.9527 26.5692 22.3811 26.5692 21.7542V4.21995C26.5692 3.59295 26.2129 3.02143 25.6527 2.7497L20.3205 0.163692C19.7802 -0.0983497 19.1478 -0.0341659 18.6736 0.31331C18.6059 0.362948 18.5413 0.41837 18.4808 0.479446L8.27303 9.8655L3.82675 6.46383C3.41284 6.14717 2.8339 6.17311 2.44949 6.52555L1.02342 7.83298C0.553205 8.26408 0.552665 9.00965 1.02225 9.44145L4.87822 12.987L1.02225 16.5326C0.552665 16.9644 0.553205 17.71 1.02342 18.1411L2.44949 19.4485C2.8339 19.8009 3.41284 19.8268 3.82675 19.5102L8.27303 16.1085L18.4808 25.4946C18.6423 25.6574 18.8319 25.7801 19.0357 25.8601ZM20.0985 7.0614L12.3531 12.987L20.0985 18.9126V7.0614Z" fill="white"/>
</mask>
<g mask="url(#mask1_44_624)">
<path d="M25.6685 23.2198L20.3322 25.8094C19.7146 26.1091 18.9764 25.9826 18.4916 25.4941L1.02247 9.44094C0.552593 9.00915 0.553134 8.26356 1.02363 7.83247L2.45057 6.52504C2.83522 6.1726 3.41452 6.14665 3.82867 6.46332L24.8655 22.548C25.5713 23.0876 26.585 22.5803 26.585 21.6874V21.7499C26.585 22.3766 26.2287 22.9479 25.6685 23.2198Z" fill="#007ACC"/>
</g>
<mask id="mask2_44_624" style="mask-type:luminance" maskUnits="userSpaceOnUse" x="0" y="0" width="27" height="26">
<path d="M19.0357 25.8601C19.4436 26.0203 19.9088 26.01 20.3205 25.8104L25.6527 23.2245C26.2129 22.9527 26.5692 22.3811 26.5692 21.7542V4.21995C26.5692 3.59295 26.2129 3.02143 25.6527 2.7497L20.3205 0.163692C19.7802 -0.0983497 19.1478 -0.0341659 18.6736 0.31331C18.6059 0.362948 18.5413 0.41837 18.4808 0.479446L8.27303 9.8655L3.82675 6.46383C3.41284 6.14717 2.8339 6.17311 2.44949 6.52555L1.02342 7.83298C0.553205 8.26408 0.552665 9.00965 1.02225 9.44145L4.87822 12.987L1.02225 16.5326C0.552665 16.9644 0.553205 17.71 1.02342 18.1411L2.44949 19.4485C2.8339 19.8009 3.41284 19.8268 3.82675 19.5102L8.27303 16.1085L18.4808 25.4946C18.6423 25.6574 18.8319 25.7801 19.0357 25.8601ZM20.0985 7.0614L12.3531 12.987L20.0985 18.9126V7.0614Z" fill="white"/>
</mask>
<g mask="url(#mask2_44_624)">
<path d="M20.3159 25.8113C19.6981 26.1108 18.9599 25.9842 18.4751 25.4956C19.0724 26.0976 20.0938 25.6712 20.0938 24.8198V1.15618C20.0938 0.304776 19.0724 -0.121611 18.4751 0.480423C18.9599 -0.00819226 19.6981 -0.134808 20.3159 0.164669L25.6513 2.75068C26.212 3.02241 26.5685 3.59393 26.5685 4.22093V21.7552C26.5685 22.3821 26.212 22.9537 25.6513 23.2254L20.3159 25.8113Z" fill="#1F9CF0"/>
</g>
</g>
<defs>
<clipPath id="clip0_44_624">
<rect width="26" height="26" fill="white" transform="translate(0.670898)"/>
</clipPath>
</defs>
</svg>
