<svg width="27" height="26" viewBox="0 0 27 26" fill="none" xmlns="http://www.w3.org/2000/svg">
<g clip-path="url(#clip0_44_642)">
<path d="M13.5336 0.00195312C12.4388 0.00195312 11.4125 0.070016 10.523 0.274204C7.85462 0.750644 7.37567 1.70352 7.37567 3.47316V5.85536H13.6704V6.67211H5.04936C3.20199 6.67211 1.6283 7.76112 1.08094 9.803C0.533568 12.1852 0.533568 13.6826 1.08094 16.1328C1.55988 18.0386 2.65462 19.3318 4.43357 19.3318H6.62304V16.4732C6.62304 14.4313 8.40199 12.5936 10.523 12.5936H16.7494C18.5283 12.5936 19.8967 11.1643 19.8967 9.46269V3.47316C19.8967 1.83965 18.4599 0.546456 16.7494 0.274204C15.723 0.070016 14.5599 0.00195312 13.5336 0.00195312ZM10.1125 1.90771C10.7967 1.90771 11.2757 2.45221 11.2757 3.13284C11.2757 3.74541 10.7967 4.28991 10.1125 4.28991C9.49673 4.28991 8.94936 3.74541 8.94936 3.13284C8.94936 2.45221 9.49673 1.90771 10.1125 1.90771Z" fill="#5A9FD4"/>
<path d="M13.8077 26C14.9025 26 15.9288 25.9319 16.8183 25.7277C19.4867 25.2513 19.9656 24.2984 19.9656 22.5288V20.1466H13.6709V19.3298H22.292C24.1393 19.3298 25.713 18.2408 26.2604 16.199C26.8077 13.8168 26.8077 12.3194 26.2604 9.86911C25.7814 7.96335 24.6867 6.67016 22.9077 6.67016H20.7183L20.7183 9.5288C20.7183 11.5707 18.9393 13.4084 16.8183 13.4084H10.592C8.81301 13.4084 7.44459 14.8377 7.44459 16.5393V22.5288C7.44459 24.1623 8.88143 25.4555 10.592 25.7277C11.6183 25.9319 12.7814 26 13.8077 26ZM17.2288 24.0942C16.5446 24.0942 16.0656 23.5497 16.0656 22.8691C16.0656 22.2565 16.5446 21.712 17.2288 21.712C17.8446 21.712 18.392 22.2565 18.392 22.8691C18.392 23.5497 17.8446 24.0942 17.2288 24.0942Z" fill="#FFD43B"/>
</g>
<defs>
<clipPath id="clip0_44_642">
<rect width="26" height="26" fill="white" transform="translate(0.670898)"/>
</clipPath>
</defs>
</svg>
