<svg width="27" height="26" viewBox="0 0 27 26" fill="none" xmlns="http://www.w3.org/2000/svg">
<g clip-path="url(#clip0_44_646)">
<path d="M2.30765 0.861681L3.9951 22.4496C4.02043 22.7738 4.23986 23.0502 4.54984 23.1485L13.4292 25.9637C13.5863 26.0134 13.7549 26.0134 13.9119 25.9637L22.7913 23.1485C23.1013 23.0502 23.3207 22.7738 23.346 22.4496L25.0335 0.861681C25.0698 0.397552 24.703 0.000976562 24.2374 0.000976562H3.10373C2.63823 0.000976562 2.27142 0.397552 2.30765 0.861681ZM20.7061 7.55968H9.70867L10.0406 10.6202H20.4669L19.7849 19.3454L13.6706 21.2839L7.55631 19.3454L7.19998 14.787H10.4092V17.023L13.7563 17.9213L17.0835 17.023L17.3416 13.4595H7.0962L6.41599 4.75719H20.9251L20.7061 7.55968Z" fill="#FC490B"/>
</g>
<defs>
<clipPath id="clip0_44_646">
<rect width="26" height="26" fill="white" transform="translate(0.670898)"/>
</clipPath>
</defs>
</svg>
