<svg width="27" height="26" viewBox="0 0 27 26" fill="none" xmlns="http://www.w3.org/2000/svg">
<g clip-path="url(#clip0_44_648)">
<path d="M0.67041 0H26.6704V26H0.67041" fill="#F7DF1E"/>
<path d="M17.124 18.79C17.6995 19.7718 18.4613 20.2627 19.4092 20.2627C20.5941 20.2627 21.1865 19.8057 21.1865 18.8916C21.1865 18.333 20.4248 17.8252 19.2061 17.3174C16.9378 16.5726 15.8206 15.3031 15.8545 13.5088C15.8545 11.6807 17.2256 10.2588 19.4092 10.2588C21.0342 10.2588 22.1852 10.9189 22.8623 12.2393L20.9834 13.458C20.5771 12.7132 20.0524 12.3577 19.4092 12.3916C18.6644 12.4255 18.2751 12.7809 18.2412 13.458C18.2412 14.1689 18.6982 14.4736 20.2217 15.1338C22.4053 15.9971 23.624 16.9619 23.624 19.0439C23.5225 21.2445 22.1852 22.3786 19.6123 22.4463C17.4795 22.4463 15.973 21.6169 15.0928 19.958L17.124 18.79ZM8.49121 18.9932C8.89746 19.6533 9.15137 20.2627 10.167 20.2627C10.9795 20.2627 11.3857 19.7549 11.3857 18.7393V10.3096H13.8232V18.6377C13.7894 21.0413 12.5706 22.2601 10.167 22.2939C8.37272 22.2601 7.15397 21.5153 6.51074 20.0596L8.49121 18.9932Z" fill="#222222"/>
</g>
<defs>
<clipPath id="clip0_44_648">
<rect width="26" height="26" fill="white" transform="translate(0.670898)"/>
</clipPath>
</defs>
</svg>
