<svg width="16" height="16" viewBox="0 0 16 16" fill="none" xmlns="http://www.w3.org/2000/svg">
<rect width="16" height="16" rx="8" fill="white"/>
<path d="M6.87163 11.394L6.86069 11.3831C6.80245 11.4361 6.74783 11.4844 6.6957 11.5286C6.57418 11.6318 6.49469 11.6882 6.44369 11.7198C6.41944 11.7348 6.40348 11.743 6.39462 11.7472C6.38611 11.7512 6.38214 11.7525 6.38141 11.7528C6.21014 11.8084 6.02565 11.8084 5.85438 11.7528C5.85365 11.7525 5.84968 11.7512 5.84117 11.7472C5.83231 11.743 5.81636 11.7348 5.7921 11.7198C5.7411 11.6882 5.66161 11.6318 5.5401 11.5286C5.3704 11.3846 5.17431 11.1982 4.91304 10.9407L5.66566 10.188L4.45969 8.98207L2.5 10.9418L3.22358 11.6653C3.39887 11.8406 3.559 12.0008 3.70699 12.1467C4.4143 12.8443 4.84431 13.2178 5.32736 13.3748C5.84116 13.5417 6.39463 13.5417 6.90844 13.3748C7.49255 13.185 7.99911 12.6784 9.01221 11.6653L10.4895 10.188L9.28356 8.98207L6.87163 11.394Z" fill="#222222"/>
<path d="M13.3748 6.90844C13.2551 7.27685 13.0094 7.61441 12.59 8.06766L11.3831 6.86069C11.4361 6.80245 11.4844 6.74783 11.5286 6.6957C11.6318 6.57418 11.6882 6.49469 11.7198 6.44369C11.7348 6.41944 11.743 6.40348 11.7472 6.39462C11.7512 6.38611 11.7525 6.38214 11.7528 6.38141C11.8084 6.21014 11.8084 6.02565 11.7528 5.85438C11.7525 5.85365 11.7512 5.84968 11.7472 5.84117C11.743 5.83231 11.7348 5.81636 11.7198 5.7921C11.6882 5.7411 11.6318 5.66161 11.5286 5.5401C11.3846 5.3704 11.1982 5.17431 10.9407 4.91304L7.7761 8.07759L6.57013 6.87163L10.9418 2.5L11.6653 3.22358C11.8406 3.39887 12.0008 3.559 12.1467 3.70699C12.8443 4.4143 13.2178 4.84431 13.3748 5.32736C13.5417 5.84116 13.5417 6.39463 13.3748 6.90844Z" fill="#222222"/>
<path d="M8.98207 7.7761L11.5447 10.3388C11.8778 10.6718 11.8778 11.2117 11.5447 11.5447C11.2117 11.8778 10.6718 11.8778 10.3388 11.5447L10.188 11.394L8.98207 12.6L9.13281 12.7507C10.1319 13.7498 11.7517 13.7498 12.7507 12.7507C13.7498 11.7517 13.7498 10.1319 12.7507 9.13281L10.188 6.57013L8.98207 7.7761Z" fill="#222222"/>
<path d="M8.07759 9.28356L6.87163 10.4895L2.5 6.1179L6.1179 2.5L8.07759 4.45969L6.87163 5.66566L6.1179 4.91193L4.91193 6.1179L8.07759 9.28356Z" fill="#222222"/>
</svg>
