<svg width="80" height="80" viewBox="0 0 80 80" fill="none" xmlns="http://www.w3.org/2000/svg">
<rect width="80" height="80" rx="8" fill="black"/>
<path fill-rule="evenodd" clip-rule="evenodd" d="M17.0651 60.0413C17.4411 60.4173 17.7987 60.7749 18.14 61.1152C21.3019 64.2673 23.0595 65.9248 24.9659 66.8037C28.4259 68.3988 32.4109 68.3988 35.8709 66.8037C37.7773 65.9248 39.5349 64.2673 42.6968 61.1152L45.7671 64.1854C50.8532 69.2715 59.0994 69.2715 64.1854 64.1854C69.2715 59.0993 69.2715 50.8531 64.1854 45.767L61.1157 42.6973C64.2679 39.5354 65.9249 37.7772 66.8037 35.8709C68.3988 32.4109 68.3988 28.4259 66.8037 24.9659C65.9249 23.0595 64.2673 21.3019 61.1152 18.14C60.7749 17.7987 60.4173 17.441 60.0413 17.0651L54.9763 12L42.6973 24.2789L30.4184 12L12 30.4184L24.2789 42.6973L12 54.9762L17.0651 60.0413ZM53.9018 37.6322L37.6323 53.9018C35.6273 55.9068 34.3975 57.1312 33.4149 58C32.5849 58.7339 32.2694 58.9025 32.236 58.9188C31.0826 59.4505 29.7542 59.4504 28.6009 58.9187C28.6369 58.9353 28.3536 58.8238 27.4219 58C26.6284 57.2984 25.6737 56.3649 24.2796 54.9756L54.9756 24.2796C56.3649 25.6736 57.2984 26.6284 58 27.4219C58.734 28.2519 58.9025 28.5673 58.9188 28.6008C58.9203 28.6038 58.9205 28.6046 58.9199 28.6032C58.9196 28.6027 58.9193 28.6019 58.9188 28.6008C59.4505 29.7542 59.4504 31.0825 58.9187 32.2359C58.9353 32.1999 58.8238 32.4832 58 33.4149C57.1313 34.3974 55.9068 35.6272 53.9018 37.6322ZM58.046 51.9065L54.9763 48.8368L48.8368 54.9762L51.9065 58.046C53.6019 59.7413 56.3506 59.7413 58.046 58.046C59.7414 56.3506 59.7413 53.6019 58.046 51.9065ZM36.5578 30.4184L30.4184 24.2789L24.2789 30.4184L30.4184 36.5578L36.5578 30.4184Z" fill="url(#paint0_linear_760_5400)"/>
<defs>
<linearGradient id="paint0_linear_760_5400" x1="40" y1="12" x2="40" y2="68" gradientUnits="userSpaceOnUse">
<stop offset="0.21875" stop-color="#F7FCFF"/>
<stop offset="1" stop-color="#8EA1AD"/>
</linearGradient>
</defs>
</svg>
