<svg width="80" height="80" viewBox="0 0 80 80" fill="none" xmlns="http://www.w3.org/2000/svg">
<rect width="80" height="80" rx="8" fill="#14171A"/>
<path fill-rule="evenodd" clip-rule="evenodd" d="M61.25 17.9899L55.2601 12L41.9493 25.3108L28.6385 12L12 28.6385L25.3108 41.9493L12 55.2601L17.9899 61.25C21.7172 64.9774 23.5809 66.8411 25.73 67.5393C27.6204 68.1536 29.6567 68.1536 31.547 67.5393C33.6961 66.8411 35.5598 64.9774 39.2872 61.25L41.9493 58.5878L46.1089 62.7475C47.6552 64.2937 48.4283 65.0668 49.1991 65.5818C52.3644 67.6968 56.492 67.6968 59.6573 65.5818C60.4281 65.0668 61.2012 64.2937 62.7475 62.7475C64.2937 61.2012 65.0668 60.4281 65.5818 59.6573C67.6968 56.492 67.6968 52.3644 65.5818 49.1991C65.0668 48.4283 64.2937 47.6552 62.7475 46.1089L58.5878 41.9493L61.25 39.2872C64.9774 35.5598 66.8411 33.6961 67.5393 31.547C68.1536 29.6567 68.1536 27.6204 67.5393 25.73C66.8411 23.5809 64.9774 21.7172 61.25 17.9899ZM54.4282 59.4198L47.7728 52.7644L52.7644 47.7728L59.4198 54.4282L54.4282 59.4198ZM31.1343 36.1258L36.1258 31.1343L28.6385 23.647L23.647 28.6385L31.1343 36.1258ZM60.2517 28.6385L55.2601 23.647L23.647 55.2601L28.6385 60.2517L60.2517 28.6385Z" fill="url(#paint0_linear_746_5480)"/>
<defs>
<linearGradient id="paint0_linear_746_5480" x1="40" y1="12" x2="40" y2="68" gradientUnits="userSpaceOnUse">
<stop offset="0.21875" stop-color="#F7FCFF"/>
<stop offset="1" stop-color="#8EA1AD"/>
</linearGradient>
</defs>
</svg>
