<svg width="80" height="80" viewBox="0 0 80 80" fill="none" xmlns="http://www.w3.org/2000/svg">
<rect width="80" height="80" rx="8" fill="black"/>
<path d="M39.0136 52.5204L47.3019 44.2322L53.4414 50.3716L45.1531 58.6599C39.9955 63.8175 37.4166 66.3964 34.443 67.3626C31.8272 68.2125 29.0096 68.2125 26.3938 67.3626C23.9346 66.5635 21.7455 64.6617 18.1447 61.1105C17.3913 60.3675 16.5761 59.5523 15.6837 58.6599L12 54.9762L22.7441 44.2322L28.8835 50.3716L24.2845 54.9706C25.6146 56.2819 26.613 57.2306 27.4768 57.964C28.0955 58.4892 28.5002 58.7765 28.7598 58.9371C28.8833 59.0136 28.9645 59.0553 29.0096 59.0767C29.0529 59.0972 29.0731 59.1038 29.0769 59.105C29.9488 59.3883 30.888 59.3883 31.7599 59.105C31.7636 59.1038 31.7838 59.0972 31.8272 59.0767C31.8723 59.0553 31.9535 59.0136 32.077 58.9371C32.3366 58.7765 32.7413 58.4892 33.3599 57.964C34.6879 56.8367 36.3335 55.2006 39.0136 52.5204Z" fill="url(#paint0_linear_759_5397)"/>
<path d="M67.3626 34.443C66.6855 36.5267 65.2167 38.4165 62.6237 41.1355L56.4826 34.9944C57.0634 34.3824 57.5483 33.8496 57.964 33.3599C58.4892 32.7413 58.7765 32.3366 58.9371 32.077C59.0136 31.9535 59.0553 31.8723 59.0767 31.8272C59.0972 31.7838 59.1038 31.7636 59.105 31.7599C59.3883 30.888 59.3883 29.9488 59.105 29.0769C59.1038 29.0731 59.0972 29.0529 59.0767 29.0096C59.0553 28.9645 59.0136 28.8833 58.9371 28.7598C58.7765 28.5002 58.4892 28.0955 57.964 27.4768C57.2306 26.613 56.282 25.6146 54.9706 24.2845L38.0927 41.1624L31.9533 35.023L54.9762 12L58.6599 15.6837C59.5523 16.5761 60.3675 17.3913 61.1105 18.1447C64.6617 21.7455 66.5635 23.9346 67.3626 26.3938C68.2125 29.0096 68.2125 31.8272 67.3626 34.443Z" fill="url(#paint1_linear_759_5397)"/>
<path d="M44.2322 38.0927L58.046 51.9065C59.7413 53.6019 59.7413 56.3506 58.046 58.046C56.3506 59.7413 53.6019 59.7413 51.9065 58.046L50.3716 56.5111L44.2322 62.6506L45.767 64.1854C50.8531 69.2715 59.0993 69.2715 64.1854 64.1854C69.2715 59.0993 69.2715 50.8531 64.1854 45.767L50.3716 31.9533L44.2322 38.0927Z" fill="url(#paint2_linear_759_5397)"/>
<path d="M24.2789 30.4184L41.1624 47.3019L35.023 53.4414L12 30.4184L30.4184 12L41.1624 22.7441L35.023 28.8835L30.4184 24.2789L24.2789 30.4184Z" fill="url(#paint3_linear_759_5397)"/>
<defs>
<linearGradient id="paint0_linear_759_5397" x1="40" y1="12" x2="40" y2="68" gradientUnits="userSpaceOnUse">
<stop offset="0.21875" stop-color="#F7FCFF"/>
<stop offset="1" stop-color="#8EA1AD"/>
</linearGradient>
<linearGradient id="paint1_linear_759_5397" x1="40" y1="12" x2="40" y2="68" gradientUnits="userSpaceOnUse">
<stop offset="0.21875" stop-color="#F7FCFF"/>
<stop offset="1" stop-color="#8EA1AD"/>
</linearGradient>
<linearGradient id="paint2_linear_759_5397" x1="40" y1="12" x2="40" y2="68" gradientUnits="userSpaceOnUse">
<stop offset="0.21875" stop-color="#F7FCFF"/>
<stop offset="1" stop-color="#8EA1AD"/>
</linearGradient>
<linearGradient id="paint3_linear_759_5397" x1="40" y1="12" x2="40" y2="68" gradientUnits="userSpaceOnUse">
<stop offset="0.21875" stop-color="#F7FCFF"/>
<stop offset="1" stop-color="#8EA1AD"/>
</linearGradient>
</defs>
</svg>
