<svg width="80" height="80" viewBox="0 0 80 80" fill="none" xmlns="http://www.w3.org/2000/svg">
<rect width="80" height="80" rx="12" fill="#14171A"/>
<path d="M36.9971 64H21.458V16H37.4893C42.1924 16 46.2314 16.9609 49.6064 18.8828C52.9814 20.7891 55.5674 23.5312 57.3643 27.1094C59.1768 30.6719 60.083 34.9453 60.083 39.9297C60.083 44.9297 59.1689 49.2266 57.3408 52.8203C55.5283 56.4141 52.9033 59.1797 49.4658 61.1172C46.0283 63.0391 41.8721 64 36.9971 64ZM28.7002 57.6719H36.5986C40.2549 57.6719 43.2939 56.9844 45.7158 55.6094C48.1377 54.2187 49.9502 52.2109 51.1533 49.5859C52.3564 46.9453 52.958 43.7266 52.958 39.9297C52.958 36.1641 52.3564 32.9687 51.1533 30.3437C49.9658 27.7187 48.1924 25.7266 45.833 24.3672C43.4736 23.0078 40.5439 22.3281 37.0439 22.3281H28.7002V57.6719Z" fill="url(#paint0_linear_437_5085)"/>
<defs>
<linearGradient id="paint0_linear_437_5085" x1="40" y1="16" x2="40" y2="64" gradientUnits="userSpaceOnUse">
<stop offset="0.21875" stop-color="#F7FCFF"/>
<stop offset="1" stop-color="#8EA1AD"/>
</linearGradient>
</defs>
</svg>
