<svg width="80" height="80" viewBox="0 0 80 80" fill="none" xmlns="http://www.w3.org/2000/svg">
<rect width="80" height="80" rx="24" fill="black"/>
<path d="M34.2555 57.2785L34.1999 57.2229C33.9034 57.4931 33.6253 57.7387 33.3599 57.964C32.7413 58.4892 32.3366 58.7765 32.077 58.9371C31.9535 59.0135 31.8723 59.0553 31.8272 59.0767C31.7838 59.0972 31.7636 59.1038 31.7599 59.105C30.888 59.3883 29.9488 59.3883 29.0769 59.105C29.0731 59.1038 29.0529 59.0972 29.0096 59.0767C28.9645 59.0553 28.8833 59.0136 28.7598 58.9371C28.5002 58.7765 28.0955 58.4892 27.4768 57.964C26.613 57.2306 25.6146 56.2819 24.2845 54.9706L28.1161 51.1391L21.9766 44.9996L12 54.9762L15.6837 58.6599C16.5761 59.5523 17.3913 60.3675 18.1447 61.1105C21.7455 64.6617 23.9346 66.5635 26.3938 67.3626C29.0096 68.2125 31.8272 68.2125 34.4429 67.3626C37.4166 66.3964 39.9955 63.8175 45.1531 58.6599L52.6739 51.1391L46.5345 44.9996L34.2555 57.2785Z" fill="#F5F5F5"/>
<path d="M67.3626 34.443C66.7532 36.3185 65.5023 38.037 63.3674 40.3445L57.2229 34.1999C57.4931 33.9034 57.7387 33.6253 57.964 33.3599C58.4892 32.7413 58.7765 32.3366 58.9371 32.077C59.0135 31.9535 59.0553 31.8723 59.0767 31.8272C59.0972 31.7838 59.1038 31.7636 59.105 31.7599C59.3883 30.888 59.3883 29.9488 59.105 29.0769C59.1038 29.0731 59.0972 29.0529 59.0767 29.0096C59.0553 28.9645 59.0135 28.8833 58.9371 28.7598C58.7765 28.5002 58.4892 28.0955 57.964 27.4768C57.2306 26.613 56.2819 25.6146 54.9706 24.2845L38.8601 40.395L32.7207 34.2555L54.9762 12L58.6599 15.6837C59.5523 16.5761 60.3675 17.3913 61.1105 18.1447C64.6617 21.7455 66.5635 23.9346 67.3626 26.3938C68.2125 29.0096 68.2125 31.8272 67.3626 34.443Z" fill="#F5F5F5"/>
<path d="M44.9996 38.8601L58.046 51.9065C59.7413 53.6019 59.7413 56.3506 58.046 58.046C56.3506 59.7413 53.6019 59.7413 51.9065 58.046L51.1391 57.2785L44.9996 63.418L45.767 64.1854C50.8531 69.2715 59.0993 69.2715 64.1854 64.1854C69.2715 59.0993 69.2715 50.8531 64.1854 45.767L51.1391 32.7207L44.9996 38.8601Z" fill="#F5F5F5"/>
<path d="M40.395 46.5345L34.2555 52.6739L12 30.4184L30.4184 12L40.395 21.9766L34.2555 28.1161L30.4184 24.2789L24.2789 30.4184L40.395 46.5345Z" fill="#F5F5F5"/>
</svg>
