<?xml version="1.0" standalone="no"?>
<!DOCTYPE svg PUBLIC "-//W3C//DTD SVG 20010904//EN"
 "http://www.w3.org/TR/2001/REC-SVG-20010904/DTD/svg10.dtd">
<svg version="1.0" xmlns="http://www.w3.org/2000/svg"
 width="700.000000pt" height="700.000000pt" viewBox="0 0 700.000000 700.000000"
 preserveAspectRatio="xMidYMid meet">
<metadata>
Created by potrace 1.14, written by Peter Selinger 2001-2017
</metadata>
<g transform="translate(0.000000,700.000000) scale(0.100000,-0.100000)"
fill="#000000" stroke="none">
<path d="M1148 5847 l-1148 -1151 1390 -1390 1391 -1390 384 384 385 385
-1002 1001 c-552 552 -1004 1006 -1005 1011 -3 10 754 769 762 762 2 -2 111
-110 240 -239 l236 -234 384 384 384 384 -622 623 c-342 342 -624 622 -627
621 -3 0 -521 -519 -1152 -1151z"/>
<path d="M3983 5609 l-1392 -1392 382 -383 c210 -210 383 -381 384 -380 1 0
455 453 1008 1006 l1006 1005 102 -105 c157 -162 219 -230 296 -324 118 -145
143 -203 144 -331 0 -152 -31 -217 -190 -400 l-70 -81 383 -383 383 -384 55
59 c227 245 387 490 449 690 23 71 32 112 63 269 13 67 12 343 -2 440 -31 228
-97 409 -211 584 -153 235 -276 371 -938 1038 l-460 464 -1392 -1392z"/>
<path d="M4515 4031 c-209 -209 -381 -383 -382 -388 -1 -4 365 -375 813 -823
449 -448 831 -833 849 -855 44 -53 90 -147 105 -215 27 -116 8 -266 -47 -375
-23 -44 -88 -124 -133 -162 -41 -36 -160 -99 -200 -107 -14 -3 -36 -8 -50 -11
-66 -16 -185 -7 -264 19 -96 33 -157 72 -246 160 l-66 66 -382 -382 c-210
-210 -382 -384 -382 -388 0 -4 48 -52 106 -106 105 -99 240 -202 312 -239 20
-10 44 -24 52 -30 28 -21 179 -85 272 -115 98 -32 101 -33 188 -49 30 -6 69
-13 85 -16 68 -14 361 -13 445 0 47 8 99 17 115 19 103 17 325 98 434 158 31
17 65 36 76 42 11 6 22 14 25 17 3 3 15 11 27 18 72 37 288 232 368 331 33 40
119 162 131 186 6 11 27 50 46 85 79 143 155 382 175 544 4 39 8 144 7 235 -1
149 -7 205 -39 361 -21 104 -113 333 -172 426 -18 29 -33 55 -33 58 0 4 -32
50 -72 103 -53 73 -283 309 -928 955 l-856 857 -379 -379z"/>
<path d="M622 2248 l-623 -622 434 -431 c588 -583 680 -671 860 -816 235 -190
404 -279 627 -333 249 -60 536 -57 796 8 220 55 456 194 699 411 13 11 56 49
96 85 41 35 411 400 824 811 l750 748 -383 382 -382 382 -21 -19 c-12 -10
-358 -354 -769 -764 -411 -410 -772 -764 -801 -788 -30 -23 -70 -56 -89 -72
-63 -55 -164 -118 -210 -130 -55 -15 -205 -16 -241 -2 -15 6 -29 9 -31 6 -6
-6 -118 64 -170 106 -76 62 -230 202 -343 312 l-110 107 232 233 c128 128 236
236 240 241 6 6 -744 766 -758 767 -3 0 -285 -280 -627 -622z"/>
</g>
</svg>
