<?xml version="1.0" standalone="no"?>
<!DOCTYPE svg PUBLIC "-//W3C//DTD SVG 20010904//EN"
 "http://www.w3.org/TR/2001/REC-SVG-20010904/DTD/svg10.dtd">
<svg version="1.0" xmlns="http://www.w3.org/2000/svg"
 width="700.000000pt" height="700.000000pt" viewBox="0 0 700.000000 700.000000"
 preserveAspectRatio="xMidYMid meet">
<metadata>
Created by potrace 1.14, written by Peter Selinger 2001-2017
</metadata>
<g transform="translate(0.000000,700.000000) scale(0.100000,-0.100000)"
fill="#000000" stroke="none">
<path d="M3940 5435 l-1274 -1276 352 -352 352 -352 923 923 924 924 141 -149
c186 -195 286 -316 319 -383 45 -93 43 -282 -5 -360 -23 -37 -120 -159 -163
-204 l-37 -40 351 -352 352 -353 40 42 c198 210 351 436 411 607 65 187 97
471 73 650 -15 113 -19 131 -40 213 -60 236 -175 422 -445 722 -54 61 -301
314 -549 563 l-450 452 -1275 -1275z"/>
<path d="M1347 5652 c-576 -576 -1047 -1051 -1047 -1055 0 -4 572 -580 1271
-1279 l1271 -1271 351 352 352 351 -923 923 -924 924 353 352 352 353 216
-216 c119 -119 220 -216 224 -216 8 0 697 687 697 696 0 9 -1128 1134 -1137
1134 -4 0 -479 -471 -1056 -1048z"/>
<path d="M4429 3986 c-189 -190 -344 -350 -344 -355 0 -6 347 -358 771 -783
709 -712 773 -778 801 -838 40 -85 55 -149 54 -235 -1 -266 -223 -485 -490
-485 -145 0 -251 45 -368 155 l-78 74 -347 -347 c-192 -191 -348 -351 -348
-355 0 -24 200 -201 313 -276 149 -100 370 -193 513 -215 20 -4 39 -8 43 -10
15 -10 156 -20 271 -20 126 0 179 4 280 24 30 6 66 14 80 16 51 10 198 63 274
99 189 88 414 266 523 413 15 20 31 39 34 42 15 12 102 155 138 228 113 225
162 444 156 697 -4 145 -6 163 -31 280 -49 233 -166 473 -318 650 -49 57
-1571 1585 -1579 1585 -2 0 -158 -155 -348 -344z"/>
<path d="M863 2357 c-310 -310 -563 -568 -563 -573 0 -11 854 -863 961 -959
239 -216 376 -319 526 -394 85 -43 208 -87 269 -97 22 -3 42 -8 46 -11 5 -2
27 -6 50 -9 24 -3 52 -7 62 -11 42 -12 285 -10 386 3 310 43 509 142 814 405
150 130 312 287 973 948 l564 565 -348 348 c-191 191 -351 348 -355 348 -3 0
-321 -315 -706 -700 -385 -385 -703 -700 -706 -700 -3 0 -52 -39 -108 -86
-131 -110 -186 -136 -297 -142 -118 -6 -175 9 -263 71 -40 28 -91 67 -112 86
-119 107 -180 164 -264 245 l-93 90 220 221 220 220 -348 348 c-191 191 -352
347 -357 347 -5 0 -262 -254 -571 -563z"/>
</g>
</svg>
