<?xml version="1.0" standalone="no"?>
<!DOCTYPE svg PUBLIC "-//W3C//DTD SVG 20010904//EN"
 "http://www.w3.org/TR/2001/REC-SVG-20010904/DTD/svg10.dtd">
<svg version="1.0" xmlns="http://www.w3.org/2000/svg"
 width="700.000000pt" height="700.000000pt" viewBox="0 0 700.000000 700.000000"
 preserveAspectRatio="xMidYMid meet">
<metadata>
Created by potrace 1.14, written by Peter Selinger 2001-2017
</metadata>
<g transform="translate(0.000000,700.000000) scale(0.100000,-0.100000)"
fill="#000000" stroke="none">
<path d="M1689 6996 c-2 -2 -58 -6 -124 -10 -403 -20 -632 -82 -865 -233 -327
-212 -563 -540 -634 -883 -60 -287 -61 -325 -61 -2380 0 -1598 4 -1981 19
-2080 3 -14 7 -56 11 -95 13 -144 61 -324 119 -450 127 -275 368 -527 648
-678 155 -84 320 -130 588 -162 142 -16 510 -20 2110 -20 1602 0 1977 4 2095
20 17 2 56 6 88 9 81 8 248 43 321 68 286 97 562 315 743 588 119 179 193 390
219 630 4 36 8 76 10 90 15 115 19 531 19 2090 0 1589 -4 2047 -20 2092 -2 7
-7 42 -10 78 -8 101 -13 127 -41 240 -77 310 -281 599 -565 802 -80 57 -231
141 -304 168 -54 21 -85 30 -140 44 -57 14 -81 19 -157 31 -18 3 -44 7 -58 10
-14 2 -56 7 -95 10 -38 3 -99 9 -135 12 -66 7 -3774 15 -3781 9z m1996 -1459
c17 -3 53 -8 80 -11 229 -27 481 -101 669 -198 487 -249 797 -746 871 -1393 3
-27 10 -81 14 -120 9 -73 7 -628 -3 -680 -3 -16 -12 -79 -21 -140 -44 -290
-137 -562 -265 -770 -210 -343 -550 -586 -974 -695 -104 -26 -129 -32 -223
-46 -21 -3 -45 -7 -53 -9 -57 -15 -276 -20 -825 -20 l-630 0 -46 23 c-200 98
-232 366 -61 505 82 66 78 66 767 70 341 2 638 7 660 10 22 4 54 9 70 12 17 2
48 7 70 11 66 10 186 43 260 71 395 150 612 487 672 1043 15 140 6 660 -12
690 -1 3 -6 28 -9 55 -16 113 -65 283 -112 383 -19 41 -34 76 -34 78 0 3 -20
36 -45 74 -90 135 -226 256 -363 321 -69 32 -222 90 -222 83 0 -2 -11 1 -24 6
-13 5 -43 12 -67 15 -24 4 -46 8 -49 10 -3 2 -33 7 -65 10 -33 4 -69 10 -80
12 -11 3 -247 7 -525 9 -779 6 -777 6 -831 31 -48 23 -117 91 -142 140 -54
104 -33 250 48 336 31 32 87 69 130 85 32 11 1310 11 1370 -1z m-139 -1742
c32 -4 72 -19 105 -38 203 -122 194 -414 -16 -525 l-50 -27 -630 0 -630 0 -45
23 c-65 32 -119 88 -147 152 -66 146 0 321 146 392 38 18 69 24 171 28 163 7
1030 3 1096 -5z"/>
</g>
</svg>
