<?xml version="1.0" standalone="no"?>
<!DOCTYPE svg PUBLIC "-//W3C//DTD SVG 20010904//EN"
 "http://www.w3.org/TR/2001/REC-SVG-20010904/DTD/svg10.dtd">
<svg version="1.0" xmlns="http://www.w3.org/2000/svg"
 width="700.000000pt" height="700.000000pt" viewBox="0 0 700.000000 700.000000"
 preserveAspectRatio="xMidYMid meet">
<metadata>
Created by potrace 1.14, written by Peter Selinger 2001-2017
</metadata>
<g transform="translate(0.000000,700.000000) scale(0.100000,-0.100000)"
fill="#000000" stroke="none">
<path d="M4275 5415 l-537 -537 -30 29 c-16 15 -255 254 -531 530 -276 277
-507 503 -513 503 -7 0 -372 -361 -813 -801 l-801 -802 518 -517 c284 -285
525 -527 535 -538 18 -20 12 -27 -517 -556 l-536 -537 365 -364 c398 -396 488
-481 602 -566 130 -98 282 -163 453 -194 59 -11 282 -14 340 -5 91 14 114 19
186 41 197 61 328 150 589 403 50 48 104 100 121 117 l30 29 160 -158 c189
-188 277 -257 404 -318 123 -59 125 -60 191 -79 115 -32 213 -44 339 -40 150
3 185 8 297 41 667 193 1008 941 717 1573 -61 134 -136 231 -319 418 l-174
178 62 64 c34 35 89 92 122 125 50 52 192 217 228 267 77 103 143 272 171 434
14 78 14 304 1 370 -3 17 -7 37 -9 45 -17 95 -72 238 -127 328 -70 118 -198
258 -597 660 l-391 393 -536 -536z m-1341 -814 l264 -263 -131 -131 c-73 -73
-194 -193 -269 -268 l-136 -137 -264 264 c-144 146 -265 267 -268 270 -6 6
523 535 532 532 5 -2 127 -122 272 -267z m2002 146 c216 -222 242 -262 251
-385 9 -129 -23 -194 -172 -351 -101 -107 -1915 -1920 -2023 -2022 -124 -118
-165 -146 -233 -165 -70 -18 -121 -18 -194 1 -75 20 -124 57 -300 228 l-140
136 1340 1340 c737 738 1343 1341 1346 1341 3 0 59 -55 125 -123z m20 -2167
c202 -201 228 -245 229 -390 0 -82 -4 -103 -27 -152 -95 -203 -345 -287 -532
-179 -37 21 -286 256 -337 317 -11 13 27 55 252 280 145 145 267 263 272 261
4 -1 68 -63 143 -137z"/>
</g>
</svg>
