<?xml version="1.0" standalone="no"?>
<!DOCTYPE svg PUBLIC "-//W3C//DTD SVG 20010904//EN"
 "http://www.w3.org/TR/2001/REC-SVG-20010904/DTD/svg10.dtd">
<svg version="1.0" xmlns="http://www.w3.org/2000/svg"
 width="700.000000pt" height="700.000000pt" viewBox="0 0 700.000000 700.000000"
 preserveAspectRatio="xMidYMid meet">
<metadata>
Created by potrace 1.14, written by Peter Selinger 2001-2017
</metadata>
<g transform="translate(0.000000,700.000000) scale(0.100000,-0.100000)"
fill="#000000" stroke="none">
<path d="M1856 5144 l-806 -807 1004 -1003 c552 -552 1006 -1004 1010 -1004 3
0 126 120 272 266 l267 266 -734 734 c-404 404 -735 737 -736 741 -2 5 116
127 262 273 l265 265 75 -75 c42 -41 131 -130 198 -197 67 -68 126 -123 131
-123 4 0 128 119 274 265 l265 265 -470 470 -470 471 -807 -807z"/>
<path d="M3805 4945 c-553 -553 -1005 -1007 -1005 -1009 0 -2 120 -124 267
-270 l267 -267 738 738 739 738 87 -91 c153 -160 221 -240 262 -309 21 -34 24
-52 25 -135 0 -79 -4 -102 -22 -135 -19 -37 -113 -153 -189 -234 l-31 -34 266
-267 266 -268 56 57 c188 190 320 386 368 546 50 162 63 347 35 510 -32 197
-81 310 -207 476 -105 140 -183 223 -609 651 l-308 308 -1005 -1005z"/>
<path d="M4138 3933 l-268 -268 611 -610 c336 -335 621 -624 633 -640 53 -69
70 -124 71 -225 0 -82 -4 -103 -27 -152 -93 -199 -329 -283 -522 -186 -21 11
-81 61 -133 111 l-93 90 -31 -29 c-17 -16 -138 -137 -270 -268 l-239 -239 93
-92 c122 -120 219 -193 331 -249 96 -48 218 -92 282 -102 22 -3 59 -10 84 -14
48 -10 267 -6 338 4 24 4 82 18 129 32 667 193 1008 941 717 1573 -81 176
-107 205 -789 889 -353 353 -643 642 -646 642 -2 0 -124 -120 -271 -267z"/>
<path d="M1517 2659 l-467 -469 298 -298 c462 -459 575 -563 727 -667 115 -78
255 -135 395 -160 62 -11 283 -14 345 -5 240 37 365 99 605 299 107 89 1250
1215 1250 1231 0 4 -120 127 -266 274 l-266 265 -498 -497 c-688 -687 -771
-764 -873 -806 -47 -19 -177 -16 -227 6 -48 22 -173 125 -305 252 l-110 106
201 201 202 202 -269 268 c-148 148 -270 269 -272 268 -1 0 -212 -212 -470
-470z"/>
</g>
</svg>
