<svg width="24" height="26" viewBox="0 0 24 26" fill="none" xmlns="http://www.w3.org/2000/svg">
<path d="M11.0088 0C9.02655 0 8.0354 1.32507 8.0354 3.50964C8.0354 4.7989 8.49558 6.33884 9.41593 8.12948C8.60177 11.0661 7.32743 14.3967 6.0177 17.0826C1.9823 18.9807 0 20.8072 0 22.8127C0 24.3526 1.38053 26 3.15044 26C5.55752 26 7.39823 22.562 8.70796 19.876C11.0088 18.9807 13.5929 18.0854 16 17.6198C17.5929 18.9807 19.0088 19.6612 20.354 19.6612C22.5841 19.6612 24 17.9421 24 16.438C24 14.8981 22.7611 13.4298 20.0708 13.4298C19.1858 13.4298 18.3363 13.6088 17.2743 13.7163C15.823 12.1405 14.3009 9.99174 13.1681 7.80716C13.5575 6.01653 13.6637 4.7989 13.6637 3.72452C13.6637 0.895317 12.5664 0 11.0088 0ZM11.5044 11.281C12.3894 12.5702 13.2389 13.7879 14.1947 14.8981C12.708 15.2562 11.2212 15.7934 9.76991 16.2948C10.3717 14.6474 11.0442 12.9642 11.5044 11.281Z" fill="#139FE5"/>
</svg>
