<svg width="42" height="83" viewBox="0 0 42 83" fill="none" xmlns="http://www.w3.org/2000/svg">
<path d="M0.5 6C0.5 2.68629 3.18629 0 6.5 0H16.5C18.7091 0 20.5 1.79086 20.5 4V20H0.5V6Z" fill="url(#paint0_linear_449_11020)"/>
<rect x="0.5" y="21" width="20" height="20" fill="url(#paint1_linear_449_11020)"/>
<rect x="0.5" y="42" width="20" height="20" fill="url(#paint2_linear_449_11020)"/>
<path d="M0.5 63H20.5V83V83C9.45431 83 0.5 74.0457 0.5 63V63Z" fill="url(#paint3_linear_449_11020)"/>
<path d="M21.5 21H37.5C39.7091 21 41.5 22.7909 41.5 25V37C41.5 39.2091 39.7091 41 37.5 41H21.5V21Z" fill="url(#paint4_linear_449_11020)"/>
<path d="M21.5 63H37.5C39.7091 63 41.5 64.7909 41.5 67V79C41.5 81.2091 39.7091 83 37.5 83H21.5V63Z" fill="url(#paint5_linear_449_11020)"/>
<defs>
<linearGradient id="paint0_linear_449_11020" x1="10.5" y1="0" x2="10.5" y2="15.8824" gradientUnits="userSpaceOnUse">
<stop stop-color="#414141"/>
<stop offset="1" stop-color="#111111"/>
</linearGradient>
<linearGradient id="paint1_linear_449_11020" x1="10.5" y1="21" x2="10.5" y2="36.8824" gradientUnits="userSpaceOnUse">
<stop stop-color="#414141"/>
<stop offset="1" stop-color="#111111"/>
</linearGradient>
<linearGradient id="paint2_linear_449_11020" x1="10.5" y1="42" x2="10.5" y2="57.8824" gradientUnits="userSpaceOnUse">
<stop stop-color="#414141"/>
<stop offset="1" stop-color="#111111"/>
</linearGradient>
<linearGradient id="paint3_linear_449_11020" x1="10.5" y1="63" x2="10.5" y2="78.8824" gradientUnits="userSpaceOnUse">
<stop stop-color="#414141"/>
<stop offset="1" stop-color="#111111"/>
</linearGradient>
<linearGradient id="paint4_linear_449_11020" x1="31.5" y1="21" x2="31.5" y2="36.8824" gradientUnits="userSpaceOnUse">
<stop stop-color="#414141"/>
<stop offset="1" stop-color="#111111"/>
</linearGradient>
<linearGradient id="paint5_linear_449_11020" x1="31.5" y1="63" x2="31.5" y2="78.8824" gradientUnits="userSpaceOnUse">
<stop stop-color="#414141"/>
<stop offset="1" stop-color="#111111"/>
</linearGradient>
</defs>
</svg>
