<svg width="300" height="68" viewBox="0 0 300 68" fill="none" xmlns="http://www.w3.org/2000/svg">
<path fill-rule="evenodd" clip-rule="evenodd" d="M273.059 24.5235C265.563 24.5235 261.748 29.581 261.748 39.2767C261.748 48.9725 265.563 54.03 273.059 54.03C280.555 54.03 284.37 48.9725 284.37 39.2767C284.37 29.581 280.555 24.5235 273.059 24.5235ZM300 39.2767C300 57.5875 290.914 67.1379 273.06 67.1379C255.205 67.1379 246.119 57.5875 246.119 39.2767C246.119 20.9659 255.205 11.4155 273.06 11.4155C290.914 11.4155 300 20.9659 300 39.2767ZM240.747 24.4478C240.747 24.8168 240.446 25.1156 240.075 25.1156H230.056V47.7749C230.056 52.7324 231.435 53.4379 234.336 53.4379H240.075C240.446 53.4379 240.747 53.7367 240.747 54.1062V65.3277C240.747 65.6967 240.446 65.9955 240.075 65.9955H230.488C221.735 65.9955 214.716 62.4113 214.716 47.7749V0.668292C214.716 0.29927 215.017 0 215.388 0H229.383C229.755 0 230.056 0.29927 230.056 0.668292V12.5576H240.075C240.446 12.5576 240.747 12.8568 240.747 13.2259V24.4478ZM161.793 29.5943C161.793 19.8164 166.612 12.5575 180.973 12.558H204.026C204.397 12.558 204.699 12.8568 204.699 13.2258V24.4477C204.699 24.8168 204.397 25.1156 204.026 25.1156H180.973C178.032 25.1156 176.923 26.7986 176.923 28.6997C176.923 30.6005 178.032 32.2834 180.973 32.2834H188.056C202.601 32.2834 207.227 39.1968 207.227 48.9686C207.227 58.7413 202.601 65.9954 188.056 65.9954H163.095C162.724 65.9954 162.422 65.6966 162.422 65.3276V54.1057C162.422 53.7371 162.724 53.4379 163.095 53.4379H188.056C190.989 53.4379 192.097 51.6691 192.097 49.8641C192.097 48.059 190.989 46.2902 188.056 46.2902H180.973C166.612 46.2902 161.793 39.3717 161.793 29.5943ZM153.31 65.3277C153.31 65.6968 153.009 65.9956 152.638 65.9956H138.643C138.272 65.9956 137.971 65.6968 137.971 65.3277V13.2255C137.971 12.8564 138.272 12.5572 138.643 12.5572H152.638C153.009 12.5572 153.31 12.8564 153.31 13.2255V65.3277ZM153.69 0.000182023C154.081 0.000182023 154.388 0.331029 154.364 0.717959C154.058 5.5421 150.66 8.6842 145.639 8.6842C140.619 8.6842 137.221 5.5421 136.915 0.717959C136.891 0.331029 137.199 0.000182023 137.59 0.000182023H153.69ZM96.1865 30.5286C96.1865 21.8955 97.0785 18.7628 99.9756 16.1122C103.257 13.111 106.528 12.5578 115.218 12.5578H127.809C128.18 12.5578 128.481 12.857 128.481 13.226V24.448C128.481 24.817 128.18 25.1158 127.809 25.1158H115.218C113.641 25.1158 112.934 25.3755 112.361 26.0588C111.758 26.7771 111.526 27.9289 111.526 30.5286V65.3278C111.526 65.6969 111.226 65.9956 110.854 65.9956H96.8596C96.488 65.9956 96.1865 65.6969 96.1865 65.3278V30.5286ZM61.2239 68C42.0575 68 37.6826 59.1048 37.6826 46.2593V13.2255C37.6826 12.8569 37.9841 12.5577 38.3557 12.5577H52.3504C52.7216 12.5577 53.023 12.8569 53.023 13.2255V46.2593C53.023 52.0114 54.9645 55.4419 61.2239 55.4419C67.4833 55.4419 69.4249 52.0114 69.4249 46.2593V13.2255C69.4249 12.8569 69.7263 12.5577 70.098 12.5577H84.0926C84.4638 12.5577 84.7653 12.8569 84.7653 13.2255V46.2593C84.7653 59.1048 80.3909 68 61.2239 68ZM26.0321 24.4478C26.0321 24.8168 25.7306 25.1156 25.359 25.1156H15.3404V47.7749C15.3404 52.7324 16.7194 53.4379 19.6203 53.4379H25.359C25.7306 53.4379 26.0321 53.7367 26.0321 54.1062V65.3277C26.0321 65.6967 25.7306 65.9955 25.359 65.9955H15.7724C7.01987 65.9955 0 62.4113 0 47.7749V0.668292C0 0.29927 0.301435 0 0.673125 0H14.6678C15.039 0 15.3404 0.29927 15.3404 0.668292V12.5576H25.359C25.7306 12.5576 26.0321 12.8568 26.0321 13.2259V24.4478Z" fill="url(#paint0_linear_450_11559)"/>
<defs>
<linearGradient id="paint0_linear_450_11559" x1="150" y1="0" x2="150" y2="54" gradientUnits="userSpaceOnUse">
<stop stop-color="#474747"/>
<stop offset="1" stop-color="#111111"/>
</linearGradient>
</defs>
</svg>
