<svg width="390" height="90" viewBox="0 0 390 90" fill="none" xmlns="http://www.w3.org/2000/svg">
<path fill-rule="evenodd" clip-rule="evenodd" d="M354.615 32.4575C344.77 32.4575 339.76 39.1512 339.76 51.9838C339.76 64.8164 344.77 71.5102 354.615 71.5102C364.46 71.5102 369.47 64.8164 369.47 51.9838C369.47 39.1512 364.46 32.4575 354.615 32.4575ZM390 51.9837C390 76.2186 378.067 88.8588 354.618 88.8588C331.168 88.8588 319.234 76.2186 319.234 51.9837C319.234 27.7488 331.168 15.1086 354.618 15.1086C378.067 15.1086 390 27.7488 390 51.9837ZM312.177 32.3574C312.177 32.8458 311.781 33.2412 311.294 33.2412H298.135V63.2314C298.135 69.7928 299.946 70.7266 303.756 70.7266H311.294C311.781 70.7266 312.177 71.1221 312.177 71.6111V86.463C312.177 86.9514 311.781 87.3469 311.294 87.3469H298.703C287.207 87.3469 277.988 82.6031 277.988 63.2314V0.884503C277.988 0.396093 278.384 0 278.872 0H297.252C297.74 0 298.135 0.396093 298.135 0.884503V16.6203H311.294C311.781 16.6203 312.177 17.0164 312.177 17.5048V32.3574ZM208.481 39.1689C208.481 26.2276 214.81 16.6203 233.672 16.6209H262.949C263.437 16.6209 263.833 17.0164 263.833 17.5048V32.3573C263.833 32.8458 263.437 33.2412 262.949 33.2412H233.672C229.81 33.2412 228.353 35.4687 228.353 37.985C228.353 40.5006 229.81 42.7281 233.672 42.7281H242.975C262.077 42.7281 268.154 51.8782 268.154 64.8114C268.154 77.7458 262.077 87.3469 242.975 87.3469H210.192C209.704 87.3469 209.308 86.9514 209.308 86.463V71.6104C209.308 71.1227 209.704 70.7266 210.192 70.7266H242.975C246.827 70.7266 248.282 68.3856 248.282 65.9965C248.282 63.6075 246.827 61.2665 242.975 61.2665H233.672C214.81 61.2665 208.481 52.1096 208.481 39.1689ZM197.34 86.463C197.34 86.9514 196.945 87.3469 196.456 87.3469H178.077C177.589 87.3469 177.193 86.9514 177.193 86.463V17.5042C177.193 17.0158 177.589 16.6197 178.077 16.6197H196.456C196.945 16.6197 197.34 17.0158 197.34 17.5042V86.463ZM197.838 0.00018325C198.351 0.00018325 198.754 0.438068 198.722 0.950182C198.321 7.33507 193.858 11.4937 187.264 11.4937C180.671 11.4937 176.207 7.33507 175.807 0.950182C175.774 0.438068 176.179 0.00018325 176.692 0.00018325H197.838ZM125.334 40.4056C125.334 28.9794 126.505 24.8332 130.31 21.3252C134.62 17.353 138.917 16.6207 150.33 16.6207H164.855C165.343 16.6207 165.739 17.0168 165.739 17.5052V32.3577C165.739 32.8461 165.343 33.2416 164.855 33.2416H150.33C148.259 33.2416 147.33 33.5853 146.576 34.4898C145.785 35.4404 145.481 36.9649 145.481 40.4056V86.4634C145.481 86.9518 145.086 87.3473 144.598 87.3473H126.218C125.73 87.3473 125.334 86.9518 125.334 86.4634V40.4056ZM79.4127 90C54.2399 90 48.4941 78.227 48.4941 61.2256V17.5044C48.4941 17.0166 48.89 16.6205 49.3782 16.6205H67.7584C68.2459 16.6205 68.6418 17.0166 68.6418 17.5044V61.2256C68.6418 68.8386 71.1917 73.3791 79.4127 73.3791C87.6336 73.3791 90.1835 68.8386 90.1835 61.2256V17.5044C90.1835 17.0166 90.5794 16.6205 91.0676 16.6205H109.448C109.935 16.6205 110.331 17.0166 110.331 17.5044V61.2256C110.331 78.227 104.586 90 79.4127 90ZM34.1898 32.3574C34.1898 32.8458 33.7939 33.2412 33.3057 33.2412H20.1477V63.2314C20.1477 69.7928 21.9588 70.7266 25.7688 70.7266H33.3057C33.7939 70.7266 34.1898 71.1221 34.1898 71.6111V86.463C34.1898 86.9514 33.7939 87.3469 33.3057 87.3469H20.715C9.2197 87.3469 0 82.6031 0 63.2314V0.884503C0 0.396093 0.395896 0 0.884063 0H19.2642C19.7518 0 20.1477 0.396093 20.1477 0.884503V16.6203H33.3057C33.7939 16.6203 34.1898 17.0164 34.1898 17.5048V32.3574Z" fill="url(#paint0_linear_452_12695)"/>
<path fill-rule="evenodd" clip-rule="evenodd" d="M354.615 32.4575C344.77 32.4575 339.76 39.1512 339.76 51.9838C339.76 64.8164 344.77 71.5102 354.615 71.5102C364.46 71.5102 369.47 64.8164 369.47 51.9838C369.47 39.1512 364.46 32.4575 354.615 32.4575ZM390 51.9837C390 76.2186 378.067 88.8588 354.618 88.8588C331.168 88.8588 319.234 76.2186 319.234 51.9837C319.234 27.7488 331.168 15.1086 354.618 15.1086C378.067 15.1086 390 27.7488 390 51.9837ZM312.177 32.3574C312.177 32.8458 311.781 33.2412 311.294 33.2412H298.135V63.2314C298.135 69.7928 299.946 70.7266 303.756 70.7266H311.294C311.781 70.7266 312.177 71.1221 312.177 71.6111V86.463C312.177 86.9514 311.781 87.3469 311.294 87.3469H298.703C287.207 87.3469 277.988 82.6031 277.988 63.2314V0.884503C277.988 0.396093 278.384 0 278.872 0H297.252C297.74 0 298.135 0.396093 298.135 0.884503V16.6203H311.294C311.781 16.6203 312.177 17.0164 312.177 17.5048V32.3574ZM208.481 39.1689C208.481 26.2276 214.81 16.6203 233.672 16.6209H262.949C263.437 16.6209 263.833 17.0164 263.833 17.5048V32.3573C263.833 32.8458 263.437 33.2412 262.949 33.2412H233.672C229.81 33.2412 228.353 35.4687 228.353 37.985C228.353 40.5006 229.81 42.7281 233.672 42.7281H242.975C262.077 42.7281 268.154 51.8782 268.154 64.8114C268.154 77.7458 262.077 87.3469 242.975 87.3469H210.192C209.704 87.3469 209.308 86.9514 209.308 86.463V71.6104C209.308 71.1227 209.704 70.7266 210.192 70.7266H242.975C246.827 70.7266 248.282 68.3856 248.282 65.9965C248.282 63.6075 246.827 61.2665 242.975 61.2665H233.672C214.81 61.2665 208.481 52.1096 208.481 39.1689ZM197.34 86.463C197.34 86.9514 196.945 87.3469 196.456 87.3469H178.077C177.589 87.3469 177.193 86.9514 177.193 86.463V17.5042C177.193 17.0158 177.589 16.6197 178.077 16.6197H196.456C196.945 16.6197 197.34 17.0158 197.34 17.5042V86.463ZM197.838 0.00018325C198.351 0.00018325 198.754 0.438068 198.722 0.950182C198.321 7.33507 193.858 11.4937 187.264 11.4937C180.671 11.4937 176.207 7.33507 175.807 0.950182C175.774 0.438068 176.179 0.00018325 176.692 0.00018325H197.838ZM125.334 40.4056C125.334 28.9794 126.505 24.8332 130.31 21.3252C134.62 17.353 138.917 16.6207 150.33 16.6207H164.855C165.343 16.6207 165.739 17.0168 165.739 17.5052V32.3577C165.739 32.8461 165.343 33.2416 164.855 33.2416H150.33C148.259 33.2416 147.33 33.5853 146.576 34.4898C145.785 35.4404 145.481 36.9649 145.481 40.4056V86.4634C145.481 86.9518 145.086 87.3473 144.598 87.3473H126.218C125.73 87.3473 125.334 86.9518 125.334 86.4634V40.4056ZM79.4127 90C54.2399 90 48.4941 78.227 48.4941 61.2256V17.5044C48.4941 17.0166 48.89 16.6205 49.3782 16.6205H67.7584C68.2459 16.6205 68.6418 17.0166 68.6418 17.5044V61.2256C68.6418 68.8386 71.1917 73.3791 79.4127 73.3791C87.6336 73.3791 90.1835 68.8386 90.1835 61.2256V17.5044C90.1835 17.0166 90.5794 16.6205 91.0676 16.6205H109.448C109.935 16.6205 110.331 17.0166 110.331 17.5044V61.2256C110.331 78.227 104.586 90 79.4127 90ZM34.1898 32.3574C34.1898 32.8458 33.7939 33.2412 33.3057 33.2412H20.1477V63.2314C20.1477 69.7928 21.9588 70.7266 25.7688 70.7266H33.3057C33.7939 70.7266 34.1898 71.1221 34.1898 71.6111V86.463C34.1898 86.9514 33.7939 87.3469 33.3057 87.3469H20.715C9.2197 87.3469 0 82.6031 0 63.2314V0.884503C0 0.396093 0.395896 0 0.884063 0H19.2642C19.7518 0 20.1477 0.396093 20.1477 0.884503V16.6203H33.3057C33.7939 16.6203 34.1898 17.0164 34.1898 17.5048V32.3574Z" fill="url(#paint1_radial_452_12695)" fill-opacity="0.8"/>
<defs>
<linearGradient id="paint0_linear_452_12695" x1="195" y1="-10" x2="195" y2="72.3484" gradientUnits="userSpaceOnUse">
<stop stop-color="#686868"/>
<stop offset="1" stop-color="#111111"/>
</linearGradient>
<radialGradient id="paint1_radial_452_12695" cx="0" cy="0" r="1" gradientUnits="userSpaceOnUse" gradientTransform="translate(195 -72) rotate(90) scale(154 554)">
<stop stop-color="white" stop-opacity="0.07"/>
<stop offset="0.817608" stop-color="white" stop-opacity="0.26"/>
<stop offset="0.817708" stop-opacity="0.12"/>
</radialGradient>
</defs>
</svg>
