<svg width="76" height="76" viewBox="0 0 76 76" fill="none" xmlns="http://www.w3.org/2000/svg">
<path d="M34.5 18V34.5H18C8.8873 34.5 1.5 27.1127 1.5 18C1.5 8.8873 8.8873 1.5 18 1.5C27.1127 1.5 34.5 8.8873 34.5 18Z M41.5 18V34.5H58C67.1127 34.5 74.5 27.1127 74.5 18C74.5 8.8873 67.1127 1.5 58 1.5C48.8873 1.5 41.5 8.8873 41.5 18Z M34.5 58L34.5 41.5L18 41.5C8.88731 41.5 1.5 48.8873 1.5 58C1.5 67.1127 8.8873 74.5 18 74.5C27.1127 74.5 34.5 67.1127 34.5 58Z M41.5 58L41.5 41.5L58 41.5C67.1127 41.5 74.5 48.8873 74.5 58C74.5 67.1127 67.1127 74.5 58 74.5C48.8873 74.5 41.5 67.1127 41.5 58Z" stroke="white" stroke-width="2.4"/>
</svg>
