<svg width="112" height="104" viewBox="0 0 112 104" fill="none" xmlns="http://www.w3.org/2000/svg">
<path d="M105.69 19.1785L105.691 19.1791C112.707 32.6013 107.969 49.5594 96.8989 65.4433C86.2169 80.7702 70.2445 94.1436 56.0005 100.711C41.7521 94.1397 25.7795 80.7659 15.0985 65.4401C4.02944 49.5575 -0.70697 32.6015 6.3099 19.1791L6.31021 19.1785C11.2804 9.66593 21.4847 3.75 31.7247 3.75C39.7147 3.75 47.7923 7.34625 53.5059 15.8969L55.9991 19.6281L58.4939 15.8979C64.2085 7.35374 72.2873 3.75 80.2759 3.75C90.5159 3.75 100.72 9.66593 105.69 19.1785Z" stroke="url(#paint0_linear_430_20769)" stroke-width="6"/>
<defs>
<linearGradient id="paint0_linear_430_20769" x1="7" y1="63" x2="109.941" y2="20.4118" gradientUnits="userSpaceOnUse">
<stop stop-color="#FF2B0B"/>
<stop offset="0.320211" stop-color="#9E24C9"/>
<stop offset="0.723669" stop-color="#0180FF"/>
<stop offset="1" stop-color="#57ABFF"/>
</linearGradient>
</defs>
</svg>
