<svg width="112" height="104" viewBox="0 0 112 104" fill="none" xmlns="http://www.w3.org/2000/svg">
<path d="M106.133 18.947L106.134 18.9475C113.284 32.6244 108.412 49.7983 97.3091 65.7292C86.5293 81.1963 70.3863 94.6876 56.0004 101.262C41.6103 94.6835 25.4671 81.1921 14.6883 65.726C3.58649 49.7964 -1.28319 32.6245 5.86679 18.9475L5.86705 18.947C10.9252 9.26603 21.3023 3.25 31.7247 3.25C39.8774 3.25 48.1129 6.92604 53.9216 15.6191L55.9993 18.7284L58.0783 15.6199C63.8879 6.93371 72.1244 3.25 80.2759 3.25C90.6982 3.25 101.075 9.26603 106.133 18.947Z" stroke="url(#paint0_linear_430_20769)" stroke-width="5"/>
<defs>
<linearGradient id="paint0_linear_430_20769" x1="7" y1="63" x2="109.941" y2="20.4118" gradientUnits="userSpaceOnUse">
<stop stop-color="#FF2B0B"/>
<stop offset="0.320211" stop-color="#9E24C9"/>
<stop offset="0.723669" stop-color="#0180FF"/>
<stop offset="1" stop-color="#57ABFF"/>
</linearGradient>
</defs>
</svg>
